<?xml version="1.0" encoding="utf-8"?>
<!-- Generator: Adobe Illustrator 14.0.0, SVG Export Plug-In . SVG Version: 6.00 Build 43363)  -->
<!DOCTYPE svg PUBLIC "-//W3C//DTD SVG 1.1//EN" "http://www.w3.org/Graphics/SVG/1.1/DTD/svg11.dtd">
<svg version="1.1" id="Layer_1" xmlns="http://www.w3.org/2000/svg" xmlns:xlink="http://www.w3.org/1999/xlink" x="0px" y="0px"
	 width="50px" height="50px" viewBox="231 231 50 50" style="enable-background:new 231 231 50 50;" xml:space="preserve">
<style type="text/css">
<![CDATA[
	.st0{fill:url(#github-2-circle-outline-icon_1_);}
]]>
</style>
<linearGradient id="github-2-circle-outline-icon_1_" gradientUnits="userSpaceOnUse" x1="249.062" y1="279.915" x2="262.813" y2="231.9594">
	<stop  offset="0" style="stop-color:#8700E7"/>
	<stop  offset="0.0358" style="stop-color:#8C06E0"/>
	<stop  offset="0.0894" style="stop-color:#9918CB"/>
	<stop  offset="0.1541" style="stop-color:#B034AA"/>
	<stop  offset="0.2275" style="stop-color:#CE5B7B"/>
	<stop  offset="0.3067" style="stop-color:#F58D41"/>
	<stop  offset="0.4479" style="stop-color:#FF9933"/>
	<stop  offset="0.5951" style="stop-color:#FFB55C"/>
	<stop  offset="0.7485" style="stop-color:#FF6903"/>
	<stop  offset="0.8773" style="stop-color:#957AB7"/>
	<stop  offset="0.9816" style="stop-color:#1794FF"/>
</linearGradient>
<path id="github-2-circle-outline-icon" class="st0" d="M255.938,235.842c5.368,0,10.414,2.09,14.209,5.886
	c3.797,3.795,5.886,8.842,5.886,14.209c0,5.368-2.089,10.413-5.886,14.209c-3.795,3.797-8.841,5.886-14.209,5.886
	c-5.368,0-10.414-2.089-14.209-5.886c-3.795-3.796-5.886-8.841-5.886-14.209c0-5.368,2.09-10.414,5.886-14.209
	S250.57,235.842,255.938,235.842 M255.938,231C242.165,231,231,242.165,231,255.938c0,13.773,11.165,24.938,24.938,24.938
	c13.773,0,24.938-11.164,24.938-24.938C280.875,242.165,269.711,231,255.938,231L255.938,231z M272.31,257.212l0.029-0.299
	c-1.796-0.175-3.582-0.189-5.316-0.059c0.278-0.889,0.426-1.895,0.414-3.039c-0.022-2.429-0.832-4.32-2.106-5.891
	c0.245-1.479,0.062-2.957-0.4-4.437c-1.818,0.149-3.455,0.744-4.913,1.779c-2.724-0.552-5.447-0.588-8.171,0
	c-1.7-1.147-3.37-1.71-5.013-1.779c-0.487,1.629-0.562,3.234-0.15,4.813c-1.434,1.522-1.982,3.369-1.955,5.414
	c0.016,1.171,0.195,2.213,0.528,3.135c-1.709-0.126-3.467-0.11-5.235,0.062l0.029,0.299c1.799-0.175,3.589-0.189,5.327-0.053
	c0.064,0.154,0.128,0.309,0.202,0.455c-1.884-0.048-3.579,0.114-5.166,0.505l0.071,0.292c1.611-0.396,3.337-0.556,5.264-0.49
	c1.274,2.264,3.728,3.595,7.3,4.018c-0.83,0.674-1.276,1.469-1.391,2.369c0,0-0.375,0-1.892,0c-2.542,0-3.234-3.24-5.866-2.922
	c2.553,1.268,2.043,5.314,6.129,5.314c1.373,0,1.665,0,1.717,0v3.71c0.018,0.599-0.243,1.001-0.665,1.279
	c1.463,0.148,2.562-0.584,2.562-1.479c0-0.896,0-4.467,0-4.904c0-0.437,0.458-0.471,0.458-0.471v5.727
	c0.02,0.569-0.257,0.893-0.551,1.203c1.289,0.051,2.501-0.207,2.556-1.305c0,0,0-5.203,0-5.479s0.451-0.283,0.451,0
	c0,0.282,0,5.223,0,5.223c0.014,0.926,0.813,1.676,2.508,1.561c-0.454-0.366-0.594-0.734-0.594-1.269c0-0.532,0-5.661,0-5.661
	s0.467-0.023,0.467,0.471c0,0.495,0,3.947,0,4.775c0,1.063,1.276,1.502,2.731,1.461c-0.476-0.357-0.798-0.785-0.801-1.354v-5.742
	c-0.049-0.845-0.393-1.641-1.065-2.382c3.266-0.502,5.619-1.806,6.792-4.142c1.934-0.066,3.664,0.093,5.278,0.489l0.072-0.292
	c-1.599-0.393-3.308-0.557-5.208-0.503c0.064-0.148,0.13-0.297,0.186-0.454C268.681,257.021,270.49,257.035,272.31,257.212z
	 M245.04,261.87c-0.08,0-0.145-0.047-0.145-0.103c0-0.058,0.064-0.104,0.145-0.104c0.081,0,0.146,0.046,0.146,0.104
	C245.186,261.823,245.121,261.87,245.04,261.87z M245.498,262.183c-0.089,0-0.161-0.052-0.161-0.115s0.072-0.114,0.161-0.114
	s0.162,0.051,0.162,0.114S245.587,262.183,245.498,262.183z M245.962,262.587c-0.104,0-0.189-0.059-0.189-0.133
	s0.085-0.135,0.189-0.135s0.189,0.061,0.189,0.135S246.067,262.587,245.962,262.587z M246.413,263.074
	c-0.122,0-0.221-0.069-0.221-0.156s0.099-0.157,0.221-0.157c0.123,0,0.222,0.07,0.222,0.157S246.536,263.074,246.413,263.074z
	 M246.911,263.625c-0.136,0-0.247-0.078-0.247-0.175s0.11-0.174,0.247-0.174c0.135,0,0.246,0.077,0.246,0.174
	S247.046,263.625,246.911,263.625z M247.486,264.184c-0.151,0-0.274-0.087-0.274-0.193s0.123-0.195,0.274-0.195
	c0.151,0,0.273,0.089,0.273,0.195S247.637,264.184,247.486,264.184z M248.264,264.716c-0.168,0-0.304-0.098-0.304-0.217
	c0-0.118,0.136-0.215,0.304-0.215c0.167,0,0.303,0.097,0.303,0.215C248.567,264.618,248.431,264.716,248.264,264.716z
	 M249.228,264.998c-0.167,0-0.304-0.096-0.304-0.215c0-0.118,0.136-0.215,0.304-0.215c0.168,0,0.304,0.097,0.304,0.215
	C249.531,264.902,249.396,264.998,249.228,264.998z M250.244,265.033c-0.168,0-0.304-0.098-0.304-0.216
	c0-0.12,0.136-0.217,0.304-0.217s0.304,0.097,0.304,0.217C250.548,264.936,250.412,265.033,250.244,265.033z M251.247,265.053
	c-0.167,0-0.303-0.098-0.303-0.217c0-0.118,0.136-0.217,0.303-0.217c0.168,0,0.304,0.099,0.304,0.217
	C251.551,264.955,251.415,265.053,251.247,265.053z"/>
</svg>
