<?xml version="1.0" encoding="utf-8"?>
<!-- Generator: Adobe Illustrator 14.0.0, SVG Export Plug-In . SVG Version: 6.00 Build 43363)  -->
<!DOCTYPE svg PUBLIC "-//W3C//DTD SVG 1.1//EN" "http://www.w3.org/Graphics/SVG/1.1/DTD/svg11.dtd">
<svg version="1.1" id="Layer_1" xmlns="http://www.w3.org/2000/svg" xmlns:xlink="http://www.w3.org/1999/xlink" x="0px" y="0px"
	 width="640px" height="480px" viewBox="0 0 640 480" style="enable-background:new 0 0 640 480;" xml:space="preserve">
<style type="text/css">
<![CDATA[
	.st0{fill:#FFFFFF;}
]]>
</style>
<path class="st0" d="M0,0v480h640V0H0z M36.667,471C28.014,471,21,456.673,21,438.999C21,421.326,28.014,407,36.667,407
	s15.667,14.326,15.667,31.999C52.333,456.673,45.319,471,36.667,471z M36.667,381C28.014,381,21,369.807,21,355.999
	C21,342.192,28.014,331,36.667,331s15.667,11.192,15.667,24.999C52.333,369.807,45.319,381,36.667,381z M36.667,307.667
	c-8.652,0-15.667-8.656-15.667-19.334S28.014,269,36.667,269s15.667,8.655,15.667,19.333S45.319,307.667,36.667,307.667z
	 M36.667,239.333c-8.652,0-15.667-7.91-15.667-17.667C21,211.91,28.014,204,36.667,204s15.667,7.91,15.667,17.667
	C52.333,231.423,45.319,239.333,36.667,239.333z M36.667,184C28.014,184,21,176.389,21,167s7.014-17,15.667-17
	s15.667,7.611,15.667,17S45.319,184,36.667,184z M36.667,131.333c-8.652,0-15.667-7.015-15.667-15.667
	C21,107.014,28.014,100,36.667,100s15.667,7.014,15.667,15.667C52.333,124.318,45.319,131.333,36.667,131.333z M36.667,85.333
	C28.014,85.333,21,78.318,21,69.667C21,61.014,28.014,54,36.667,54s15.667,7.014,15.667,15.667
	C52.333,78.318,45.319,85.333,36.667,85.333z M36.667,38.333C28.014,38.333,21,31.319,21,22.667S28.014,7,36.667,7
	s15.667,7.014,15.667,15.667S45.319,38.333,36.667,38.333z M117.619,471c-8.652,0-15.667-14.327-15.667-32.001
	c0-17.673,7.014-31.999,15.667-31.999c8.653,0,15.667,14.326,15.667,31.999C133.286,456.673,126.272,471,117.619,471z M117.619,381
	c-8.652,0-15.667-11.193-15.667-25.001c0-13.807,7.014-24.999,15.667-24.999c8.653,0,15.667,11.192,15.667,24.999
	C133.286,369.807,126.272,381,117.619,381z M117.619,307.667c-8.652,0-15.667-8.656-15.667-19.334S108.967,269,117.619,269
	c8.653,0,15.667,8.655,15.667,19.333S126.272,307.667,117.619,307.667z M117.619,239.333c-8.652,0-15.667-7.91-15.667-17.667
	c0-9.757,7.014-17.667,15.667-17.667c8.653,0,15.667,7.91,15.667,17.667C133.286,231.423,126.272,239.333,117.619,239.333z
	 M117.619,184c-8.652,0-15.667-7.612-15.667-17c0-9.389,7.014-17,15.667-17c8.653,0,15.667,7.611,15.667,17
	C133.286,176.388,126.272,184,117.619,184z M117.619,131.333c-8.652,0-15.667-7.015-15.667-15.667
	c0-8.652,7.014-15.667,15.667-15.667c8.653,0,15.667,7.014,15.667,15.667C133.286,124.318,126.272,131.333,117.619,131.333z
	 M117.619,85.333c-8.652,0-15.667-7.015-15.667-15.667c0-8.652,7.014-15.667,15.667-15.667c8.653,0,15.667,7.014,15.667,15.667
	C133.286,78.318,126.272,85.333,117.619,85.333z M117.619,38.333c-8.652,0-15.667-7.015-15.667-15.667
	c0-8.652,7.014-15.667,15.667-15.667c8.653,0,15.667,7.014,15.667,15.667C133.286,31.318,126.272,38.333,117.619,38.333z
	 M198.571,471c-8.652,0-15.667-14.327-15.667-32.001c0-17.673,7.014-31.999,15.667-31.999c8.653,0,15.667,14.326,15.667,31.999
	C214.238,456.673,207.224,471,198.571,471z M198.571,381c-8.652,0-15.667-11.193-15.667-25.001c0-13.807,7.014-24.999,15.667-24.999
	c8.653,0,15.667,11.192,15.667,24.999C214.238,369.807,207.224,381,198.571,381z M198.571,307.667
	c-8.652,0-15.667-8.656-15.667-19.334S189.919,269,198.571,269c8.653,0,15.667,8.655,15.667,19.333S207.224,307.667,198.571,307.667
	z M198.571,239.333c-8.652,0-15.667-7.91-15.667-17.667c0-9.757,7.014-17.667,15.667-17.667c8.653,0,15.667,7.91,15.667,17.667
	C214.238,231.423,207.224,239.333,198.571,239.333z M198.571,184c-8.652,0-15.667-7.612-15.667-17c0-9.389,7.014-17,15.667-17
	c8.653,0,15.667,7.611,15.667,17C214.238,176.388,207.224,184,198.571,184z M198.571,131.333c-8.652,0-15.667-7.015-15.667-15.667
	c0-8.652,7.014-15.667,15.667-15.667c8.653,0,15.667,7.014,15.667,15.667C214.238,124.318,207.224,131.333,198.571,131.333z
	 M198.571,85.333c-8.652,0-15.667-7.015-15.667-15.667c0-8.652,7.014-15.667,15.667-15.667c8.653,0,15.667,7.014,15.667,15.667
	C214.238,78.318,207.224,85.333,198.571,85.333z M198.571,38.333c-8.652,0-15.667-7.015-15.667-15.667
	c0-8.652,7.014-15.667,15.667-15.667c8.653,0,15.667,7.014,15.667,15.667C214.238,31.318,207.224,38.333,198.571,38.333z
	 M279.524,471c-8.652,0-15.667-14.327-15.667-32.001c0-17.673,7.014-31.999,15.667-31.999c8.653,0,15.667,14.326,15.667,31.999
	C295.19,456.673,288.177,471,279.524,471z M279.524,381c-8.652,0-15.667-11.193-15.667-25.001c0-13.807,7.014-24.999,15.667-24.999
	c8.653,0,15.667,11.192,15.667,24.999C295.19,369.807,288.177,381,279.524,381z M279.524,307.667
	c-8.652,0-15.667-8.656-15.667-19.334S270.872,269,279.524,269c8.653,0,15.667,8.655,15.667,19.333S288.177,307.667,279.524,307.667
	z M279.524,239.333c-8.652,0-15.667-7.91-15.667-17.667c0-9.757,7.014-17.667,15.667-17.667c8.653,0,15.667,7.91,15.667,17.667
	C295.19,231.423,288.177,239.333,279.524,239.333z M279.524,184c-8.652,0-15.667-7.612-15.667-17c0-9.389,7.014-17,15.667-17
	c8.653,0,15.667,7.611,15.667,17C295.19,176.388,288.177,184,279.524,184z M279.524,131.333c-8.652,0-15.667-7.015-15.667-15.667
	c0-8.652,7.014-15.667,15.667-15.667c8.653,0,15.667,7.014,15.667,15.667C295.19,124.318,288.177,131.333,279.524,131.333z
	 M279.524,85.333c-8.652,0-15.667-7.015-15.667-15.667c0-8.652,7.014-15.667,15.667-15.667c8.653,0,15.667,7.014,15.667,15.667
	C295.19,78.318,288.177,85.333,279.524,85.333z M279.524,38.333c-8.652,0-15.667-7.015-15.667-15.667
	c0-8.652,7.014-15.667,15.667-15.667c8.653,0,15.667,7.014,15.667,15.667C295.19,31.318,288.177,38.333,279.524,38.333z
	 M360.477,471c-8.652,0-15.667-14.327-15.667-32.001c0-17.673,7.015-31.999,15.667-31.999s15.666,14.326,15.666,31.999
	C376.143,456.673,369.129,471,360.477,471z M360.477,381c-8.652,0-15.667-11.193-15.667-25.001c0-13.807,7.015-24.999,15.667-24.999
	s15.666,11.192,15.666,24.999C376.143,369.807,369.129,381,360.477,381z M360.477,307.667c-8.652,0-15.667-8.656-15.667-19.334
	S351.824,269,360.477,269s15.666,8.655,15.666,19.333S369.129,307.667,360.477,307.667z M360.477,239.333
	c-8.652,0-15.667-7.91-15.667-17.667c0-9.757,7.015-17.667,15.667-17.667s15.666,7.91,15.666,17.667
	C376.143,231.423,369.129,239.333,360.477,239.333z M360.477,184c-8.652,0-15.667-7.612-15.667-17c0-9.389,7.015-17,15.667-17
	s15.666,7.611,15.666,17C376.143,176.388,369.129,184,360.477,184z M360.477,131.333c-8.652,0-15.667-7.015-15.667-15.667
	c0-8.652,7.015-15.667,15.667-15.667s15.666,7.014,15.666,15.667C376.143,124.318,369.129,131.333,360.477,131.333z M360.477,85.333
	c-8.652,0-15.667-7.015-15.667-15.667c0-8.652,7.015-15.667,15.667-15.667s15.666,7.014,15.666,15.667
	C376.143,78.318,369.129,85.333,360.477,85.333z M360.477,38.333c-8.652,0-15.667-7.015-15.667-15.667
	C344.81,14.014,351.824,7,360.477,7s15.666,7.014,15.666,15.667C376.143,31.318,369.129,38.333,360.477,38.333z M441.429,471
	c-8.652,0-15.667-14.327-15.667-32.001c0-17.673,7.015-31.999,15.667-31.999s15.666,14.326,15.666,31.999
	C457.095,456.673,450.081,471,441.429,471z M441.429,381c-8.652,0-15.667-11.193-15.667-25.001c0-13.807,7.015-24.999,15.667-24.999
	s15.666,11.192,15.666,24.999C457.095,369.807,450.081,381,441.429,381z M441.429,307.667c-8.652,0-15.667-8.656-15.667-19.334
	S432.776,269,441.429,269s15.666,8.655,15.666,19.333S450.081,307.667,441.429,307.667z M441.429,239.333
	c-8.652,0-15.667-7.91-15.667-17.667c0-9.757,7.015-17.667,15.667-17.667s15.666,7.91,15.666,17.667
	C457.095,231.423,450.081,239.333,441.429,239.333z M441.429,184c-8.652,0-15.667-7.612-15.667-17c0-9.389,7.015-17,15.667-17
	s15.666,7.611,15.666,17C457.095,176.388,450.081,184,441.429,184z M441.429,131.333c-8.652,0-15.667-7.015-15.667-15.667
	c0-8.652,7.015-15.667,15.667-15.667s15.666,7.014,15.666,15.667C457.095,124.318,450.081,131.333,441.429,131.333z M441.429,85.333
	c-8.652,0-15.667-7.015-15.667-15.667c0-8.652,7.015-15.667,15.667-15.667s15.666,7.014,15.666,15.667
	C457.095,78.318,450.081,85.333,441.429,85.333z M441.429,38.333c-8.652,0-15.667-7.015-15.667-15.667
	c0-8.652,7.015-15.667,15.667-15.667s15.666,7.014,15.666,15.667C457.095,31.318,450.081,38.333,441.429,38.333z M522.381,471
	c-8.652,0-15.666-14.327-15.666-32.001c0-17.673,7.014-31.999,15.666-31.999c8.653,0,15.667,14.326,15.667,31.999
	C538.048,456.673,531.034,471,522.381,471z M522.381,381c-8.652,0-15.666-11.193-15.666-25.001c0-13.807,7.014-24.999,15.666-24.999
	c8.653,0,15.667,11.192,15.667,24.999C538.048,369.807,531.034,381,522.381,381z M522.381,307.667
	c-8.652,0-15.666-8.656-15.666-19.334S513.729,269,522.381,269c8.653,0,15.667,8.655,15.667,19.333S531.034,307.667,522.381,307.667
	z M522.381,239.333c-8.652,0-15.666-7.91-15.666-17.667c0-9.757,7.014-17.667,15.666-17.667c8.653,0,15.667,7.91,15.667,17.667
	C538.048,231.423,531.034,239.333,522.381,239.333z M522.381,184c-8.652,0-15.666-7.612-15.666-17c0-9.389,7.014-17,15.666-17
	c8.653,0,15.667,7.611,15.667,17C538.048,176.388,531.034,184,522.381,184z M522.381,131.333c-8.652,0-15.666-7.015-15.666-15.667
	c0-8.652,7.014-15.667,15.666-15.667c8.653,0,15.667,7.014,15.667,15.667C538.048,124.318,531.034,131.333,522.381,131.333z
	 M522.381,85.333c-8.652,0-15.666-7.015-15.666-15.667c0-8.652,7.014-15.667,15.666-15.667c8.653,0,15.667,7.014,15.667,15.667
	C538.048,78.318,531.034,85.333,522.381,85.333z M522.381,38.333c-8.652,0-15.666-7.015-15.666-15.667
	c0-8.652,7.014-15.667,15.666-15.667c8.653,0,15.667,7.014,15.667,15.667C538.048,31.318,531.034,38.333,522.381,38.333z
	 M603.334,471c-8.652,0-15.667-14.327-15.667-32.001c0-17.673,7.015-31.999,15.667-31.999S619,421.326,619,438.999
	C619,456.673,611.986,471,603.334,471z M603.334,381c-8.652,0-15.667-11.193-15.667-25.001c0-13.807,7.015-24.999,15.667-24.999
	S619,342.192,619,355.999C619,369.807,611.986,381,603.334,381z M603.334,307.667c-8.652,0-15.667-8.656-15.667-19.334
	S594.682,269,603.334,269S619,277.655,619,288.333S611.986,307.667,603.334,307.667z M603.334,239.333
	c-8.652,0-15.667-7.91-15.667-17.667c0-9.757,7.015-17.667,15.667-17.667S619,211.91,619,221.667
	C619,231.423,611.986,239.333,603.334,239.333z M603.334,184c-8.652,0-15.667-7.612-15.667-17c0-9.389,7.015-17,15.667-17
	S619,157.611,619,167C619,176.388,611.986,184,603.334,184z M603.334,131.333c-8.652,0-15.667-7.015-15.667-15.667
	c0-8.652,7.015-15.667,15.667-15.667S619,107.014,619,115.667C619,124.318,611.986,131.333,603.334,131.333z M603.334,85.333
	c-8.652,0-15.667-7.015-15.667-15.667c0-8.652,7.015-15.667,15.667-15.667S619,61.014,619,69.667
	C619,78.318,611.986,85.333,603.334,85.333z M603.334,38.333c-8.652,0-15.667-7.015-15.667-15.667
	c0-8.652,7.015-15.667,15.667-15.667S619,14.014,619,22.667C619,31.318,611.986,38.333,603.334,38.333z"/>
</svg>
