<?xml version="1.0" encoding="utf-8"?>
<!-- Generator: Adobe Illustrator 14.0.0, SVG Export Plug-In . SVG Version: 6.00 Build 43363)  -->
<!DOCTYPE svg PUBLIC "-//W3C//DTD SVG 1.1//EN" "http://www.w3.org/Graphics/SVG/1.1/DTD/svg11.dtd">
<svg version="1.1" id="Layer_1" xmlns="http://www.w3.org/2000/svg" xmlns:xlink="http://www.w3.org/1999/xlink" x="0px" y="0px"
	 width="640px" height="480px" viewBox="0 0 640 480" style="enable-background:new 0 0 640 480;" xml:space="preserve">
<style type="text/css">
<![CDATA[
	.st0{fill:#FFFFFF;}
]]>
</style>
<path class="st0" d="M623,0c3.037,0,5.5,2.463,5.5,5.5S626.037,11,623,11s-5.5-2.463-5.5-5.5S619.963,0,623,0h-37.938
	c3.037,0,5.5,2.463,5.5,5.5s-2.463,5.5-5.5,5.5s-5.5-2.463-5.5-5.5s2.463-5.5,5.5-5.5h-37.938c3.037,0,5.5,2.463,5.5,5.5
	s-2.463,5.5-5.5,5.5s-5.5-2.463-5.5-5.5s2.463-5.5,5.5-5.5h-37.938c3.037,0,5.5,2.463,5.5,5.5s-2.463,5.5-5.5,5.5
	s-5.5-2.463-5.5-5.5s2.463-5.5,5.5-5.5H471.25c3.037,0,5.5,2.463,5.5,5.5s-2.463,5.5-5.5,5.5s-5.5-2.463-5.5-5.5s2.463-5.5,5.5-5.5
	h-37.938c3.037,0,5.5,2.463,5.5,5.5s-2.463,5.5-5.5,5.5s-5.5-2.463-5.5-5.5s2.463-5.5,5.5-5.5h-37.938c3.037,0,5.5,2.463,5.5,5.5
	s-2.463,5.5-5.5,5.5s-5.5-2.463-5.5-5.5s2.463-5.5,5.5-5.5h-37.938c3.037,0,5.5,2.463,5.5,5.5s-2.463,5.5-5.5,5.5
	s-5.5-2.463-5.5-5.5s2.463-5.5,5.5-5.5h-75.875c3.037,0,5.5,2.463,5.5,5.5s-2.463,5.5-5.5,5.5s-5.5-2.463-5.5-5.5s2.463-5.5,5.5-5.5
	h-37.938c3.037,0,5.5,2.463,5.5,5.5s-2.463,5.5-5.5,5.5s-5.5-2.463-5.5-5.5s2.463-5.5,5.5-5.5h-37.938c3.037,0,5.5,2.463,5.5,5.5
	s-2.463,5.5-5.5,5.5s-5.5-2.463-5.5-5.5s2.463-5.5,5.5-5.5H167.75c3.037,0,5.5,2.463,5.5,5.5s-2.463,5.5-5.5,5.5s-5.5-2.463-5.5-5.5
	s2.463-5.5,5.5-5.5h-37.938c3.037,0,5.5,2.463,5.5,5.5s-2.463,5.5-5.5,5.5s-5.5-2.463-5.5-5.5s2.463-5.5,5.5-5.5H91.875
	c3.037,0,5.5,2.463,5.5,5.5s-2.463,5.5-5.5,5.5s-5.5-2.463-5.5-5.5s2.463-5.5,5.5-5.5H53.938c3.037,0,5.5,2.463,5.5,5.5
	s-2.463,5.5-5.5,5.5s-5.5-2.463-5.5-5.5S50.9,0,53.938,0H16c3.037,0,5.5,2.463,5.5,5.5S19.037,11,16,11s-5.5-2.463-5.5-5.5
	S12.963,0,16,0H0v480h17c-3.037,0-5.5-2.463-5.5-5.5s2.463-5.5,5.5-5.5s5.5,2.463,5.5,5.5S20.037,480,17,480h37.938
	c-3.037,0-5.5-2.463-5.5-5.5s2.463-5.5,5.5-5.5s5.5,2.463,5.5,5.5s-2.463,5.5-5.5,5.5h37.938c-3.037,0-5.5-2.463-5.5-5.5
	s2.463-5.5,5.5-5.5s5.5,2.463,5.5,5.5s-2.463,5.5-5.5,5.5h37.938c-3.037,0-5.5-2.463-5.5-5.5s2.463-5.5,5.5-5.5s5.5,2.463,5.5,5.5
	s-2.463,5.5-5.5,5.5h37.938c-3.037,0-5.5-2.463-5.5-5.5s2.463-5.5,5.5-5.5s5.5,2.463,5.5,5.5s-2.463,5.5-5.5,5.5h37.938
	c-3.037,0-5.5-2.463-5.5-5.5s2.463-5.5,5.5-5.5s5.5,2.463,5.5,5.5s-2.463,5.5-5.5,5.5h37.938c-3.037,0-5.5-2.463-5.5-5.5
	s2.463-5.5,5.5-5.5s5.5,2.463,5.5,5.5s-2.463,5.5-5.5,5.5h37.938c-3.037,0-5.5-2.463-5.5-5.5s2.463-5.5,5.5-5.5s5.5,2.463,5.5,5.5
	s-2.463,5.5-5.5,5.5h75.875c-3.037,0-5.5-2.463-5.5-5.5s2.463-5.5,5.5-5.5s5.5,2.463,5.5,5.5s-2.463,5.5-5.5,5.5h37.938
	c-3.037,0-5.5-2.463-5.5-5.5s2.463-5.5,5.5-5.5s5.5,2.463,5.5,5.5s-2.463,5.5-5.5,5.5h37.938c-3.037,0-5.5-2.463-5.5-5.5
	s2.463-5.5,5.5-5.5s5.5,2.463,5.5,5.5s-2.463,5.5-5.5,5.5h37.938c-3.037,0-5.5-2.463-5.5-5.5s2.463-5.5,5.5-5.5s5.5,2.463,5.5,5.5
	s-2.463,5.5-5.5,5.5h37.938c-3.037,0-5.5-2.463-5.5-5.5s2.463-5.5,5.5-5.5s5.5,2.463,5.5,5.5s-2.463,5.5-5.5,5.5h37.938
	c-3.037,0-5.5-2.463-5.5-5.5s2.463-5.5,5.5-5.5s5.5,2.463,5.5,5.5s-2.463,5.5-5.5,5.5h37.938c-3.037,0-5.5-2.463-5.5-5.5
	s2.463-5.5,5.5-5.5s5.5,2.463,5.5,5.5s-2.463,5.5-5.5,5.5H624c-3.037,0-5.5-2.463-5.5-5.5s2.463-5.5,5.5-5.5s5.5,2.463,5.5,5.5
	s-2.463,5.5-5.5,5.5h16V0H623z M629.438,139.5c0,3.037-2.463,5.5-5.5,5.5s-5.5-2.463-5.5-5.5s2.463-5.5,5.5-5.5
	S629.438,136.463,629.438,139.5z M623.938,178.5c-3.037,0-5.5-2.463-5.5-5.5s2.463-5.5,5.5-5.5s5.5,2.463,5.5,5.5
	S626.975,178.5,623.938,178.5z M629.438,206.5c0,3.037-2.463,5.5-5.5,5.5s-5.5-2.463-5.5-5.5s2.463-5.5,5.5-5.5
	S629.438,203.463,629.438,206.5z M623,33.5c3.037,0,5.5,2.463,5.5,5.5s-2.463,5.5-5.5,5.5s-5.5-2.463-5.5-5.5S619.963,33.5,623,33.5
	z M623,67c3.037,0,5.5,2.463,5.5,5.5S626.037,78,623,78s-5.5-2.463-5.5-5.5S619.963,67,623,67z M591.5,139.5
	c0,3.037-2.463,5.5-5.5,5.5s-5.5-2.463-5.5-5.5s2.463-5.5,5.5-5.5S591.5,136.463,591.5,139.5z M586,178.5
	c-3.037,0-5.5-2.463-5.5-5.5s2.463-5.5,5.5-5.5s5.5,2.463,5.5,5.5S589.037,178.5,586,178.5z M591.5,206.5c0,3.037-2.463,5.5-5.5,5.5
	s-5.5-2.463-5.5-5.5s2.463-5.5,5.5-5.5S591.5,203.463,591.5,206.5z M585.062,33.5c3.037,0,5.5,2.463,5.5,5.5s-2.463,5.5-5.5,5.5
	s-5.5-2.463-5.5-5.5S582.025,33.5,585.062,33.5z M585.062,67c3.037,0,5.5,2.463,5.5,5.5s-2.463,5.5-5.5,5.5s-5.5-2.463-5.5-5.5
	S582.025,67,585.062,67z M553.562,139.5c0,3.037-2.463,5.5-5.5,5.5s-5.5-2.463-5.5-5.5s2.463-5.5,5.5-5.5
	S553.562,136.463,553.562,139.5z M548.062,178.5c-3.037,0-5.5-2.463-5.5-5.5s2.463-5.5,5.5-5.5s5.5,2.463,5.5,5.5
	S551.1,178.5,548.062,178.5z M553.562,206.5c0,3.037-2.463,5.5-5.5,5.5s-5.5-2.463-5.5-5.5s2.463-5.5,5.5-5.5
	S553.562,203.463,553.562,206.5z M547.125,33.5c3.037,0,5.5,2.463,5.5,5.5s-2.463,5.5-5.5,5.5s-5.5-2.463-5.5-5.5
	S544.088,33.5,547.125,33.5z M547.125,67c3.037,0,5.5,2.463,5.5,5.5s-2.463,5.5-5.5,5.5s-5.5-2.463-5.5-5.5S544.088,67,547.125,67z
	 M515.625,139.5c0,3.037-2.463,5.5-5.5,5.5s-5.5-2.463-5.5-5.5s2.463-5.5,5.5-5.5S515.625,136.463,515.625,139.5z M510.125,178.5
	c-3.037,0-5.5-2.463-5.5-5.5s2.463-5.5,5.5-5.5s5.5,2.463,5.5,5.5S513.162,178.5,510.125,178.5z M515.625,206.5
	c0,3.037-2.463,5.5-5.5,5.5s-5.5-2.463-5.5-5.5s2.463-5.5,5.5-5.5S515.625,203.463,515.625,206.5z M509.188,33.5
	c3.037,0,5.5,2.463,5.5,5.5s-2.463,5.5-5.5,5.5s-5.5-2.463-5.5-5.5S506.15,33.5,509.188,33.5z M509.188,67
	c3.037,0,5.5,2.463,5.5,5.5s-2.463,5.5-5.5,5.5s-5.5-2.463-5.5-5.5S506.15,67,509.188,67z M477.688,139.5c0,3.037-2.463,5.5-5.5,5.5
	s-5.5-2.463-5.5-5.5s2.463-5.5,5.5-5.5S477.688,136.463,477.688,139.5z M472.188,178.5c-3.037,0-5.5-2.463-5.5-5.5
	s2.463-5.5,5.5-5.5s5.5,2.463,5.5,5.5S475.225,178.5,472.188,178.5z M477.688,206.5c0,3.037-2.463,5.5-5.5,5.5s-5.5-2.463-5.5-5.5
	s2.463-5.5,5.5-5.5S477.688,203.463,477.688,206.5z M471.25,33.5c3.037,0,5.5,2.463,5.5,5.5s-2.463,5.5-5.5,5.5s-5.5-2.463-5.5-5.5
	S468.213,33.5,471.25,33.5z M471.25,67c3.037,0,5.5,2.463,5.5,5.5s-2.463,5.5-5.5,5.5s-5.5-2.463-5.5-5.5S468.213,67,471.25,67z
	 M439.75,139.5c0,3.037-2.463,5.5-5.5,5.5s-5.5-2.463-5.5-5.5s2.463-5.5,5.5-5.5S439.75,136.463,439.75,139.5z M434.25,178.5
	c-3.037,0-5.5-2.463-5.5-5.5s2.463-5.5,5.5-5.5s5.5,2.463,5.5,5.5S437.287,178.5,434.25,178.5z M439.75,206.5
	c0,3.037-2.463,5.5-5.5,5.5s-5.5-2.463-5.5-5.5s2.463-5.5,5.5-5.5S439.75,203.463,439.75,206.5z M433.312,33.5
	c3.037,0,5.5,2.463,5.5,5.5s-2.463,5.5-5.5,5.5s-5.5-2.463-5.5-5.5S430.275,33.5,433.312,33.5z M433.312,67
	c3.037,0,5.5,2.463,5.5,5.5s-2.463,5.5-5.5,5.5s-5.5-2.463-5.5-5.5S430.275,67,433.312,67z M401.812,139.5
	c0,3.037-2.463,5.5-5.5,5.5s-5.5-2.463-5.5-5.5s2.463-5.5,5.5-5.5S401.812,136.463,401.812,139.5z M396.312,178.5
	c-3.037,0-5.5-2.463-5.5-5.5s2.463-5.5,5.5-5.5s5.5,2.463,5.5,5.5S399.35,178.5,396.312,178.5z M401.812,206.5
	c0,3.037-2.463,5.5-5.5,5.5s-5.5-2.463-5.5-5.5s2.463-5.5,5.5-5.5S401.812,203.463,401.812,206.5z M395.375,33.5
	c3.037,0,5.5,2.463,5.5,5.5s-2.463,5.5-5.5,5.5s-5.5-2.463-5.5-5.5S392.338,33.5,395.375,33.5z M395.375,67
	c3.037,0,5.5,2.463,5.5,5.5s-2.463,5.5-5.5,5.5s-5.5-2.463-5.5-5.5S392.338,67,395.375,67z M363.875,139.5
	c0,3.037-2.463,5.5-5.5,5.5s-5.5-2.463-5.5-5.5s2.463-5.5,5.5-5.5S363.875,136.463,363.875,139.5z M358.375,178.5
	c-3.037,0-5.5-2.463-5.5-5.5s2.463-5.5,5.5-5.5s5.5,2.463,5.5,5.5S361.412,178.5,358.375,178.5z M363.875,206.5
	c0,3.037-2.463,5.5-5.5,5.5s-5.5-2.463-5.5-5.5s2.463-5.5,5.5-5.5S363.875,203.463,363.875,206.5z M357.438,33.5
	c3.037,0,5.5,2.463,5.5,5.5s-2.463,5.5-5.5,5.5s-5.5-2.463-5.5-5.5S354.4,33.5,357.438,33.5z M357.438,67c3.037,0,5.5,2.463,5.5,5.5
	s-2.463,5.5-5.5,5.5s-5.5-2.463-5.5-5.5S354.4,67,357.438,67z M325.863,173.898c-0.496,2.996-3.328,5.023-6.324,4.527
	s-5.023-3.328-4.527-6.324s3.328-5.023,6.324-4.527S326.359,170.902,325.863,173.898z M325.863,207.398
	c-0.496,2.996-3.328,5.023-6.324,4.527s-5.023-3.328-4.527-6.324s3.328-5.023,6.324-4.527S326.359,204.402,325.863,207.398z
	 M325.863,140.398c-0.496,2.996-3.328,5.023-6.324,4.527s-5.023-3.328-4.527-6.324s3.328-5.023,6.324-4.527
	S326.359,137.402,325.863,140.398z M314.074,4.602c0.496-2.996,3.328-5.023,6.324-4.527s5.023,3.328,4.527,6.324
	s-3.328,5.023-6.324,4.527S313.578,7.598,314.074,4.602z M314.074,38.102c0.496-2.996,3.328-5.023,6.324-4.527
	s5.023,3.328,4.527,6.324s-3.328,5.023-6.324,4.527S313.578,41.098,314.074,38.102z M314.074,71.602
	c0.496-2.996,3.328-5.023,6.324-4.527s5.023,3.328,4.527,6.324s-3.328,5.023-6.324,4.527S313.578,74.598,314.074,71.602z M288,139.5
	c0,3.037-2.463,5.5-5.5,5.5s-5.5-2.463-5.5-5.5s2.463-5.5,5.5-5.5S288,136.463,288,139.5z M282.5,178.5c-3.037,0-5.5-2.463-5.5-5.5
	s2.463-5.5,5.5-5.5s5.5,2.463,5.5,5.5S285.537,178.5,282.5,178.5z M288,206.5c0,3.037-2.463,5.5-5.5,5.5s-5.5-2.463-5.5-5.5
	s2.463-5.5,5.5-5.5S288,203.463,288,206.5z M281.562,33.5c3.037,0,5.5,2.463,5.5,5.5s-2.463,5.5-5.5,5.5s-5.5-2.463-5.5-5.5
	S278.525,33.5,281.562,33.5z M281.562,67c3.037,0,5.5,2.463,5.5,5.5s-2.463,5.5-5.5,5.5s-5.5-2.463-5.5-5.5S278.525,67,281.562,67z
	 M250.062,139.5c0,3.037-2.463,5.5-5.5,5.5s-5.5-2.463-5.5-5.5s2.463-5.5,5.5-5.5S250.062,136.463,250.062,139.5z M244.562,178.5
	c-3.037,0-5.5-2.463-5.5-5.5s2.463-5.5,5.5-5.5s5.5,2.463,5.5,5.5S247.6,178.5,244.562,178.5z M250.062,206.5
	c0,3.037-2.463,5.5-5.5,5.5s-5.5-2.463-5.5-5.5s2.463-5.5,5.5-5.5S250.062,203.463,250.062,206.5z M243.625,33.5
	c3.037,0,5.5,2.463,5.5,5.5s-2.463,5.5-5.5,5.5s-5.5-2.463-5.5-5.5S240.588,33.5,243.625,33.5z M243.625,67
	c3.037,0,5.5,2.463,5.5,5.5s-2.463,5.5-5.5,5.5s-5.5-2.463-5.5-5.5S240.588,67,243.625,67z M212.125,139.5
	c0,3.037-2.463,5.5-5.5,5.5s-5.5-2.463-5.5-5.5s2.463-5.5,5.5-5.5S212.125,136.463,212.125,139.5z M206.625,178.5
	c-3.037,0-5.5-2.463-5.5-5.5s2.463-5.5,5.5-5.5s5.5,2.463,5.5,5.5S209.662,178.5,206.625,178.5z M212.125,206.5
	c0,3.037-2.463,5.5-5.5,5.5s-5.5-2.463-5.5-5.5s2.463-5.5,5.5-5.5S212.125,203.463,212.125,206.5z M205.688,33.5
	c3.037,0,5.5,2.463,5.5,5.5s-2.463,5.5-5.5,5.5s-5.5-2.463-5.5-5.5S202.65,33.5,205.688,33.5z M205.688,67
	c3.037,0,5.5,2.463,5.5,5.5s-2.463,5.5-5.5,5.5s-5.5-2.463-5.5-5.5S202.65,67,205.688,67z M174.188,139.5c0,3.037-2.463,5.5-5.5,5.5
	s-5.5-2.463-5.5-5.5s2.463-5.5,5.5-5.5S174.188,136.463,174.188,139.5z M168.688,178.5c-3.037,0-5.5-2.463-5.5-5.5
	s2.463-5.5,5.5-5.5s5.5,2.463,5.5,5.5S171.725,178.5,168.688,178.5z M174.188,206.5c0,3.037-2.463,5.5-5.5,5.5s-5.5-2.463-5.5-5.5
	s2.463-5.5,5.5-5.5S174.188,203.463,174.188,206.5z M167.75,33.5c3.037,0,5.5,2.463,5.5,5.5s-2.463,5.5-5.5,5.5s-5.5-2.463-5.5-5.5
	S164.713,33.5,167.75,33.5z M167.75,67c3.037,0,5.5,2.463,5.5,5.5s-2.463,5.5-5.5,5.5s-5.5-2.463-5.5-5.5S164.713,67,167.75,67z
	 M136.25,139.5c0,3.037-2.463,5.5-5.5,5.5s-5.5-2.463-5.5-5.5s2.463-5.5,5.5-5.5S136.25,136.463,136.25,139.5z M130.75,178.5
	c-3.037,0-5.5-2.463-5.5-5.5s2.463-5.5,5.5-5.5s5.5,2.463,5.5,5.5S133.787,178.5,130.75,178.5z M136.25,206.5
	c0,3.037-2.463,5.5-5.5,5.5s-5.5-2.463-5.5-5.5s2.463-5.5,5.5-5.5S136.25,203.463,136.25,206.5z M129.812,33.5
	c3.037,0,5.5,2.463,5.5,5.5s-2.463,5.5-5.5,5.5s-5.5-2.463-5.5-5.5S126.775,33.5,129.812,33.5z M129.812,67
	c3.037,0,5.5,2.463,5.5,5.5s-2.463,5.5-5.5,5.5s-5.5-2.463-5.5-5.5S126.775,67,129.812,67z M98.312,139.5c0,3.037-2.463,5.5-5.5,5.5
	s-5.5-2.463-5.5-5.5s2.463-5.5,5.5-5.5S98.312,136.463,98.312,139.5z M92.812,178.5c-3.037,0-5.5-2.463-5.5-5.5s2.463-5.5,5.5-5.5
	s5.5,2.463,5.5,5.5S95.85,178.5,92.812,178.5z M98.312,206.5c0,3.037-2.463,5.5-5.5,5.5s-5.5-2.463-5.5-5.5s2.463-5.5,5.5-5.5
	S98.312,203.463,98.312,206.5z M91.875,33.5c3.037,0,5.5,2.463,5.5,5.5s-2.463,5.5-5.5,5.5s-5.5-2.463-5.5-5.5
	S88.838,33.5,91.875,33.5z M91.875,67c3.037,0,5.5,2.463,5.5,5.5s-2.463,5.5-5.5,5.5s-5.5-2.463-5.5-5.5S88.838,67,91.875,67z
	 M60.375,139.5c0,3.037-2.463,5.5-5.5,5.5s-5.5-2.463-5.5-5.5s2.463-5.5,5.5-5.5S60.375,136.463,60.375,139.5z M54.875,178.5
	c-3.037,0-5.5-2.463-5.5-5.5s2.463-5.5,5.5-5.5s5.5,2.463,5.5,5.5S57.912,178.5,54.875,178.5z M60.375,206.5
	c0,3.037-2.463,5.5-5.5,5.5s-5.5-2.463-5.5-5.5s2.463-5.5,5.5-5.5S60.375,203.463,60.375,206.5z M53.938,33.5
	c3.037,0,5.5,2.463,5.5,5.5s-2.463,5.5-5.5,5.5s-5.5-2.463-5.5-5.5S50.9,33.5,53.938,33.5z M53.938,67c3.037,0,5.5,2.463,5.5,5.5
	s-2.463,5.5-5.5,5.5s-5.5-2.463-5.5-5.5S50.9,67,53.938,67z M22.438,139.5c0,3.037-2.463,5.5-5.5,5.5s-5.5-2.463-5.5-5.5
	s2.463-5.5,5.5-5.5S22.438,136.463,22.438,139.5z M16.938,178.5c-3.037,0-5.5-2.463-5.5-5.5s2.463-5.5,5.5-5.5s5.5,2.463,5.5,5.5
	S19.975,178.5,16.938,178.5z M22.438,206.5c0,3.037-2.463,5.5-5.5,5.5s-5.5-2.463-5.5-5.5s2.463-5.5,5.5-5.5
	S22.438,203.463,22.438,206.5z M16,33.5c3.037,0,5.5,2.463,5.5,5.5s-2.463,5.5-5.5,5.5s-5.5-2.463-5.5-5.5S12.963,33.5,16,33.5z
	 M16,67c3.037,0,5.5,2.463,5.5,5.5S19.037,78,16,78s-5.5-2.463-5.5-5.5S12.963,67,16,67z M16,100.5c3.037,0,5.5,2.463,5.5,5.5
	s-2.463,5.5-5.5,5.5s-5.5-2.463-5.5-5.5S12.963,100.5,16,100.5z M11.438,240c0-3.037,2.463-5.5,5.5-5.5s5.5,2.463,5.5,5.5
	s-2.463,5.5-5.5,5.5S11.438,243.037,11.438,240z M17,446.5c-3.037,0-5.5-2.463-5.5-5.5s2.463-5.5,5.5-5.5s5.5,2.463,5.5,5.5
	S20.037,446.5,17,446.5z M17,413c-3.037,0-5.5-2.463-5.5-5.5s2.463-5.5,5.5-5.5s5.5,2.463,5.5,5.5S20.037,413,17,413z M17,379.5
	c-3.037,0-5.5-2.463-5.5-5.5s2.463-5.5,5.5-5.5s5.5,2.463,5.5,5.5S20.037,379.5,17,379.5z M17,346c-3.037,0-5.5-2.463-5.5-5.5
	s2.463-5.5,5.5-5.5s5.5,2.463,5.5,5.5S20.037,346,17,346z M17,312.5c-3.037,0-5.5-2.463-5.5-5.5s2.463-5.5,5.5-5.5
	s5.5,2.463,5.5,5.5S20.037,312.5,17,312.5z M17,279c-3.037,0-5.5-2.463-5.5-5.5s2.463-5.5,5.5-5.5s5.5,2.463,5.5,5.5
	S20.037,279,17,279z M53.938,100.5c3.037,0,5.5,2.463,5.5,5.5s-2.463,5.5-5.5,5.5s-5.5-2.463-5.5-5.5S50.9,100.5,53.938,100.5z
	 M49.375,240c0-3.037,2.463-5.5,5.5-5.5s5.5,2.463,5.5,5.5s-2.463,5.5-5.5,5.5S49.375,243.037,49.375,240z M54.938,446.5
	c-3.037,0-5.5-2.463-5.5-5.5s2.463-5.5,5.5-5.5s5.5,2.463,5.5,5.5S57.975,446.5,54.938,446.5z M54.938,413
	c-3.037,0-5.5-2.463-5.5-5.5s2.463-5.5,5.5-5.5s5.5,2.463,5.5,5.5S57.975,413,54.938,413z M54.938,379.5c-3.037,0-5.5-2.463-5.5-5.5
	s2.463-5.5,5.5-5.5s5.5,2.463,5.5,5.5S57.975,379.5,54.938,379.5z M54.938,346c-3.037,0-5.5-2.463-5.5-5.5s2.463-5.5,5.5-5.5
	s5.5,2.463,5.5,5.5S57.975,346,54.938,346z M54.938,312.5c-3.037,0-5.5-2.463-5.5-5.5s2.463-5.5,5.5-5.5s5.5,2.463,5.5,5.5
	S57.975,312.5,54.938,312.5z M54.938,279c-3.037,0-5.5-2.463-5.5-5.5s2.463-5.5,5.5-5.5s5.5,2.463,5.5,5.5S57.975,279,54.938,279z
	 M91.875,100.5c3.037,0,5.5,2.463,5.5,5.5s-2.463,5.5-5.5,5.5s-5.5-2.463-5.5-5.5S88.838,100.5,91.875,100.5z M87.312,240
	c0-3.037,2.463-5.5,5.5-5.5s5.5,2.463,5.5,5.5s-2.463,5.5-5.5,5.5S87.312,243.037,87.312,240z M92.875,446.5
	c-3.037,0-5.5-2.463-5.5-5.5s2.463-5.5,5.5-5.5s5.5,2.463,5.5,5.5S95.912,446.5,92.875,446.5z M92.875,413
	c-3.037,0-5.5-2.463-5.5-5.5s2.463-5.5,5.5-5.5s5.5,2.463,5.5,5.5S95.912,413,92.875,413z M92.875,379.5c-3.037,0-5.5-2.463-5.5-5.5
	s2.463-5.5,5.5-5.5s5.5,2.463,5.5,5.5S95.912,379.5,92.875,379.5z M92.875,346c-3.037,0-5.5-2.463-5.5-5.5s2.463-5.5,5.5-5.5
	s5.5,2.463,5.5,5.5S95.912,346,92.875,346z M92.875,312.5c-3.037,0-5.5-2.463-5.5-5.5s2.463-5.5,5.5-5.5s5.5,2.463,5.5,5.5
	S95.912,312.5,92.875,312.5z M92.875,279c-3.037,0-5.5-2.463-5.5-5.5s2.463-5.5,5.5-5.5s5.5,2.463,5.5,5.5S95.912,279,92.875,279z
	 M129.812,100.5c3.037,0,5.5,2.463,5.5,5.5s-2.463,5.5-5.5,5.5s-5.5-2.463-5.5-5.5S126.775,100.5,129.812,100.5z M125.25,240
	c0-3.037,2.463-5.5,5.5-5.5s5.5,2.463,5.5,5.5s-2.463,5.5-5.5,5.5S125.25,243.037,125.25,240z M130.812,446.5
	c-3.037,0-5.5-2.463-5.5-5.5s2.463-5.5,5.5-5.5s5.5,2.463,5.5,5.5S133.85,446.5,130.812,446.5z M130.812,413
	c-3.037,0-5.5-2.463-5.5-5.5s2.463-5.5,5.5-5.5s5.5,2.463,5.5,5.5S133.85,413,130.812,413z M130.812,379.5
	c-3.037,0-5.5-2.463-5.5-5.5s2.463-5.5,5.5-5.5s5.5,2.463,5.5,5.5S133.85,379.5,130.812,379.5z M130.812,346
	c-3.037,0-5.5-2.463-5.5-5.5s2.463-5.5,5.5-5.5s5.5,2.463,5.5,5.5S133.85,346,130.812,346z M130.812,312.5
	c-3.037,0-5.5-2.463-5.5-5.5s2.463-5.5,5.5-5.5s5.5,2.463,5.5,5.5S133.85,312.5,130.812,312.5z M130.812,279
	c-3.037,0-5.5-2.463-5.5-5.5s2.463-5.5,5.5-5.5s5.5,2.463,5.5,5.5S133.85,279,130.812,279z M167.75,100.5c3.037,0,5.5,2.463,5.5,5.5
	s-2.463,5.5-5.5,5.5s-5.5-2.463-5.5-5.5S164.713,100.5,167.75,100.5z M163.188,240c0-3.037,2.463-5.5,5.5-5.5s5.5,2.463,5.5,5.5
	s-2.463,5.5-5.5,5.5S163.188,243.037,163.188,240z M168.75,446.5c-3.037,0-5.5-2.463-5.5-5.5s2.463-5.5,5.5-5.5s5.5,2.463,5.5,5.5
	S171.787,446.5,168.75,446.5z M168.75,413c-3.037,0-5.5-2.463-5.5-5.5s2.463-5.5,5.5-5.5s5.5,2.463,5.5,5.5S171.787,413,168.75,413z
	 M168.75,379.5c-3.037,0-5.5-2.463-5.5-5.5s2.463-5.5,5.5-5.5s5.5,2.463,5.5,5.5S171.787,379.5,168.75,379.5z M168.75,346
	c-3.037,0-5.5-2.463-5.5-5.5s2.463-5.5,5.5-5.5s5.5,2.463,5.5,5.5S171.787,346,168.75,346z M168.75,312.5
	c-3.037,0-5.5-2.463-5.5-5.5s2.463-5.5,5.5-5.5s5.5,2.463,5.5,5.5S171.787,312.5,168.75,312.5z M168.75,279
	c-3.037,0-5.5-2.463-5.5-5.5s2.463-5.5,5.5-5.5s5.5,2.463,5.5,5.5S171.787,279,168.75,279z M205.688,100.5
	c3.037,0,5.5,2.463,5.5,5.5s-2.463,5.5-5.5,5.5s-5.5-2.463-5.5-5.5S202.65,100.5,205.688,100.5z M201.125,240
	c0-3.037,2.463-5.5,5.5-5.5s5.5,2.463,5.5,5.5s-2.463,5.5-5.5,5.5S201.125,243.037,201.125,240z M206.688,446.5
	c-3.037,0-5.5-2.463-5.5-5.5s2.463-5.5,5.5-5.5s5.5,2.463,5.5,5.5S209.725,446.5,206.688,446.5z M206.688,413
	c-3.037,0-5.5-2.463-5.5-5.5s2.463-5.5,5.5-5.5s5.5,2.463,5.5,5.5S209.725,413,206.688,413z M206.688,379.5
	c-3.037,0-5.5-2.463-5.5-5.5s2.463-5.5,5.5-5.5s5.5,2.463,5.5,5.5S209.725,379.5,206.688,379.5z M206.688,346
	c-3.037,0-5.5-2.463-5.5-5.5s2.463-5.5,5.5-5.5s5.5,2.463,5.5,5.5S209.725,346,206.688,346z M206.688,312.5
	c-3.037,0-5.5-2.463-5.5-5.5s2.463-5.5,5.5-5.5s5.5,2.463,5.5,5.5S209.725,312.5,206.688,312.5z M206.688,279
	c-3.037,0-5.5-2.463-5.5-5.5s2.463-5.5,5.5-5.5s5.5,2.463,5.5,5.5S209.725,279,206.688,279z M243.625,100.5
	c3.037,0,5.5,2.463,5.5,5.5s-2.463,5.5-5.5,5.5s-5.5-2.463-5.5-5.5S240.588,100.5,243.625,100.5z M239.062,240
	c0-3.037,2.463-5.5,5.5-5.5s5.5,2.463,5.5,5.5s-2.463,5.5-5.5,5.5S239.062,243.037,239.062,240z M244.625,446.5
	c-3.037,0-5.5-2.463-5.5-5.5s2.463-5.5,5.5-5.5s5.5,2.463,5.5,5.5S247.662,446.5,244.625,446.5z M244.625,413
	c-3.037,0-5.5-2.463-5.5-5.5s2.463-5.5,5.5-5.5s5.5,2.463,5.5,5.5S247.662,413,244.625,413z M244.625,379.5
	c-3.037,0-5.5-2.463-5.5-5.5s2.463-5.5,5.5-5.5s5.5,2.463,5.5,5.5S247.662,379.5,244.625,379.5z M244.625,346
	c-3.037,0-5.5-2.463-5.5-5.5s2.463-5.5,5.5-5.5s5.5,2.463,5.5,5.5S247.662,346,244.625,346z M244.625,312.5
	c-3.037,0-5.5-2.463-5.5-5.5s2.463-5.5,5.5-5.5s5.5,2.463,5.5,5.5S247.662,312.5,244.625,312.5z M244.625,279
	c-3.037,0-5.5-2.463-5.5-5.5s2.463-5.5,5.5-5.5s5.5,2.463,5.5,5.5S247.662,279,244.625,279z M281.562,100.5
	c3.037,0,5.5,2.463,5.5,5.5s-2.463,5.5-5.5,5.5s-5.5-2.463-5.5-5.5S278.525,100.5,281.562,100.5z M277,240
	c0-3.037,2.463-5.5,5.5-5.5s5.5,2.463,5.5,5.5s-2.463,5.5-5.5,5.5S277,243.037,277,240z M282.562,446.5c-3.037,0-5.5-2.463-5.5-5.5
	s2.463-5.5,5.5-5.5s5.5,2.463,5.5,5.5S285.6,446.5,282.562,446.5z M282.562,413c-3.037,0-5.5-2.463-5.5-5.5s2.463-5.5,5.5-5.5
	s5.5,2.463,5.5,5.5S285.6,413,282.562,413z M282.562,379.5c-3.037,0-5.5-2.463-5.5-5.5s2.463-5.5,5.5-5.5s5.5,2.463,5.5,5.5
	S285.6,379.5,282.562,379.5z M282.562,346c-3.037,0-5.5-2.463-5.5-5.5s2.463-5.5,5.5-5.5s5.5,2.463,5.5,5.5S285.6,346,282.562,346z
	 M282.562,312.5c-3.037,0-5.5-2.463-5.5-5.5s2.463-5.5,5.5-5.5s5.5,2.463,5.5,5.5S285.6,312.5,282.562,312.5z M282.562,279
	c-3.037,0-5.5-2.463-5.5-5.5s2.463-5.5,5.5-5.5s5.5,2.463,5.5,5.5S285.6,279,282.562,279z M314.074,105.102
	c0.496-2.996,3.328-5.023,6.324-4.527s5.023,3.328,4.527,6.324s-3.328,5.023-6.324,4.527S313.578,108.098,314.074,105.102z
	 M315.012,239.102c0.496-2.996,3.328-5.023,6.324-4.527s5.023,3.328,4.527,6.324s-3.328,5.023-6.324,4.527
	S314.516,242.098,315.012,239.102z M325.926,475.398c-0.496,2.996-3.328,5.023-6.324,4.527s-5.023-3.328-4.527-6.324
	s3.328-5.023,6.324-4.527S326.422,472.402,325.926,475.398z M325.926,441.898c-0.496,2.996-3.328,5.023-6.324,4.527
	s-5.023-3.328-4.527-6.324s3.328-5.023,6.324-4.527S326.422,438.902,325.926,441.898z M325.926,408.398
	c-0.496,2.996-3.328,5.023-6.324,4.527s-5.023-3.328-4.527-6.324s3.328-5.023,6.324-4.527S326.422,405.402,325.926,408.398z
	 M325.926,374.898c-0.496,2.996-3.328,5.023-6.324,4.527s-5.023-3.328-4.527-6.324s3.328-5.023,6.324-4.527
	S326.422,371.902,325.926,374.898z M325.926,341.398c-0.496,2.996-3.328,5.023-6.324,4.527s-5.023-3.328-4.527-6.324
	s3.328-5.023,6.324-4.527S326.422,338.402,325.926,341.398z M325.926,307.898c-0.496,2.996-3.328,5.023-6.324,4.527
	s-5.023-3.328-4.527-6.324s3.328-5.023,6.324-4.527S326.422,304.902,325.926,307.898z M325.926,274.398
	c-0.496,2.996-3.328,5.023-6.324,4.527s-5.023-3.328-4.527-6.324s3.328-5.023,6.324-4.527S326.422,271.402,325.926,274.398z
	 M357.438,100.5c3.037,0,5.5,2.463,5.5,5.5s-2.463,5.5-5.5,5.5s-5.5-2.463-5.5-5.5S354.4,100.5,357.438,100.5z M352.875,240
	c0-3.037,2.463-5.5,5.5-5.5s5.5,2.463,5.5,5.5s-2.463,5.5-5.5,5.5S352.875,243.037,352.875,240z M358.438,446.5
	c-3.037,0-5.5-2.463-5.5-5.5s2.463-5.5,5.5-5.5s5.5,2.463,5.5,5.5S361.475,446.5,358.438,446.5z M358.438,413
	c-3.037,0-5.5-2.463-5.5-5.5s2.463-5.5,5.5-5.5s5.5,2.463,5.5,5.5S361.475,413,358.438,413z M358.438,379.5
	c-3.037,0-5.5-2.463-5.5-5.5s2.463-5.5,5.5-5.5s5.5,2.463,5.5,5.5S361.475,379.5,358.438,379.5z M358.438,346
	c-3.037,0-5.5-2.463-5.5-5.5s2.463-5.5,5.5-5.5s5.5,2.463,5.5,5.5S361.475,346,358.438,346z M358.438,312.5
	c-3.037,0-5.5-2.463-5.5-5.5s2.463-5.5,5.5-5.5s5.5,2.463,5.5,5.5S361.475,312.5,358.438,312.5z M358.438,279
	c-3.037,0-5.5-2.463-5.5-5.5s2.463-5.5,5.5-5.5s5.5,2.463,5.5,5.5S361.475,279,358.438,279z M395.375,100.5
	c3.037,0,5.5,2.463,5.5,5.5s-2.463,5.5-5.5,5.5s-5.5-2.463-5.5-5.5S392.338,100.5,395.375,100.5z M390.812,240
	c0-3.037,2.463-5.5,5.5-5.5s5.5,2.463,5.5,5.5s-2.463,5.5-5.5,5.5S390.812,243.037,390.812,240z M396.375,446.5
	c-3.037,0-5.5-2.463-5.5-5.5s2.463-5.5,5.5-5.5s5.5,2.463,5.5,5.5S399.412,446.5,396.375,446.5z M396.375,413
	c-3.037,0-5.5-2.463-5.5-5.5s2.463-5.5,5.5-5.5s5.5,2.463,5.5,5.5S399.412,413,396.375,413z M396.375,379.5
	c-3.037,0-5.5-2.463-5.5-5.5s2.463-5.5,5.5-5.5s5.5,2.463,5.5,5.5S399.412,379.5,396.375,379.5z M396.375,346
	c-3.037,0-5.5-2.463-5.5-5.5s2.463-5.5,5.5-5.5s5.5,2.463,5.5,5.5S399.412,346,396.375,346z M396.375,312.5
	c-3.037,0-5.5-2.463-5.5-5.5s2.463-5.5,5.5-5.5s5.5,2.463,5.5,5.5S399.412,312.5,396.375,312.5z M396.375,279
	c-3.037,0-5.5-2.463-5.5-5.5s2.463-5.5,5.5-5.5s5.5,2.463,5.5,5.5S399.412,279,396.375,279z M433.312,100.5
	c3.037,0,5.5,2.463,5.5,5.5s-2.463,5.5-5.5,5.5s-5.5-2.463-5.5-5.5S430.275,100.5,433.312,100.5z M428.75,240
	c0-3.037,2.463-5.5,5.5-5.5s5.5,2.463,5.5,5.5s-2.463,5.5-5.5,5.5S428.75,243.037,428.75,240z M434.312,446.5
	c-3.037,0-5.5-2.463-5.5-5.5s2.463-5.5,5.5-5.5s5.5,2.463,5.5,5.5S437.35,446.5,434.312,446.5z M434.312,413
	c-3.037,0-5.5-2.463-5.5-5.5s2.463-5.5,5.5-5.5s5.5,2.463,5.5,5.5S437.35,413,434.312,413z M434.312,379.5
	c-3.037,0-5.5-2.463-5.5-5.5s2.463-5.5,5.5-5.5s5.5,2.463,5.5,5.5S437.35,379.5,434.312,379.5z M434.312,346
	c-3.037,0-5.5-2.463-5.5-5.5s2.463-5.5,5.5-5.5s5.5,2.463,5.5,5.5S437.35,346,434.312,346z M434.312,312.5
	c-3.037,0-5.5-2.463-5.5-5.5s2.463-5.5,5.5-5.5s5.5,2.463,5.5,5.5S437.35,312.5,434.312,312.5z M434.312,279
	c-3.037,0-5.5-2.463-5.5-5.5s2.463-5.5,5.5-5.5s5.5,2.463,5.5,5.5S437.35,279,434.312,279z M471.25,100.5c3.037,0,5.5,2.463,5.5,5.5
	s-2.463,5.5-5.5,5.5s-5.5-2.463-5.5-5.5S468.213,100.5,471.25,100.5z M466.688,240c0-3.037,2.463-5.5,5.5-5.5s5.5,2.463,5.5,5.5
	s-2.463,5.5-5.5,5.5S466.688,243.037,466.688,240z M472.25,446.5c-3.037,0-5.5-2.463-5.5-5.5s2.463-5.5,5.5-5.5s5.5,2.463,5.5,5.5
	S475.287,446.5,472.25,446.5z M472.25,413c-3.037,0-5.5-2.463-5.5-5.5s2.463-5.5,5.5-5.5s5.5,2.463,5.5,5.5S475.287,413,472.25,413z
	 M472.25,379.5c-3.037,0-5.5-2.463-5.5-5.5s2.463-5.5,5.5-5.5s5.5,2.463,5.5,5.5S475.287,379.5,472.25,379.5z M472.25,346
	c-3.037,0-5.5-2.463-5.5-5.5s2.463-5.5,5.5-5.5s5.5,2.463,5.5,5.5S475.287,346,472.25,346z M472.25,312.5
	c-3.037,0-5.5-2.463-5.5-5.5s2.463-5.5,5.5-5.5s5.5,2.463,5.5,5.5S475.287,312.5,472.25,312.5z M472.25,279
	c-3.037,0-5.5-2.463-5.5-5.5s2.463-5.5,5.5-5.5s5.5,2.463,5.5,5.5S475.287,279,472.25,279z M509.188,100.5
	c3.037,0,5.5,2.463,5.5,5.5s-2.463,5.5-5.5,5.5s-5.5-2.463-5.5-5.5S506.15,100.5,509.188,100.5z M504.625,240
	c0-3.037,2.463-5.5,5.5-5.5s5.5,2.463,5.5,5.5s-2.463,5.5-5.5,5.5S504.625,243.037,504.625,240z M510.188,446.5
	c-3.037,0-5.5-2.463-5.5-5.5s2.463-5.5,5.5-5.5s5.5,2.463,5.5,5.5S513.225,446.5,510.188,446.5z M510.188,413
	c-3.037,0-5.5-2.463-5.5-5.5s2.463-5.5,5.5-5.5s5.5,2.463,5.5,5.5S513.225,413,510.188,413z M510.188,379.5
	c-3.037,0-5.5-2.463-5.5-5.5s2.463-5.5,5.5-5.5s5.5,2.463,5.5,5.5S513.225,379.5,510.188,379.5z M510.188,346
	c-3.037,0-5.5-2.463-5.5-5.5s2.463-5.5,5.5-5.5s5.5,2.463,5.5,5.5S513.225,346,510.188,346z M510.188,312.5
	c-3.037,0-5.5-2.463-5.5-5.5s2.463-5.5,5.5-5.5s5.5,2.463,5.5,5.5S513.225,312.5,510.188,312.5z M510.188,279
	c-3.037,0-5.5-2.463-5.5-5.5s2.463-5.5,5.5-5.5s5.5,2.463,5.5,5.5S513.225,279,510.188,279z M547.125,100.5
	c3.037,0,5.5,2.463,5.5,5.5s-2.463,5.5-5.5,5.5s-5.5-2.463-5.5-5.5S544.088,100.5,547.125,100.5z M542.562,240
	c0-3.037,2.463-5.5,5.5-5.5s5.5,2.463,5.5,5.5s-2.463,5.5-5.5,5.5S542.562,243.037,542.562,240z M548.125,446.5
	c-3.037,0-5.5-2.463-5.5-5.5s2.463-5.5,5.5-5.5s5.5,2.463,5.5,5.5S551.162,446.5,548.125,446.5z M548.125,413
	c-3.037,0-5.5-2.463-5.5-5.5s2.463-5.5,5.5-5.5s5.5,2.463,5.5,5.5S551.162,413,548.125,413z M548.125,379.5
	c-3.037,0-5.5-2.463-5.5-5.5s2.463-5.5,5.5-5.5s5.5,2.463,5.5,5.5S551.162,379.5,548.125,379.5z M548.125,346
	c-3.037,0-5.5-2.463-5.5-5.5s2.463-5.5,5.5-5.5s5.5,2.463,5.5,5.5S551.162,346,548.125,346z M548.125,312.5
	c-3.037,0-5.5-2.463-5.5-5.5s2.463-5.5,5.5-5.5s5.5,2.463,5.5,5.5S551.162,312.5,548.125,312.5z M548.125,279
	c-3.037,0-5.5-2.463-5.5-5.5s2.463-5.5,5.5-5.5s5.5,2.463,5.5,5.5S551.162,279,548.125,279z M585.062,100.5
	c3.037,0,5.5,2.463,5.5,5.5s-2.463,5.5-5.5,5.5s-5.5-2.463-5.5-5.5S582.025,100.5,585.062,100.5z M580.5,240
	c0-3.037,2.463-5.5,5.5-5.5s5.5,2.463,5.5,5.5s-2.463,5.5-5.5,5.5S580.5,243.037,580.5,240z M586.062,446.5
	c-3.037,0-5.5-2.463-5.5-5.5s2.463-5.5,5.5-5.5s5.5,2.463,5.5,5.5S589.1,446.5,586.062,446.5z M586.062,413
	c-3.037,0-5.5-2.463-5.5-5.5s2.463-5.5,5.5-5.5s5.5,2.463,5.5,5.5S589.1,413,586.062,413z M586.062,379.5
	c-3.037,0-5.5-2.463-5.5-5.5s2.463-5.5,5.5-5.5s5.5,2.463,5.5,5.5S589.1,379.5,586.062,379.5z M586.062,346
	c-3.037,0-5.5-2.463-5.5-5.5s2.463-5.5,5.5-5.5s5.5,2.463,5.5,5.5S589.1,346,586.062,346z M586.062,312.5
	c-3.037,0-5.5-2.463-5.5-5.5s2.463-5.5,5.5-5.5s5.5,2.463,5.5,5.5S589.1,312.5,586.062,312.5z M586.062,279
	c-3.037,0-5.5-2.463-5.5-5.5s2.463-5.5,5.5-5.5s5.5,2.463,5.5,5.5S589.1,279,586.062,279z M623,100.5c3.037,0,5.5,2.463,5.5,5.5
	s-2.463,5.5-5.5,5.5s-5.5-2.463-5.5-5.5S619.963,100.5,623,100.5z M618.438,240c0-3.037,2.463-5.5,5.5-5.5s5.5,2.463,5.5,5.5
	s-2.463,5.5-5.5,5.5S618.438,243.037,618.438,240z M624,446.5c-3.037,0-5.5-2.463-5.5-5.5s2.463-5.5,5.5-5.5s5.5,2.463,5.5,5.5
	S627.037,446.5,624,446.5z M624,413c-3.037,0-5.5-2.463-5.5-5.5s2.463-5.5,5.5-5.5s5.5,2.463,5.5,5.5S627.037,413,624,413z
	 M624,379.5c-3.037,0-5.5-2.463-5.5-5.5s2.463-5.5,5.5-5.5s5.5,2.463,5.5,5.5S627.037,379.5,624,379.5z M624,346
	c-3.037,0-5.5-2.463-5.5-5.5s2.463-5.5,5.5-5.5s5.5,2.463,5.5,5.5S627.037,346,624,346z M624,312.5c-3.037,0-5.5-2.463-5.5-5.5
	s2.463-5.5,5.5-5.5s5.5,2.463,5.5,5.5S627.037,312.5,624,312.5z M624,279c-3.037,0-5.5-2.463-5.5-5.5s2.463-5.5,5.5-5.5
	s5.5,2.463,5.5,5.5S627.037,279,624,279z"/>
</svg>
