<?xml version="1.0" encoding="utf-8"?>
<!-- Generator: Adobe Illustrator 14.0.0, SVG Export Plug-In . SVG Version: 6.00 Build 43363)  -->
<!DOCTYPE svg PUBLIC "-//W3C//DTD SVG 1.1//EN" "http://www.w3.org/Graphics/SVG/1.1/DTD/svg11.dtd">
<svg version="1.1" id="Layer_1" xmlns="http://www.w3.org/2000/svg" xmlns:xlink="http://www.w3.org/1999/xlink" x="0px" y="0px"
	 width="640px" height="480px" viewBox="0 0 640 480" style="enable-background:new 0 0 640 480;" xml:space="preserve">
<style type="text/css">
<![CDATA[
	.st0{fill:#FFFFFF;}
]]>
</style>
<path class="st0" d="M0,0v480h640V0H0z M14,363.5c3.038,0,5.5,2.463,5.5,5.5s-2.462,5.5-5.5,5.5s-5.5-2.463-5.5-5.5
	S10.962,363.5,14,363.5z M14,443c-3.038,0-5.5-2.463-5.5-5.5s2.462-5.5,5.5-5.5s5.5,2.463,5.5,5.5S17.038,443,14,443z M24,468
	c-3.038,0-5.5-2.463-5.5-5.5s2.462-5.5,5.5-5.5s5.5,2.463,5.5,5.5S27.038,468,24,468z M31.5,417.5c-3.038,0-5.5-2.463-5.5-5.5
	s2.462-5.5,5.5-5.5s5.5,2.463,5.5,5.5S34.538,417.5,31.5,417.5z M44,449.5c-3.038,0-5.5-2.463-5.5-5.5s2.462-5.5,5.5-5.5
	s5.5,2.463,5.5,5.5S47.038,449.5,44,449.5z M77,467.5c-3.038,0-5.5-2.463-5.5-5.5s2.462-5.5,5.5-5.5s5.5,2.463,5.5,5.5
	S80.038,467.5,77,467.5z M83.5,423c-3.038,0-5.5-2.463-5.5-5.5s2.462-5.5,5.5-5.5s5.5,2.463,5.5,5.5S86.538,423,83.5,423z
	 M109.5,397c0-3.037,2.462-5.5,5.5-5.5s5.5,2.463,5.5,5.5s-2.462,5.5-5.5,5.5S109.5,400.037,109.5,397z M111.5,433
	c0-3.037,2.462-5.5,5.5-5.5s5.5,2.463,5.5,5.5s-2.462,5.5-5.5,5.5S111.5,436.037,111.5,433z M123,469.5c-3.038,0-5.5-2.463-5.5-5.5
	s2.462-5.5,5.5-5.5s5.5,2.463,5.5,5.5S126.038,469.5,123,469.5z M147.5,407c0-3.037,2.462-5.5,5.5-5.5s5.5,2.463,5.5,5.5
	s-2.462,5.5-5.5,5.5S147.5,410.037,147.5,407z M161,455.5c-3.038,0-5.5-2.463-5.5-5.5s2.462-5.5,5.5-5.5s5.5,2.463,5.5,5.5
	S164.038,455.5,161,455.5z M185,435c-3.038,0-5.5-2.463-5.5-5.5s2.462-5.5,5.5-5.5s5.5,2.463,5.5,5.5S188.038,435,185,435z M205,468
	c-3.038,0-5.5-2.463-5.5-5.5s2.462-5.5,5.5-5.5s5.5,2.463,5.5,5.5S208.038,468,205,468z M237,440.5c-3.038,0-5.5-2.463-5.5-5.5
	s2.462-5.5,5.5-5.5s5.5,2.463,5.5,5.5S240.038,440.5,237,440.5z M248.5,407.5c-3.038,0-5.5-2.463-5.5-5.5s2.462-5.5,5.5-5.5
	s5.5,2.463,5.5,5.5S251.538,407.5,248.5,407.5z M258,467.5c-3.038,0-5.5-2.463-5.5-5.5s2.462-5.5,5.5-5.5s5.5,2.463,5.5,5.5
	S261.038,467.5,258,467.5z M280.5,435.5c-3.038,0-5.5-2.463-5.5-5.5s2.462-5.5,5.5-5.5s5.5,2.463,5.5,5.5S283.538,435.5,280.5,435.5
	z M298,470c-3.037,0-5.5-2.463-5.5-5.5s2.463-5.5,5.5-5.5s5.5,2.463,5.5,5.5S301.037,470,298,470z M328,401.5
	c3.037,0,5.5,2.463,5.5,5.5s-2.463,5.5-5.5,5.5s-5.5-2.463-5.5-5.5S324.963,401.5,328,401.5z M329.5,445.5
	c-3.037,0-5.5-2.463-5.5-5.5s2.463-5.5,5.5-5.5s5.5,2.463,5.5,5.5S332.537,445.5,329.5,445.5z M351,469.5
	c-3.037,0-5.5-2.463-5.5-5.5s2.463-5.5,5.5-5.5s5.5,2.463,5.5,5.5S354.037,469.5,351,469.5z M367.5,445.5
	c-3.037,0-5.5-2.463-5.5-5.5s2.463-5.5,5.5-5.5s5.5,2.463,5.5,5.5S370.537,445.5,367.5,445.5z M394.5,411.5
	c-3.037,0-5.5-2.463-5.5-5.5s2.463-5.5,5.5-5.5s5.5,2.463,5.5,5.5S397.537,411.5,394.5,411.5z M408.5,469
	c-3.037,0-5.5-2.463-5.5-5.5s2.463-5.5,5.5-5.5s5.5,2.463,5.5,5.5S411.537,469,408.5,469z M413.5,440.5c-3.037,0-5.5-2.463-5.5-5.5
	s2.463-5.5,5.5-5.5s5.5,2.463,5.5,5.5S416.537,440.5,413.5,440.5z M451.426,441.898c-0.496,2.996-3.328,5.023-6.324,4.527
	s-5.023-3.328-4.527-6.324s3.328-5.023,6.324-4.527S451.922,438.902,451.426,441.898z M447.5,411c-3.037,0-5.5-2.463-5.5-5.5
	s2.463-5.5,5.5-5.5s5.5,2.463,5.5,5.5S450.537,411,447.5,411z M468.5,474.5c-3.037,0-5.5-2.463-5.5-5.5s2.463-5.5,5.5-5.5
	s5.5,2.463,5.5,5.5S471.537,474.5,468.5,474.5z M474,429c-3.037,0-5.5-2.463-5.5-5.5s2.463-5.5,5.5-5.5s5.5,2.463,5.5,5.5
	S477.037,429,474,429z M498,460c-3.037,0-5.5-2.463-5.5-5.5s2.463-5.5,5.5-5.5s5.5,2.463,5.5,5.5S501.037,460,498,460z M514,415
	c-3.037,0-5.5-2.463-5.5-5.5s2.463-5.5,5.5-5.5s5.5,2.463,5.5,5.5S517.037,415,514,415z M522.5,439c0-3.037,2.463-5.5,5.5-5.5
	s5.5,2.463,5.5,5.5s-2.463,5.5-5.5,5.5S522.5,442.037,522.5,439z M531,473.5c-3.037,0-5.5-2.463-5.5-5.5s2.463-5.5,5.5-5.5
	s5.5,2.463,5.5,5.5S534.037,473.5,531,473.5z M558,417.5c3.037,0,5.5,2.463,5.5,5.5s-2.463,5.5-5.5,5.5s-5.5-2.463-5.5-5.5
	S554.963,417.5,558,417.5z M558.5,456c-3.037,0-5.5-2.463-5.5-5.5s2.463-5.5,5.5-5.5s5.5,2.463,5.5,5.5S561.537,456,558.5,456z
	 M588,470.5c-3.037,0-5.5-2.463-5.5-5.5s2.463-5.5,5.5-5.5s5.5,2.463,5.5,5.5S591.037,470.5,588,470.5z M588,426.5
	c-3.037,0-5.5-2.463-5.5-5.5s2.463-5.5,5.5-5.5s5.5,2.463,5.5,5.5S591.037,426.5,588,426.5z M611.5,455.5
	c-3.037,0-5.5-2.463-5.5-5.5s2.463-5.5,5.5-5.5s5.5,2.463,5.5,5.5S614.537,455.5,611.5,455.5z M612.5,388c0-3.037,2.463-5.5,5.5-5.5
	s5.5,2.463,5.5,5.5s-2.463,5.5-5.5,5.5S612.5,391.037,612.5,388z M619.5,419c0-3.037,2.463-5.5,5.5-5.5s5.5,2.463,5.5,5.5
	s-2.463,5.5-5.5,5.5S619.5,422.037,619.5,419z M631,475.5c-3.037,0-5.5-2.463-5.5-5.5s2.463-5.5,5.5-5.5s5.5,2.463,5.5,5.5
	S634.037,475.5,631,475.5z"/>
</svg>
