<?xml version="1.0" encoding="utf-8"?>
<!-- Generator: Adobe Illustrator 14.0.0, SVG Export Plug-In . SVG Version: 6.00 Build 43363)  -->
<!DOCTYPE svg PUBLIC "-//W3C//DTD SVG 1.1//EN" "http://www.w3.org/Graphics/SVG/1.1/DTD/svg11.dtd">
<svg version="1.1" id="Layer_1" xmlns="http://www.w3.org/2000/svg" xmlns:xlink="http://www.w3.org/1999/xlink" x="0px" y="0px"
	 width="640px" height="480px" viewBox="0 0 640 480" style="enable-background:new 0 0 640 480;" xml:space="preserve">
<style type="text/css">
<![CDATA[
	.st0{fill:#FFFFFF;}
]]>
</style>
<path class="st0" d="M631.976,0c0.097,3.156,0.149,6.443,0.149,9.828c0,23.472-2.463,42.511-5.5,42.511s-5.5-19.039-5.5-42.511
	c0-3.385,0.053-6.672,0.149-9.828h-27.236c0.097,3.156,0.149,6.443,0.149,9.828c0,23.472-2.463,42.511-5.5,42.511
	s-5.5-19.039-5.5-42.511c0-3.385,0.053-6.672,0.149-9.828h-27.236c0.097,3.156,0.149,6.443,0.149,9.828
	c0,23.472-2.463,42.511-5.5,42.511s-5.5-19.039-5.5-42.511c0-3.385,0.053-6.672,0.149-9.828h-27.236
	c0.097,3.156,0.149,6.443,0.149,9.828c0,23.472-2.463,42.511-5.5,42.511s-5.5-19.039-5.5-42.511c0-3.385,0.053-6.672,0.149-9.828
	h-27.236c0.097,3.156,0.149,6.443,0.149,9.828c0,23.472-2.463,42.511-5.5,42.511s-5.5-19.039-5.5-42.511
	c0-3.385,0.053-6.672,0.149-9.828h-27.236c0.097,3.156,0.149,6.443,0.149,9.828c0,23.472-2.463,42.511-5.5,42.511
	s-5.5-19.039-5.5-42.511c0-3.385,0.053-6.672,0.149-9.828h-27.236c0.097,3.156,0.149,6.443,0.149,9.828
	c0,23.472-2.463,42.511-5.5,42.511s-5.5-19.039-5.5-42.511c0-3.385,0.053-6.672,0.149-9.828h-27.236
	c0.097,3.156,0.149,6.443,0.149,9.828c0,23.472-2.463,42.511-5.5,42.511s-5.5-19.039-5.5-42.511c0-3.385,0.053-6.672,0.149-9.828
	h-27.235c0.164,5.342,0.197,11.019,0.074,16.774c-0.496,23.153-3.328,38.821-6.324,34.986c-2.996-3.831-5.023-25.719-4.527-48.876
	c0.021-0.977,0.047-1.936,0.077-2.885h-27.238c0.097,3.156,0.149,6.443,0.149,9.828c0,23.472-2.463,42.511-5.5,42.511
	s-5.5-19.039-5.5-42.511c0-3.385,0.053-6.672,0.149-9.828h-27.236c0.097,3.156,0.149,6.443,0.149,9.828
	c0,23.472-2.463,42.511-5.5,42.511s-5.5-19.039-5.5-42.511c0-3.385,0.053-6.672,0.149-9.828h-27.236
	c0.097,3.156,0.149,6.443,0.149,9.828c0,23.472-2.463,42.511-5.5,42.511s-5.5-19.039-5.5-42.511c0-3.385,0.053-6.672,0.149-9.828
	h-27.236c0.097,3.156,0.149,6.443,0.149,9.828c0,23.472-2.463,42.511-5.5,42.511s-5.5-19.039-5.5-42.511
	c0-3.385,0.053-6.672,0.149-9.828h-27.236c0.097,3.156,0.149,6.443,0.149,9.828c0,23.472-2.463,42.511-5.5,42.511
	s-5.5-19.039-5.5-42.511c0-3.385,0.053-6.672,0.149-9.828h-27.236C100.947,3.156,101,6.443,101,9.828
	c0,23.472-2.463,42.511-5.5,42.511S90,33.3,90,9.828C90,6.443,90.053,3.156,90.149,0H62.913c0.097,3.156,0.149,6.443,0.149,9.828
	c0,23.472-2.463,42.511-5.5,42.511s-5.5-19.039-5.5-42.511c0-3.385,0.053-6.672,0.149-9.828H24.976
	c0.097,3.156,0.149,6.443,0.149,9.828c0,23.472-2.463,42.511-5.5,42.511s-5.5-19.039-5.5-42.511c0-3.385,0.053-6.672,0.149-9.828H0
	v480h640V0H631.976z"/>
</svg>
