<?xml version="1.0" encoding="utf-8"?>
<!-- Generator: Adobe Illustrator 14.0.0, SVG Export Plug-In . SVG Version: 6.00 Build 43363)  -->
<!DOCTYPE svg PUBLIC "-//W3C//DTD SVG 1.1//EN" "http://www.w3.org/Graphics/SVG/1.1/DTD/svg11.dtd">
<svg version="1.1" id="Layer_1" xmlns="http://www.w3.org/2000/svg" xmlns:xlink="http://www.w3.org/1999/xlink" x="0px" y="0px"
	 width="640px" height="480px" viewBox="0 0 640 480" style="enable-background:new 0 0 640 480;" xml:space="preserve">
<style type="text/css">
<![CDATA[
	.st0{fill:#FFFFFF;}
]]>
</style>
<path class="st0" d="M0,0v480h11.448c0.735-16.774,2.789-28.857,5.208-28.857s4.473,12.083,5.208,28.857h27.521
	c0.735-16.774,2.789-28.857,5.208-28.857s4.473,12.083,5.208,28.857h27.521c0.735-16.774,2.789-28.857,5.208-28.857
	s4.473,12.083,5.208,28.857h27.521c0.735-16.774,2.789-28.857,5.208-28.857s4.473,12.083,5.208,28.857h27.521
	c0.735-16.774,2.789-28.857,5.208-28.857s4.473,12.083,5.208,28.857h27.521c0.735-16.774,2.789-28.857,5.208-28.857
	s4.473,12.083,5.208,28.857h27.521c0.735-16.774,2.789-28.857,5.208-28.857s4.473,12.083,5.208,28.857h27.521
	c0.735-16.774,2.789-28.857,5.208-28.857s4.473,12.083,5.208,28.857h27.521c0.848-19.381,3.41-31.733,6.106-28.281
	c2.07,2.649,3.678,13.925,4.311,28.281h27.521c0.735-16.774,2.789-28.857,5.208-28.857s4.473,12.083,5.208,28.857h27.521
	c0.735-16.774,2.789-28.857,5.208-28.857s4.473,12.083,5.208,28.857h27.521c0.735-16.774,2.789-28.857,5.208-28.857
	s4.473,12.083,5.208,28.857h27.521c0.735-16.774,2.789-28.857,5.208-28.857s4.473,12.083,5.208,28.857h27.521
	c0.735-16.774,2.789-28.857,5.208-28.857s4.473,12.083,5.208,28.857h27.521c0.735-16.774,2.789-28.857,5.208-28.857
	s4.473,12.083,5.208,28.857h27.521c0.735-16.774,2.789-28.857,5.208-28.857s4.473,12.083,5.208,28.857h27.521
	c0.735-16.774,2.789-28.857,5.208-28.857s4.473,12.083,5.208,28.857H640V0H0z M314.708,98.812
	c0.496-7.453,3.328-12.496,6.324-11.262s5.023,8.278,4.527,15.73s-3.328,12.494-6.324,11.261S314.212,106.264,314.708,98.812z
	 M15.634,135.936c3.037,0,5.5,11.166,5.5,24.933s-2.463,24.933-5.5,24.933s-5.5-11.166-5.5-24.933S12.597,135.936,15.634,135.936z
	 M11.134,101.047c0-7.555,2.463-13.681,5.5-13.681s5.5,6.126,5.5,13.681c0,7.554-2.463,13.68-5.5,13.68
	S11.134,108.601,11.134,101.047z M16.634,210.937c3.037,0,5.5,19.038,5.5,42.507c0,23.473-2.463,42.512-5.5,42.512
	s-5.5-19.039-5.5-42.512C11.134,229.975,13.597,210.937,16.634,210.937z M16.656,427.4c-3.037,0-5.5-26.259-5.5-58.631
	c0-32.369,2.463-58.627,5.5-58.627s5.5,26.258,5.5,58.627C22.156,401.142,19.693,427.4,16.656,427.4z M17.463,64.967
	c-3.037,0-5.5-3.695-5.5-8.25c0-4.557,2.463-8.25,5.5-8.25s5.5,3.693,5.5,8.25C22.963,61.271,20.5,64.967,17.463,64.967z
	 M18.023,29.718c-3.037,0-5.5-2.463-5.5-5.5s2.463-5.5,5.5-5.5s5.5,2.463,5.5,5.5S21.061,29.718,18.023,29.718z M53.571,135.936
	c3.037,0,5.5,11.166,5.5,24.933s-2.463,24.933-5.5,24.933s-5.5-11.166-5.5-24.933S50.534,135.936,53.571,135.936z M49.071,101.047
	c0-7.555,2.463-13.681,5.5-13.681s5.5,6.126,5.5,13.681c0,7.554-2.463,13.68-5.5,13.68S49.071,108.601,49.071,101.047z
	 M54.571,210.937c3.037,0,5.5,19.038,5.5,42.507c0,23.473-2.463,42.512-5.5,42.512s-5.5-19.039-5.5-42.512
	C49.071,229.975,51.534,210.937,54.571,210.937z M54.594,427.4c-3.037,0-5.5-26.259-5.5-58.631c0-32.369,2.463-58.627,5.5-58.627
	s5.5,26.258,5.5,58.627C60.094,401.142,57.631,427.4,54.594,427.4z M55.4,64.967c-3.037,0-5.5-3.695-5.5-8.25
	c0-4.557,2.463-8.25,5.5-8.25s5.5,3.693,5.5,8.25C60.9,61.271,58.438,64.967,55.4,64.967z M55.961,29.718
	c-3.037,0-5.5-2.463-5.5-5.5s2.463-5.5,5.5-5.5s5.5,2.463,5.5,5.5S58.998,29.718,55.961,29.718z M91.509,135.936
	c3.037,0,5.5,11.166,5.5,24.933s-2.463,24.933-5.5,24.933s-5.5-11.166-5.5-24.933S88.472,135.936,91.509,135.936z M87.009,101.047
	c0-7.555,2.463-13.681,5.5-13.681s5.5,6.126,5.5,13.681c0,7.554-2.463,13.68-5.5,13.68S87.009,108.601,87.009,101.047z
	 M92.509,210.937c3.037,0,5.5,19.038,5.5,42.507c0,23.473-2.463,42.512-5.5,42.512s-5.5-19.039-5.5-42.512
	C87.009,229.975,89.472,210.937,92.509,210.937z M92.531,427.4c-3.037,0-5.5-26.259-5.5-58.631c0-32.369,2.463-58.627,5.5-58.627
	s5.5,26.258,5.5,58.627C98.031,401.142,95.568,427.4,92.531,427.4z M93.338,64.967c-3.037,0-5.5-3.695-5.5-8.25
	c0-4.557,2.463-8.25,5.5-8.25s5.5,3.693,5.5,8.25C98.838,61.271,96.375,64.967,93.338,64.967z M93.898,29.718
	c-3.037,0-5.5-2.463-5.5-5.5s2.463-5.5,5.5-5.5s5.5,2.463,5.5,5.5S96.936,29.718,93.898,29.718z M129.446,135.936
	c3.037,0,5.5,11.166,5.5,24.933s-2.463,24.933-5.5,24.933s-5.5-11.166-5.5-24.933S126.409,135.936,129.446,135.936z
	 M124.946,101.047c0-7.555,2.463-13.681,5.5-13.681s5.5,6.126,5.5,13.681c0,7.554-2.463,13.68-5.5,13.68
	S124.946,108.601,124.946,101.047z M130.446,210.937c3.037,0,5.5,19.038,5.5,42.507c0,23.473-2.463,42.512-5.5,42.512
	s-5.5-19.039-5.5-42.512C124.946,229.975,127.409,210.937,130.446,210.937z M130.469,427.4c-3.037,0-5.5-26.259-5.5-58.631
	c0-32.369,2.463-58.627,5.5-58.627s5.5,26.258,5.5,58.627C135.969,401.142,133.506,427.4,130.469,427.4z M131.275,64.967
	c-3.037,0-5.5-3.695-5.5-8.25c0-4.557,2.463-8.25,5.5-8.25s5.5,3.693,5.5,8.25C136.775,61.271,134.312,64.967,131.275,64.967z
	 M131.836,29.718c-3.037,0-5.5-2.463-5.5-5.5s2.463-5.5,5.5-5.5s5.5,2.463,5.5,5.5S134.873,29.718,131.836,29.718z M167.384,135.936
	c3.037,0,5.5,11.166,5.5,24.933s-2.463,24.933-5.5,24.933s-5.5-11.166-5.5-24.933S164.347,135.936,167.384,135.936z
	 M162.884,101.047c0-7.555,2.463-13.681,5.5-13.681s5.5,6.126,5.5,13.681c0,7.554-2.463,13.68-5.5,13.68
	S162.884,108.601,162.884,101.047z M168.384,210.937c3.037,0,5.5,19.038,5.5,42.507c0,23.473-2.463,42.512-5.5,42.512
	s-5.5-19.039-5.5-42.512C162.884,229.975,165.347,210.937,168.384,210.937z M168.406,427.4c-3.037,0-5.5-26.259-5.5-58.631
	c0-32.369,2.463-58.627,5.5-58.627s5.5,26.258,5.5,58.627C173.906,401.142,171.443,427.4,168.406,427.4z M169.213,64.967
	c-3.037,0-5.5-3.695-5.5-8.25c0-4.557,2.463-8.25,5.5-8.25s5.5,3.693,5.5,8.25C174.713,61.271,172.25,64.967,169.213,64.967z
	 M169.773,29.718c-3.037,0-5.5-2.463-5.5-5.5s2.463-5.5,5.5-5.5s5.5,2.463,5.5,5.5S172.811,29.718,169.773,29.718z M205.321,135.936
	c3.037,0,5.5,11.166,5.5,24.933s-2.463,24.933-5.5,24.933s-5.5-11.166-5.5-24.933S202.284,135.936,205.321,135.936z
	 M200.821,101.047c0-7.555,2.463-13.681,5.5-13.681s5.5,6.126,5.5,13.681c0,7.554-2.463,13.68-5.5,13.68
	S200.821,108.601,200.821,101.047z M206.321,210.937c3.037,0,5.5,19.038,5.5,42.507c0,23.473-2.463,42.512-5.5,42.512
	s-5.5-19.039-5.5-42.512C200.821,229.975,203.284,210.937,206.321,210.937z M206.344,427.4c-3.037,0-5.5-26.259-5.5-58.631
	c0-32.369,2.463-58.627,5.5-58.627s5.5,26.258,5.5,58.627C211.844,401.142,209.381,427.4,206.344,427.4z M207.15,64.967
	c-3.037,0-5.5-3.695-5.5-8.25c0-4.557,2.463-8.25,5.5-8.25s5.5,3.693,5.5,8.25C212.65,61.271,210.188,64.967,207.15,64.967z
	 M207.711,29.718c-3.037,0-5.5-2.463-5.5-5.5s2.463-5.5,5.5-5.5s5.5,2.463,5.5,5.5S210.748,29.718,207.711,29.718z M243.259,135.936
	c3.037,0,5.5,11.166,5.5,24.933s-2.463,24.933-5.5,24.933s-5.5-11.166-5.5-24.933S240.222,135.936,243.259,135.936z
	 M238.759,101.047c0-7.555,2.463-13.681,5.5-13.681s5.5,6.126,5.5,13.681c0,7.554-2.463,13.68-5.5,13.68
	S238.759,108.601,238.759,101.047z M244.259,210.937c3.037,0,5.5,19.038,5.5,42.507c0,23.473-2.463,42.512-5.5,42.512
	s-5.5-19.039-5.5-42.512C238.759,229.975,241.222,210.937,244.259,210.937z M244.281,427.4c-3.037,0-5.5-26.259-5.5-58.631
	c0-32.369,2.463-58.627,5.5-58.627s5.5,26.258,5.5,58.627C249.781,401.142,247.318,427.4,244.281,427.4z M245.088,64.967
	c-3.037,0-5.5-3.695-5.5-8.25c0-4.557,2.463-8.25,5.5-8.25s5.5,3.693,5.5,8.25C250.588,61.271,248.125,64.967,245.088,64.967z
	 M245.648,29.718c-3.037,0-5.5-2.463-5.5-5.5s2.463-5.5,5.5-5.5s5.5,2.463,5.5,5.5S248.686,29.718,245.648,29.718z M281.196,135.936
	c3.037,0,5.5,11.166,5.5,24.933s-2.463,24.933-5.5,24.933s-5.5-11.166-5.5-24.933S278.159,135.936,281.196,135.936z
	 M276.696,101.047c0-7.555,2.463-13.681,5.5-13.681s5.5,6.126,5.5,13.681c0,7.554-2.463,13.68-5.5,13.68
	S276.696,108.601,276.696,101.047z M282.196,210.937c3.037,0,5.5,19.038,5.5,42.507c0,23.473-2.463,42.512-5.5,42.512
	s-5.5-19.039-5.5-42.512C276.696,229.975,279.159,210.937,282.196,210.937z M282.219,427.4c-3.037,0-5.5-26.259-5.5-58.631
	c0-32.369,2.463-58.627,5.5-58.627s5.5,26.258,5.5,58.627C287.719,401.142,285.256,427.4,282.219,427.4z M283.025,64.967
	c-3.037,0-5.5-3.695-5.5-8.25c0-4.557,2.463-8.25,5.5-8.25s5.5,3.693,5.5,8.25C288.525,61.271,286.062,64.967,283.025,64.967z
	 M283.586,29.718c-3.037,0-5.5-2.463-5.5-5.5s2.463-5.5,5.5-5.5s5.5,2.463,5.5,5.5S286.623,29.718,283.586,29.718z M313.708,156.796
	c0.496-13.581,3.328-22.772,6.324-20.522c2.996,2.248,5.023,15.086,4.527,28.668c-0.496,13.58-3.328,22.771-6.324,20.521
	C315.239,183.215,313.212,170.377,313.708,156.796z M314.708,246.501c0.496-23.153,3.328-38.824,6.324-34.988
	c2.996,3.833,5.023,25.72,4.527,48.878c-0.496,23.152-3.328,38.82-6.324,34.986C316.239,291.545,314.212,269.658,314.708,246.501z
	 M325.582,378.35c-0.496,31.934-3.328,53.543-6.324,48.254c-2.996-5.284-5.023-35.472-4.527-67.41
	c0.496-31.932,3.328-53.546,6.324-48.256C324.051,316.226,326.078,346.41,325.582,378.35z M326.389,58.064
	c-0.496,4.494-3.328,7.535-6.324,6.791s-5.023-4.992-4.527-9.486s3.328-7.535,6.324-6.791S326.885,53.57,326.389,58.064z
	 M326.949,25.116c-0.496,2.996-3.328,5.023-6.324,4.527s-5.023-3.328-4.527-6.324s3.328-5.023,6.324-4.527
	S327.445,22.12,326.949,25.116z M357.071,135.936c3.037,0,5.5,11.166,5.5,24.933s-2.463,24.933-5.5,24.933s-5.5-11.166-5.5-24.933
	S354.034,135.936,357.071,135.936z M352.571,101.047c0-7.555,2.463-13.681,5.5-13.681s5.5,6.126,5.5,13.681
	c0,7.554-2.463,13.68-5.5,13.68S352.571,108.601,352.571,101.047z M358.071,210.937c3.037,0,5.5,19.038,5.5,42.507
	c0,23.473-2.463,42.512-5.5,42.512s-5.5-19.039-5.5-42.512C352.571,229.975,355.034,210.937,358.071,210.937z M358.094,427.4
	c-3.037,0-5.5-26.259-5.5-58.631c0-32.369,2.463-58.627,5.5-58.627s5.5,26.258,5.5,58.627
	C363.594,401.142,361.131,427.4,358.094,427.4z M358.9,64.967c-3.037,0-5.5-3.695-5.5-8.25c0-4.557,2.463-8.25,5.5-8.25
	s5.5,3.693,5.5,8.25C364.4,61.271,361.938,64.967,358.9,64.967z M359.461,29.718c-3.037,0-5.5-2.463-5.5-5.5s2.463-5.5,5.5-5.5
	s5.5,2.463,5.5,5.5S362.498,29.718,359.461,29.718z M395.009,135.936c3.037,0,5.5,11.166,5.5,24.933s-2.463,24.933-5.5,24.933
	s-5.5-11.166-5.5-24.933S391.972,135.936,395.009,135.936z M390.509,101.047c0-7.555,2.463-13.681,5.5-13.681s5.5,6.126,5.5,13.681
	c0,7.554-2.463,13.68-5.5,13.68S390.509,108.601,390.509,101.047z M396.009,210.937c3.037,0,5.5,19.038,5.5,42.507
	c0,23.473-2.463,42.512-5.5,42.512s-5.5-19.039-5.5-42.512C390.509,229.975,392.972,210.937,396.009,210.937z M396.031,427.4
	c-3.037,0-5.5-26.259-5.5-58.631c0-32.369,2.463-58.627,5.5-58.627s5.5,26.258,5.5,58.627
	C401.531,401.142,399.068,427.4,396.031,427.4z M396.838,64.967c-3.037,0-5.5-3.695-5.5-8.25c0-4.557,2.463-8.25,5.5-8.25
	s5.5,3.693,5.5,8.25C402.338,61.271,399.875,64.967,396.838,64.967z M397.398,29.718c-3.037,0-5.5-2.463-5.5-5.5s2.463-5.5,5.5-5.5
	s5.5,2.463,5.5,5.5S400.436,29.718,397.398,29.718z M432.946,135.936c3.037,0,5.5,11.166,5.5,24.933s-2.463,24.933-5.5,24.933
	s-5.5-11.166-5.5-24.933S429.909,135.936,432.946,135.936z M428.446,101.047c0-7.555,2.463-13.681,5.5-13.681s5.5,6.126,5.5,13.681
	c0,7.554-2.463,13.68-5.5,13.68S428.446,108.601,428.446,101.047z M433.946,210.937c3.037,0,5.5,19.038,5.5,42.507
	c0,23.473-2.463,42.512-5.5,42.512s-5.5-19.039-5.5-42.512C428.446,229.975,430.909,210.937,433.946,210.937z M433.969,427.4
	c-3.037,0-5.5-26.259-5.5-58.631c0-32.369,2.463-58.627,5.5-58.627s5.5,26.258,5.5,58.627
	C439.469,401.142,437.006,427.4,433.969,427.4z M434.775,64.967c-3.037,0-5.5-3.695-5.5-8.25c0-4.557,2.463-8.25,5.5-8.25
	s5.5,3.693,5.5,8.25C440.275,61.271,437.812,64.967,434.775,64.967z M435.336,29.718c-3.037,0-5.5-2.463-5.5-5.5s2.463-5.5,5.5-5.5
	s5.5,2.463,5.5,5.5S438.373,29.718,435.336,29.718z M470.884,135.936c3.037,0,5.5,11.166,5.5,24.933s-2.463,24.933-5.5,24.933
	s-5.5-11.166-5.5-24.933S467.847,135.936,470.884,135.936z M466.384,101.047c0-7.555,2.463-13.681,5.5-13.681s5.5,6.126,5.5,13.681
	c0,7.554-2.463,13.68-5.5,13.68S466.384,108.601,466.384,101.047z M471.884,210.937c3.037,0,5.5,19.038,5.5,42.507
	c0,23.473-2.463,42.512-5.5,42.512s-5.5-19.039-5.5-42.512C466.384,229.975,468.847,210.937,471.884,210.937z M471.906,427.4
	c-3.037,0-5.5-26.259-5.5-58.631c0-32.369,2.463-58.627,5.5-58.627s5.5,26.258,5.5,58.627
	C477.406,401.142,474.943,427.4,471.906,427.4z M472.713,64.967c-3.037,0-5.5-3.695-5.5-8.25c0-4.557,2.463-8.25,5.5-8.25
	s5.5,3.693,5.5,8.25C478.213,61.271,475.75,64.967,472.713,64.967z M473.273,29.718c-3.037,0-5.5-2.463-5.5-5.5s2.463-5.5,5.5-5.5
	s5.5,2.463,5.5,5.5S476.311,29.718,473.273,29.718z M508.821,135.936c3.037,0,5.5,11.166,5.5,24.933s-2.463,24.933-5.5,24.933
	s-5.5-11.166-5.5-24.933S505.784,135.936,508.821,135.936z M504.321,101.047c0-7.555,2.463-13.681,5.5-13.681s5.5,6.126,5.5,13.681
	c0,7.554-2.463,13.68-5.5,13.68S504.321,108.601,504.321,101.047z M509.821,210.937c3.037,0,5.5,19.038,5.5,42.507
	c0,23.473-2.463,42.512-5.5,42.512s-5.5-19.039-5.5-42.512C504.321,229.975,506.784,210.937,509.821,210.937z M509.844,427.4
	c-3.037,0-5.5-26.259-5.5-58.631c0-32.369,2.463-58.627,5.5-58.627s5.5,26.258,5.5,58.627
	C515.344,401.142,512.881,427.4,509.844,427.4z M510.65,64.967c-3.037,0-5.5-3.695-5.5-8.25c0-4.557,2.463-8.25,5.5-8.25
	s5.5,3.693,5.5,8.25C516.15,61.271,513.688,64.967,510.65,64.967z M511.211,29.718c-3.037,0-5.5-2.463-5.5-5.5s2.463-5.5,5.5-5.5
	s5.5,2.463,5.5,5.5S514.248,29.718,511.211,29.718z M546.759,135.936c3.037,0,5.5,11.166,5.5,24.933s-2.463,24.933-5.5,24.933
	s-5.5-11.166-5.5-24.933S543.722,135.936,546.759,135.936z M542.259,101.047c0-7.555,2.463-13.681,5.5-13.681s5.5,6.126,5.5,13.681
	c0,7.554-2.463,13.68-5.5,13.68S542.259,108.601,542.259,101.047z M547.759,210.937c3.037,0,5.5,19.038,5.5,42.507
	c0,23.473-2.463,42.512-5.5,42.512s-5.5-19.039-5.5-42.512C542.259,229.975,544.722,210.937,547.759,210.937z M547.781,427.4
	c-3.037,0-5.5-26.259-5.5-58.631c0-32.369,2.463-58.627,5.5-58.627s5.5,26.258,5.5,58.627
	C553.281,401.142,550.818,427.4,547.781,427.4z M548.588,64.967c-3.037,0-5.5-3.695-5.5-8.25c0-4.557,2.463-8.25,5.5-8.25
	s5.5,3.693,5.5,8.25C554.088,61.271,551.625,64.967,548.588,64.967z M549.148,29.718c-3.037,0-5.5-2.463-5.5-5.5s2.463-5.5,5.5-5.5
	s5.5,2.463,5.5,5.5S552.186,29.718,549.148,29.718z M584.696,135.936c3.037,0,5.5,11.166,5.5,24.933s-2.463,24.933-5.5,24.933
	s-5.5-11.166-5.5-24.933S581.659,135.936,584.696,135.936z M580.196,101.047c0-7.555,2.463-13.681,5.5-13.681s5.5,6.126,5.5,13.681
	c0,7.554-2.463,13.68-5.5,13.68S580.196,108.601,580.196,101.047z M585.696,210.937c3.037,0,5.5,19.038,5.5,42.507
	c0,23.473-2.463,42.512-5.5,42.512s-5.5-19.039-5.5-42.512C580.196,229.975,582.659,210.937,585.696,210.937z M585.719,427.4
	c-3.037,0-5.5-26.259-5.5-58.631c0-32.369,2.463-58.627,5.5-58.627s5.5,26.258,5.5,58.627
	C591.219,401.142,588.756,427.4,585.719,427.4z M586.525,64.967c-3.037,0-5.5-3.695-5.5-8.25c0-4.557,2.463-8.25,5.5-8.25
	s5.5,3.693,5.5,8.25C592.025,61.271,589.562,64.967,586.525,64.967z M587.086,29.718c-3.037,0-5.5-2.463-5.5-5.5s2.463-5.5,5.5-5.5
	s5.5,2.463,5.5,5.5S590.123,29.718,587.086,29.718z M622.634,135.936c3.037,0,5.5,11.166,5.5,24.933s-2.463,24.933-5.5,24.933
	s-5.5-11.166-5.5-24.933S619.597,135.936,622.634,135.936z M618.134,101.047c0-7.555,2.463-13.681,5.5-13.681s5.5,6.126,5.5,13.681
	c0,7.554-2.463,13.68-5.5,13.68S618.134,108.601,618.134,101.047z M623.634,210.937c3.037,0,5.5,19.038,5.5,42.507
	c0,23.473-2.463,42.512-5.5,42.512s-5.5-19.039-5.5-42.512C618.134,229.975,620.597,210.937,623.634,210.937z M623.656,427.4
	c-3.037,0-5.5-26.259-5.5-58.631c0-32.369,2.463-58.627,5.5-58.627s5.5,26.258,5.5,58.627
	C629.156,401.142,626.693,427.4,623.656,427.4z M624.463,64.967c-3.037,0-5.5-3.695-5.5-8.25c0-4.557,2.463-8.25,5.5-8.25
	s5.5,3.693,5.5,8.25C629.963,61.271,627.5,64.967,624.463,64.967z M625.023,29.718c-3.037,0-5.5-2.463-5.5-5.5s2.463-5.5,5.5-5.5
	s5.5,2.463,5.5,5.5S628.061,29.718,625.023,29.718z"/>
</svg>
