<?xml version="1.0" encoding="utf-8"?>
<!-- Generator: Adobe Illustrator 14.0.0, SVG Export Plug-In . SVG Version: 6.00 Build 43363)  -->
<!DOCTYPE svg PUBLIC "-//W3C//DTD SVG 1.1//EN" "http://www.w3.org/Graphics/SVG/1.1/DTD/svg11.dtd">
<svg version="1.1" id="Layer_1" xmlns="http://www.w3.org/2000/svg" xmlns:xlink="http://www.w3.org/1999/xlink" x="0px" y="0px"
	 width="50px" height="50px" viewBox="231 231 50 50" style="enable-background:new 231 231 50 50;" xml:space="preserve">
<style type="text/css">
<![CDATA[
	.st0{fill:url(#github-2-circle-outline-icon_2_);}
	.st1{fill:url(#github-2-circle-outline-icon_3_);}
	.st2{fill:url(#SVGID_1_);}
	.st3{fill:url(#SVGID_2_);}
	.st4{fill:url(#SVGID_3_);}
]]>
</style>
<linearGradient id="github-2-circle-outline-icon_2_" gradientUnits="userSpaceOnUse" x1="308.0615" y1="192.5815" x2="321.8126" y2="144.6259">
	<stop  offset="0" style="stop-color:#8700E7"/>
	<stop  offset="0.0358" style="stop-color:#8C06E0"/>
	<stop  offset="0.0894" style="stop-color:#9918CB"/>
	<stop  offset="0.1541" style="stop-color:#B034AA"/>
	<stop  offset="0.2275" style="stop-color:#CE5B7B"/>
	<stop  offset="0.3067" style="stop-color:#F58D41"/>
	<stop  offset="0.4479" style="stop-color:#FF9933"/>
	<stop  offset="0.5951" style="stop-color:#FFB55C"/>
	<stop  offset="0.7485" style="stop-color:#FF6903"/>
	<stop  offset="0.8773" style="stop-color:#957AB7"/>
	<stop  offset="0.9816" style="stop-color:#1794FF"/>
</linearGradient>
<path id="github-2-circle-outline-icon" class="st0" d="M314.938,148.509c5.368,0,10.414,2.09,14.209,5.886
	c3.797,3.795,5.886,8.842,5.886,14.209c0,5.368-2.089,10.413-5.886,14.209c-3.795,3.797-8.841,5.886-14.209,5.886
	c-5.367,0-10.414-2.089-14.209-5.886c-3.796-3.796-5.887-8.841-5.887-14.209c0-5.368,2.091-10.414,5.887-14.209
	C304.523,150.599,309.57,148.509,314.938,148.509 M314.938,143.667c-13.773,0-24.938,11.165-24.938,24.938
	c0,13.773,11.164,24.938,24.938,24.938s24.938-11.164,24.938-24.938C339.875,154.831,328.711,143.667,314.938,143.667
	L314.938,143.667z M331.31,169.878l0.029-0.299c-1.796-0.175-3.582-0.189-5.316-0.059c0.278-0.889,0.426-1.895,0.414-3.039
	c-0.022-2.429-0.832-4.32-2.106-5.891c0.245-1.479,0.062-2.957-0.4-4.437c-1.818,0.149-3.455,0.744-4.913,1.779
	c-2.724-0.552-5.447-0.588-8.171,0c-1.701-1.147-3.37-1.71-5.014-1.779c-0.487,1.629-0.562,3.234-0.15,4.813
	c-1.434,1.522-1.982,3.369-1.955,5.414c0.016,1.171,0.195,2.213,0.528,3.135c-1.71-0.126-3.468-0.11-5.235,0.062l0.029,0.299
	c1.8-0.175,3.59-0.189,5.328-0.053c0.063,0.154,0.128,0.309,0.201,0.455c-1.883-0.048-3.578,0.114-5.166,0.505l0.072,0.292
	c1.611-0.396,3.337-0.556,5.264-0.49c1.274,2.264,3.729,3.595,7.301,4.018c-0.83,0.674-1.277,1.469-1.392,2.369c0,0-0.376,0-1.892,0
	c-2.542,0-3.234-3.24-5.866-2.922c2.554,1.268,2.044,5.314,6.13,5.314c1.373,0,1.664,0,1.717,0v3.71
	c0.018,0.599-0.244,1.001-0.665,1.279c1.464,0.148,2.562-0.584,2.562-1.479c0-0.896,0-4.467,0-4.904
	c0-0.437,0.458-0.471,0.458-0.471v5.727c0.02,0.569-0.258,0.893-0.551,1.203c1.288,0.051,2.501-0.207,2.556-1.305
	c0,0,0-5.203,0-5.479s0.451-0.283,0.451,0c0,0.282,0,5.223,0,5.223c0.014,0.926,0.813,1.676,2.508,1.561
	c-0.454-0.366-0.594-0.734-0.594-1.269c0-0.532,0-5.661,0-5.661s0.467-0.023,0.467,0.471c0,0.495,0,3.947,0,4.775
	c0,1.063,1.276,1.502,2.731,1.461c-0.476-0.357-0.798-0.785-0.801-1.354v-5.742c-0.049-0.845-0.393-1.641-1.065-2.382
	c3.266-0.502,5.619-1.806,6.792-4.142c1.934-0.066,3.664,0.093,5.278,0.489l0.072-0.292c-1.599-0.393-3.308-0.557-5.208-0.503
	c0.064-0.148,0.13-0.297,0.186-0.454C327.681,169.688,329.49,169.702,331.31,169.878z M304.04,174.537
	c-0.08,0-0.145-0.047-0.145-0.103c0-0.058,0.064-0.104,0.145-0.104c0.081,0,0.146,0.046,0.146,0.104
	C304.186,174.49,304.121,174.537,304.04,174.537z M304.498,174.849c-0.09,0-0.161-0.052-0.161-0.115s0.071-0.114,0.161-0.114
	s0.162,0.051,0.162,0.114S304.588,174.849,304.498,174.849z M304.963,175.253c-0.105,0-0.189-0.059-0.189-0.133
	s0.084-0.135,0.189-0.135c0.104,0,0.189,0.061,0.189,0.135S305.066,175.253,304.963,175.253z M305.413,175.741
	c-0.122,0-0.222-0.069-0.222-0.156s0.1-0.157,0.222-0.157s0.222,0.07,0.222,0.157S305.535,175.741,305.413,175.741z M305.91,176.292
	c-0.136,0-0.246-0.078-0.246-0.175s0.11-0.174,0.246-0.174s0.246,0.077,0.246,0.174S306.046,176.292,305.91,176.292z
	 M306.486,176.85c-0.152,0-0.274-0.087-0.274-0.193s0.122-0.195,0.274-0.195c0.15,0,0.273,0.089,0.273,0.195
	S306.637,176.85,306.486,176.85z M307.264,177.382c-0.168,0-0.305-0.098-0.305-0.217c0-0.118,0.137-0.215,0.305-0.215
	c0.167,0,0.303,0.097,0.303,0.215C307.566,177.285,307.431,177.382,307.264,177.382z M308.228,177.665
	c-0.167,0-0.304-0.096-0.304-0.215c0-0.118,0.137-0.215,0.304-0.215c0.168,0,0.304,0.097,0.304,0.215
	C308.531,177.569,308.396,177.665,308.228,177.665z M309.244,177.7c-0.168,0-0.305-0.098-0.305-0.216
	c0-0.12,0.137-0.217,0.305-0.217s0.304,0.097,0.304,0.217C309.548,177.602,309.412,177.7,309.244,177.7z M310.247,177.719
	c-0.167,0-0.304-0.098-0.304-0.217c0-0.118,0.137-0.217,0.304-0.217c0.168,0,0.304,0.099,0.304,0.217
	C310.551,177.622,310.415,177.719,310.247,177.719z"/>
<linearGradient id="github-2-circle-outline-icon_3_" gradientUnits="userSpaceOnUse" x1="249.187" y1="279.915" x2="262.9379" y2="231.9599">
	<stop  offset="0" style="stop-color:#8700E7"/>
	<stop  offset="0.0358" style="stop-color:#8C06E0"/>
	<stop  offset="0.0894" style="stop-color:#9918CB"/>
	<stop  offset="0.1541" style="stop-color:#B034AA"/>
	<stop  offset="0.2275" style="stop-color:#CE5B7B"/>
	<stop  offset="0.3067" style="stop-color:#F58D41"/>
	<stop  offset="0.4479" style="stop-color:#FF9933"/>
	<stop  offset="0.5951" style="stop-color:#FFB55C"/>
	<stop  offset="0.7485" style="stop-color:#FF6903"/>
	<stop  offset="0.8773" style="stop-color:#957AB7"/>
	<stop  offset="0.9816" style="stop-color:#1794FF"/>
</linearGradient>
<path id="github-2-circle-outline-icon_1_" class="st1" d="M256.062,235.842c5.368,0,10.414,2.09,14.209,5.886
	c3.797,3.795,5.886,8.842,5.886,14.209c0,5.368-2.089,10.413-5.886,14.209c-3.795,3.797-8.841,5.886-14.209,5.886
	c-5.367,0-10.414-2.089-14.209-5.886c-3.796-3.796-5.887-8.841-5.887-14.209c0-5.368,2.091-10.414,5.887-14.209
	C245.648,237.933,250.695,235.842,256.062,235.842 M256.062,231c-13.773,0-24.938,11.165-24.938,24.938
	c0,13.773,11.164,24.938,24.938,24.938S281,269.711,281,255.938C281,242.165,269.836,231,256.062,231L256.062,231z"/>
<g>
	<linearGradient id="SVGID_1_" gradientUnits="userSpaceOnUse" x1="243.1489" y1="266.6309" x2="252.582" y2="252.6457">
		<stop  offset="0" style="stop-color:#8700E7"/>
		<stop  offset="0.0358" style="stop-color:#8C06E0"/>
		<stop  offset="0.0894" style="stop-color:#9918CB"/>
		<stop  offset="0.1541" style="stop-color:#B034AA"/>
		<stop  offset="0.2275" style="stop-color:#CE5B7B"/>
		<stop  offset="0.3067" style="stop-color:#F58D41"/>
		<stop  offset="0.4479" style="stop-color:#FF9933"/>
		<stop  offset="0.5951" style="stop-color:#FFB55C"/>
		<stop  offset="0.7485" style="stop-color:#FF6903"/>
		<stop  offset="0.8773" style="stop-color:#957AB7"/>
		<stop  offset="0.9816" style="stop-color:#1794FF"/>
	</linearGradient>
	<path class="st2" d="M251.045,251.609v16.058h-6.36v-16.058H251.045z"/>
	<linearGradient id="SVGID_2_" gradientUnits="userSpaceOnUse" x1="254.437" y1="268.46" x2="265.7043" y2="251.7555">
		<stop  offset="0" style="stop-color:#8700E7"/>
		<stop  offset="0.0358" style="stop-color:#8C06E0"/>
		<stop  offset="0.0894" style="stop-color:#9918CB"/>
		<stop  offset="0.1541" style="stop-color:#B034AA"/>
		<stop  offset="0.2275" style="stop-color:#CE5B7B"/>
		<stop  offset="0.3067" style="stop-color:#F58D41"/>
		<stop  offset="0.4479" style="stop-color:#FF9933"/>
		<stop  offset="0.5951" style="stop-color:#FFB55C"/>
		<stop  offset="0.7485" style="stop-color:#FF6903"/>
		<stop  offset="0.8773" style="stop-color:#957AB7"/>
		<stop  offset="0.9816" style="stop-color:#1794FF"/>
	</linearGradient>
	<path class="st3" d="M259.546,251.609l-0.106,1.479c0.448-0.59,0.995-1.033,1.643-1.327c0.648-0.296,1.394-0.442,2.24-0.442
		c1.062,0,1.927,0.197,2.599,0.592c0.674,0.396,1.107,0.894,1.301,1.495c0.195,0.601,0.291,1.603,0.291,3.007v11.254h-6.178v-11.121
		c0-1.105-0.046-1.779-0.138-2.02c-0.092-0.242-0.347-0.363-0.765-0.363c-0.438,0-0.714,0.139-0.825,0.417
		c-0.112,0.278-0.168,1.023-0.168,2.233v10.854h-6.178v-16.058H259.546z"/>
</g>
<linearGradient id="SVGID_3_" gradientUnits="userSpaceOnUse" x1="245.9556" y1="250.1338" x2="249.7576" y2="244.4971">
	<stop  offset="0" style="stop-color:#8700E7"/>
	<stop  offset="0.0358" style="stop-color:#8C06E0"/>
	<stop  offset="0.0894" style="stop-color:#9918CB"/>
	<stop  offset="0.1541" style="stop-color:#B034AA"/>
	<stop  offset="0.2275" style="stop-color:#CE5B7B"/>
	<stop  offset="0.3067" style="stop-color:#F58D41"/>
	<stop  offset="0.4479" style="stop-color:#FF9933"/>
	<stop  offset="0.5951" style="stop-color:#FFB55C"/>
	<stop  offset="0.7485" style="stop-color:#FF6903"/>
	<stop  offset="0.8773" style="stop-color:#957AB7"/>
	<stop  offset="0.9816" style="stop-color:#1794FF"/>
</linearGradient>
<circle class="st4" cx="247.857" cy="247.315" r="3.399"/>
</svg>
