<?xml version="1.0" encoding="utf-8"?>
<!-- Generator: Adobe Illustrator 14.0.0, SVG Export Plug-In . SVG Version: 6.00 Build 43363)  -->
<!DOCTYPE svg PUBLIC "-//W3C//DTD SVG 1.1//EN" "http://www.w3.org/Graphics/SVG/1.1/DTD/svg11.dtd">
<svg version="1.1" id="Layer_1" xmlns="http://www.w3.org/2000/svg" xmlns:xlink="http://www.w3.org/1999/xlink" x="0px" y="0px"
	 width="200px" height="49.333px" viewBox="156 228.167 200 49.333" style="enable-background:new 156 228.167 200 49.333;"
	 xml:space="preserve">
<style type="text/css">
<![CDATA[
	.st0{fill:url(#github-2-circle-outline-icon_2_);}
	.st1{fill:url(#github-2-circle-outline-icon_3_);}
	.st2{fill:url(#SVGID_1_);}
	.st3{fill:url(#SVGID_2_);}
	.st4{fill:url(#SVGID_3_);}
	.st5{fill:url(#SVGID_4_);}
	.st6{fill:url(#SVGID_5_);}
	.st7{fill:url(#SVGID_6_);}
	.st8{fill:url(#SVGID_7_);}
	.st9{fill:url(#SVGID_8_);}
	.st10{fill:url(#SVGID_9_);}
	.st11{display:inline;}
	.st12{fill:url(#SVGID_10_);}
	.st13{fill:url(#SVGID_11_);}
	.st14{fill:url(#SVGID_12_);}
	.st15{fill:url(#SVGID_13_);}
	.st16{fill:url(#SVGID_14_);}
	.st17{fill:url(#SVGID_15_);}
	.st18{display:none;}
]]>
</style>
<linearGradient id="github-2-circle-outline-icon_2_" gradientUnits="userSpaceOnUse" x1="308.0615" y1="192.5815" x2="321.8126" y2="144.6259">
	<stop  offset="0" style="stop-color:#8700E7"/>
	<stop  offset="0.0358" style="stop-color:#8C06E0"/>
	<stop  offset="0.0894" style="stop-color:#9918CB"/>
	<stop  offset="0.1541" style="stop-color:#B034AA"/>
	<stop  offset="0.2275" style="stop-color:#CE5B7B"/>
	<stop  offset="0.3067" style="stop-color:#F58D41"/>
	<stop  offset="0.4479" style="stop-color:#FF9933"/>
	<stop  offset="0.5951" style="stop-color:#FFB55C"/>
	<stop  offset="0.7485" style="stop-color:#FF6903"/>
	<stop  offset="0.8773" style="stop-color:#957AB7"/>
	<stop  offset="0.9816" style="stop-color:#1794FF"/>
</linearGradient>
<path id="github-2-circle-outline-icon" class="st0" d="M314.938,148.509c5.368,0,10.414,2.09,14.209,5.886
	c3.797,3.795,5.886,8.842,5.886,14.209c0,5.368-2.089,10.413-5.886,14.209c-3.795,3.797-8.841,5.886-14.209,5.886
	c-5.367,0-10.414-2.089-14.209-5.886c-3.796-3.796-5.887-8.841-5.887-14.209c0-5.368,2.091-10.414,5.887-14.209
	C304.523,150.599,309.57,148.509,314.938,148.509 M314.938,143.667c-13.773,0-24.938,11.165-24.938,24.938
	c0,13.773,11.164,24.938,24.938,24.938s24.938-11.164,24.938-24.938C339.875,154.831,328.711,143.667,314.938,143.667
	L314.938,143.667z M331.31,169.878l0.029-0.299c-1.796-0.175-3.582-0.189-5.316-0.059c0.278-0.889,0.426-1.895,0.414-3.039
	c-0.022-2.429-0.832-4.32-2.106-5.891c0.245-1.479,0.062-2.957-0.4-4.437c-1.818,0.149-3.455,0.744-4.913,1.779
	c-2.724-0.552-5.447-0.588-8.171,0c-1.701-1.147-3.37-1.71-5.014-1.779c-0.487,1.629-0.562,3.234-0.15,4.813
	c-1.434,1.522-1.982,3.369-1.955,5.414c0.016,1.171,0.195,2.213,0.528,3.135c-1.71-0.126-3.468-0.11-5.235,0.062l0.029,0.299
	c1.8-0.175,3.59-0.189,5.328-0.053c0.063,0.154,0.128,0.309,0.201,0.455c-1.883-0.048-3.578,0.114-5.166,0.505l0.072,0.292
	c1.611-0.396,3.337-0.556,5.264-0.49c1.274,2.264,3.729,3.595,7.301,4.018c-0.83,0.674-1.277,1.469-1.392,2.369c0,0-0.376,0-1.892,0
	c-2.542,0-3.234-3.24-5.866-2.922c2.554,1.268,2.044,5.314,6.13,5.314c1.373,0,1.664,0,1.717,0v3.71
	c0.018,0.599-0.244,1.001-0.665,1.279c1.464,0.148,2.562-0.584,2.562-1.479c0-0.896,0-4.467,0-4.904
	c0-0.437,0.458-0.471,0.458-0.471v5.727c0.02,0.569-0.258,0.893-0.551,1.203c1.288,0.051,2.501-0.207,2.556-1.305
	c0,0,0-5.203,0-5.479s0.451-0.283,0.451,0c0,0.282,0,5.223,0,5.223c0.014,0.926,0.813,1.676,2.508,1.561
	c-0.454-0.366-0.594-0.734-0.594-1.269c0-0.532,0-5.661,0-5.661s0.467-0.023,0.467,0.471c0,0.495,0,3.947,0,4.775
	c0,1.063,1.276,1.502,2.731,1.461c-0.476-0.357-0.798-0.785-0.801-1.354v-5.742c-0.049-0.845-0.393-1.641-1.065-2.382
	c3.266-0.502,5.619-1.806,6.792-4.142c1.934-0.066,3.664,0.093,5.278,0.489l0.072-0.292c-1.599-0.393-3.308-0.557-5.208-0.503
	c0.064-0.148,0.13-0.297,0.186-0.454C327.681,169.688,329.49,169.702,331.31,169.878z M304.04,174.537
	c-0.08,0-0.145-0.047-0.145-0.103c0-0.058,0.064-0.104,0.145-0.104c0.081,0,0.146,0.046,0.146,0.104
	C304.186,174.49,304.121,174.537,304.04,174.537z M304.498,174.849c-0.09,0-0.161-0.052-0.161-0.115s0.071-0.114,0.161-0.114
	s0.162,0.051,0.162,0.114S304.588,174.849,304.498,174.849z M304.963,175.253c-0.105,0-0.189-0.059-0.189-0.133
	s0.084-0.135,0.189-0.135c0.104,0,0.189,0.061,0.189,0.135S305.066,175.253,304.963,175.253z M305.413,175.741
	c-0.122,0-0.222-0.069-0.222-0.156s0.1-0.157,0.222-0.157s0.222,0.07,0.222,0.157S305.535,175.741,305.413,175.741z M305.91,176.292
	c-0.136,0-0.246-0.078-0.246-0.175s0.11-0.174,0.246-0.174s0.246,0.077,0.246,0.174S306.046,176.292,305.91,176.292z
	 M306.486,176.85c-0.152,0-0.274-0.087-0.274-0.193s0.122-0.195,0.274-0.195c0.15,0,0.273,0.089,0.273,0.195
	S306.637,176.85,306.486,176.85z M307.264,177.382c-0.168,0-0.305-0.098-0.305-0.217c0-0.118,0.137-0.215,0.305-0.215
	c0.167,0,0.303,0.097,0.303,0.215C307.566,177.285,307.431,177.382,307.264,177.382z M308.228,177.665
	c-0.167,0-0.304-0.096-0.304-0.215c0-0.118,0.137-0.215,0.304-0.215c0.168,0,0.304,0.097,0.304,0.215
	C308.531,177.569,308.396,177.665,308.228,177.665z M309.244,177.7c-0.168,0-0.305-0.098-0.305-0.216
	c0-0.12,0.137-0.217,0.305-0.217s0.304,0.097,0.304,0.217C309.548,177.602,309.412,177.7,309.244,177.7z M310.247,177.719
	c-0.167,0-0.304-0.098-0.304-0.217c0-0.118,0.137-0.217,0.304-0.217c0.168,0,0.304,0.099,0.304,0.217
	C310.551,177.622,310.415,177.719,310.247,177.719z"/>
<linearGradient id="github-2-circle-outline-icon_3_" gradientUnits="userSpaceOnUse" x1="250.1885" y1="197.5815" x2="263.9395" y2="149.6259">
	<stop  offset="0" style="stop-color:#8700E7"/>
	<stop  offset="0.0358" style="stop-color:#8C06E0"/>
	<stop  offset="0.0894" style="stop-color:#9918CB"/>
	<stop  offset="0.1541" style="stop-color:#B034AA"/>
	<stop  offset="0.2275" style="stop-color:#CE5B7B"/>
	<stop  offset="0.3067" style="stop-color:#F58D41"/>
	<stop  offset="0.4479" style="stop-color:#FF9933"/>
	<stop  offset="0.5951" style="stop-color:#FFB55C"/>
	<stop  offset="0.7485" style="stop-color:#FF6903"/>
	<stop  offset="0.8773" style="stop-color:#957AB7"/>
	<stop  offset="0.9816" style="stop-color:#1794FF"/>
</linearGradient>
<path id="github-2-circle-outline-icon_1_" class="st1" d="M257.062,153.509c5.368,0,10.414,2.09,14.209,5.886
	c3.797,3.795,5.886,8.842,5.886,14.209c0,5.368-2.089,10.413-5.886,14.209c-3.795,3.797-8.841,5.886-14.209,5.886
	c-5.367,0-10.414-2.089-14.209-5.886c-3.796-3.796-5.887-8.841-5.887-14.209c0-5.368,2.091-10.414,5.887-14.209
	C246.648,155.599,251.695,153.509,257.062,153.509 M257.062,148.667c-13.773,0-24.938,11.165-24.938,24.938
	c0,13.773,11.164,24.938,24.938,24.938S282,187.377,282,173.604C282,159.831,270.836,148.667,257.062,148.667L257.062,148.667z"/>
<g>
	<linearGradient id="SVGID_1_" gradientUnits="userSpaceOnUse" x1="244.1479" y1="184.2969" x2="253.5813" y2="170.3113">
		<stop  offset="0" style="stop-color:#8700E7"/>
		<stop  offset="0.0358" style="stop-color:#8C06E0"/>
		<stop  offset="0.0894" style="stop-color:#9918CB"/>
		<stop  offset="0.1541" style="stop-color:#B034AA"/>
		<stop  offset="0.2275" style="stop-color:#CE5B7B"/>
		<stop  offset="0.3067" style="stop-color:#F58D41"/>
		<stop  offset="0.4479" style="stop-color:#FF9933"/>
		<stop  offset="0.5951" style="stop-color:#FFB55C"/>
		<stop  offset="0.7485" style="stop-color:#FF6903"/>
		<stop  offset="0.8773" style="stop-color:#957AB7"/>
		<stop  offset="0.9816" style="stop-color:#1794FF"/>
	</linearGradient>
	<path class="st2" d="M252.045,169.275v16.058h-6.36v-16.058H252.045z"/>
	<linearGradient id="SVGID_2_" gradientUnits="userSpaceOnUse" x1="255.4375" y1="186.1265" x2="266.7048" y2="169.422">
		<stop  offset="0" style="stop-color:#8700E7"/>
		<stop  offset="0.0358" style="stop-color:#8C06E0"/>
		<stop  offset="0.0894" style="stop-color:#9918CB"/>
		<stop  offset="0.1541" style="stop-color:#B034AA"/>
		<stop  offset="0.2275" style="stop-color:#CE5B7B"/>
		<stop  offset="0.3067" style="stop-color:#F58D41"/>
		<stop  offset="0.4479" style="stop-color:#FF9933"/>
		<stop  offset="0.5951" style="stop-color:#FFB55C"/>
		<stop  offset="0.7485" style="stop-color:#FF6903"/>
		<stop  offset="0.8773" style="stop-color:#957AB7"/>
		<stop  offset="0.9816" style="stop-color:#1794FF"/>
	</linearGradient>
	<path class="st3" d="M260.546,169.275l-0.106,1.479c0.448-0.59,0.995-1.033,1.643-1.327c0.648-0.296,1.394-0.442,2.24-0.442
		c1.062,0,1.927,0.197,2.599,0.592c0.674,0.396,1.107,0.894,1.301,1.495c0.195,0.601,0.291,1.603,0.291,3.007v11.254h-6.178v-11.121
		c0-1.105-0.046-1.779-0.138-2.02c-0.092-0.242-0.347-0.363-0.765-0.363c-0.438,0-0.714,0.139-0.825,0.417
		c-0.112,0.278-0.168,1.023-0.168,2.233v10.854h-6.178v-16.058H260.546z"/>
</g>
<linearGradient id="SVGID_3_" gradientUnits="userSpaceOnUse" x1="246.9561" y1="167.8003" x2="250.7579" y2="162.1638">
	<stop  offset="0" style="stop-color:#8700E7"/>
	<stop  offset="0.0358" style="stop-color:#8C06E0"/>
	<stop  offset="0.0894" style="stop-color:#9918CB"/>
	<stop  offset="0.1541" style="stop-color:#B034AA"/>
	<stop  offset="0.2275" style="stop-color:#CE5B7B"/>
	<stop  offset="0.3067" style="stop-color:#F58D41"/>
	<stop  offset="0.4479" style="stop-color:#FF9933"/>
	<stop  offset="0.5951" style="stop-color:#FFB55C"/>
	<stop  offset="0.7485" style="stop-color:#FF6903"/>
	<stop  offset="0.8773" style="stop-color:#957AB7"/>
	<stop  offset="0.9816" style="stop-color:#1794FF"/>
</linearGradient>
<circle class="st4" cx="248.857" cy="164.981" r="3.399"/>
<g class="st18">
	<path class="st11" d="M180.864,263.029c0-2.447-1.248-3.984-2.736-5.088c-1.488-1.057-3.264-1.583-3.888-1.68
		c-0.144-0.048-0.192-0.096-0.24-0.096h-8.161v13.297c0,0.623-0.528,1.152-1.2,1.152c-0.624,0-1.152-0.529-1.152-1.152v-31.299
		c0-0.576,0.48-1.104,1.056-1.152h0.096h0.144h9.361c5.28,0,9.553,4.272,9.553,9.601c0,3.84-2.256,7.152-5.521,8.688
		c0.144,0.096,0.288,0.144,0.48,0.24c2.208,1.248,4.512,3.697,4.512,7.488c0,1.969,0.192,3.17,0.432,3.889
		c0.192,0.576,0.432,0.768,0.48,0.816c0.528-0.049,1.104,0.24,1.296,0.768c0.144,0.625-0.144,1.297-0.768,1.537
		c-0.048,0-0.288,0.047-0.576,0.047h-0.096c-0.624,0-1.632-0.479-2.16-1.535C181.2,267.447,180.864,265.863,180.864,263.029z
		 M174.144,239.364h-8.305v14.497h8.065h0.432c3.888-0.096,7.057-3.312,7.057-7.249
		C181.392,242.581,178.127,239.364,174.144,239.364z"/>
	<path class="st11" d="M194.158,238.164c0-0.624,0.528-1.152,1.152-1.152h0.096h17.185c0.672,0,1.152,0.528,1.152,1.152
		c0,0.672-0.48,1.2-1.152,1.2h-16.081v13.297h14.065c0.624,0,1.152,0.528,1.152,1.2c0,0.624-0.528,1.152-1.152,1.152h-14.065v13.249
		h16.081c0.672,0,1.152,0.529,1.152,1.201c0,0.623-0.48,1.152-1.152,1.152h-17.137h-0.144h-0.096
		c-0.576-0.049-1.056-0.529-1.056-1.152V238.164z"/>
	<path class="st11" d="M221.086,264.326c0.384-0.48,1.056-0.527,1.488-0.145c2.496,2.018,6.673,4.369,11.041,4.32
		c2.928,0,5.568-0.863,7.393-2.207c1.872-1.344,2.88-3.121,2.88-4.992c0-1.922-0.912-3.361-2.736-4.609
		c-1.824-1.2-4.512-2.112-7.776-2.736h-0.096c-3.12-0.576-5.856-1.44-7.921-2.833c-2.064-1.344-3.456-3.36-3.456-5.856
		c0-2.544,1.392-4.752,3.504-6.289c2.112-1.536,4.944-2.448,8.112-2.448c4.417,0,7.729,2.16,10.369,3.888
		c0.48,0.336,0.624,0.96,0.288,1.488c-0.288,0.48-0.96,0.624-1.44,0.288c-2.64-1.728-5.521-3.552-9.217-3.552
		c-2.736,0-5.184,0.816-6.864,2.016c-1.68,1.248-2.64,2.88-2.64,4.608c0.048,1.68,0.816,2.928,2.496,4.081
		c1.68,1.152,4.176,1.968,7.201,2.544h0.096c3.36,0.624,6.337,1.584,8.545,3.072c2.208,1.44,3.696,3.648,3.696,6.337
		c0,2.688-1.536,5.088-3.792,6.721c-2.256,1.631-5.28,2.639-8.641,2.639c-5.136-0.047-9.601-2.639-12.385-4.848
		C220.798,265.43,220.75,264.758,221.086,264.326z"/>
	<path class="st11" d="M254.686,238.164c0-0.624,0.528-1.152,1.152-1.152c0.672,0,1.201,0.528,1.201,1.152v18.865
		c0,6.193,5.04,11.186,11.185,11.232c6.24-0.047,11.281-5.039,11.281-11.232v-18.865c0-0.624,0.527-1.152,1.151-1.152
		c0.673,0,1.2,0.528,1.2,1.152v18.865c0,7.488-6.097,13.586-13.633,13.586c-7.44,0-13.537-6.098-13.537-13.586V238.164z"/>
	<path class="st11" d="M317.232,241.812l-10.753,14.93c-0.24,0.383-0.624,0.527-0.961,0.527h-0.096
		c-0.432,0-0.768-0.145-1.008-0.527l-10.753-14.882v27.603c0,0.623-0.528,1.152-1.152,1.152c-0.672,0-1.2-0.529-1.2-1.152v-31.107
		c0-0.384,0.192-0.72,0.48-0.912c0-0.048,0.048-0.048,0.096-0.096c0.528-0.336,1.248-0.24,1.632,0.288l11.953,16.562l11.905-16.562
		c0.336-0.528,1.104-0.624,1.632-0.288c0.145,0.144,0.24,0.24,0.337,0.384c0.096,0.192,0.191,0.432,0.191,0.624v31.107
		c0,0.623-0.528,1.152-1.152,1.152c-0.672,0-1.151-0.529-1.151-1.152V241.812z"/>
	<path class="st11" d="M329.422,238.164c0-0.624,0.528-1.152,1.152-1.152h0.096h17.186c0.672,0,1.152,0.528,1.152,1.152
		c0,0.672-0.48,1.2-1.152,1.2h-16.081v13.297h14.065c0.624,0,1.151,0.528,1.151,1.2c0,0.624-0.527,1.152-1.151,1.152h-14.065v13.249
		h16.081c0.672,0,1.152,0.529,1.152,1.201c0,0.623-0.48,1.152-1.152,1.152h-17.138h-0.144h-0.096
		c-0.576-0.049-1.057-0.529-1.057-1.152V238.164z"/>
</g>
<g>
	<path d="M351.623,164.879c0.384-0.48,1.057-0.528,1.488-0.145c2.496,2.017,6.673,4.368,11.041,4.32
		c2.929,0,5.568-0.864,7.393-2.208c1.872-1.344,2.88-3.12,2.88-4.992c0-1.921-0.912-3.36-2.735-4.608
		c-1.824-1.2-4.513-2.112-7.777-2.736h-0.096c-3.12-0.576-5.856-1.44-7.921-2.832c-2.064-1.345-3.456-3.36-3.456-5.856
		c0-2.545,1.392-4.753,3.504-6.289s4.944-2.448,8.113-2.448c4.416,0,7.729,2.16,10.368,3.889c0.48,0.336,0.625,0.96,0.288,1.488
		c-0.288,0.479-0.96,0.624-1.439,0.288c-2.641-1.729-5.521-3.553-9.217-3.553c-2.736,0-5.185,0.816-6.865,2.016
		c-1.68,1.249-2.64,2.881-2.64,4.609c0.048,1.68,0.815,2.928,2.496,4.08c1.68,1.152,4.176,1.968,7.2,2.544h0.097
		c3.36,0.624,6.336,1.584,8.544,3.072c2.209,1.44,3.696,3.648,3.696,6.337c0,2.688-1.535,5.088-3.792,6.721
		c-2.256,1.632-5.28,2.64-8.641,2.64c-5.137-0.048-9.601-2.64-12.385-4.849C351.335,165.982,351.287,165.311,351.623,164.879z"/>
	<path d="M385.175,138.86c0-0.672,0.528-1.2,1.152-1.2c0.672,0,1.2,0.528,1.2,1.2v19.441l20.306-20.306
		c0.48-0.432,1.248-0.432,1.632,0c0.48,0.432,0.48,1.2,0,1.681L396.6,152.541l13.153,16.706c0.385,0.527,0.288,1.2-0.191,1.68
		c-0.24,0.192-0.48,0.24-0.769,0.24c-0.336,0-0.624-0.096-0.864-0.432l-13.009-16.514l-7.393,7.393v8.4
		c0,0.624-0.528,1.152-1.2,1.152c-0.624,0-1.152-0.528-1.152-1.152V138.86z"/>
	<path d="M419.831,138.716c0-0.624,0.528-1.151,1.152-1.151c0.672,0,1.2,0.527,1.2,1.151v31.299c0,0.624-0.528,1.152-1.2,1.152
		c-0.624,0-1.152-0.528-1.152-1.152V138.716z"/>
	<path d="M435.382,171.167h-0.096c-0.624,0-1.152-0.528-1.152-1.152v-31.299c0-0.624,0.528-1.151,1.152-1.151
		c0.672,0,1.2,0.527,1.2,1.151v30.099h16.081c0.672,0,1.2,0.528,1.2,1.2c0,0.624-0.528,1.152-1.2,1.152H435.382z"/>
	<path d="M462.405,171.167h-0.096c-0.624,0-1.152-0.528-1.152-1.152v-31.299c0-0.624,0.528-1.151,1.152-1.151
		c0.672,0,1.2,0.527,1.2,1.151v30.099h16.081c0.672,0,1.2,0.528,1.2,1.2c0,0.624-0.528,1.152-1.2,1.152H462.405z"/>
	<path d="M486.645,164.879c0.384-0.48,1.057-0.528,1.488-0.145c2.496,2.017,6.673,4.368,11.041,4.32
		c2.929,0,5.568-0.864,7.393-2.208c1.872-1.344,2.88-3.12,2.88-4.992c0-1.921-0.912-3.36-2.735-4.608
		c-1.824-1.2-4.513-2.112-7.777-2.736h-0.096c-3.12-0.576-5.856-1.44-7.921-2.832c-2.064-1.345-3.456-3.36-3.456-5.856
		c0-2.545,1.392-4.753,3.504-6.289s4.944-2.448,8.113-2.448c4.416,0,7.729,2.16,10.368,3.889c0.48,0.336,0.625,0.96,0.288,1.488
		c-0.288,0.479-0.96,0.624-1.439,0.288c-2.641-1.729-5.521-3.553-9.217-3.553c-2.736,0-5.185,0.816-6.865,2.016
		c-1.68,1.249-2.64,2.881-2.64,4.609c0.048,1.68,0.815,2.928,2.496,4.08c1.68,1.152,4.176,1.968,7.2,2.544h0.097
		c3.36,0.624,6.336,1.584,8.544,3.072c2.209,1.44,3.696,3.648,3.696,6.337c0,2.688-1.535,5.088-3.792,6.721
		c-2.256,1.632-5.28,2.64-8.641,2.64c-5.137-0.048-9.601-2.64-12.385-4.849C486.356,165.982,486.309,165.311,486.645,164.879z"/>
</g>
<g>
	<linearGradient id="SVGID_4_" gradientUnits="userSpaceOnUse" x1="355.6104" y1="211.4912" x2="377.4787" y2="185.4295">
		<stop  offset="0" style="stop-color:#8700E7"/>
		<stop  offset="0.0358" style="stop-color:#8C06E0"/>
		<stop  offset="0.0894" style="stop-color:#9918CB"/>
		<stop  offset="0.1541" style="stop-color:#B034AA"/>
		<stop  offset="0.2275" style="stop-color:#CE5B7B"/>
		<stop  offset="0.3067" style="stop-color:#F58D41"/>
		<stop  offset="0.4479" style="stop-color:#FF9933"/>
		<stop  offset="0.5951" style="stop-color:#FFB55C"/>
		<stop  offset="0.7485" style="stop-color:#FF6903"/>
		<stop  offset="0.8773" style="stop-color:#957AB7"/>
		<stop  offset="0.9816" style="stop-color:#1794FF"/>
	</linearGradient>
	<path class="st5" d="M354.123,208.877c0.384-0.48,1.057-0.528,1.488-0.145c2.496,2.017,6.673,4.368,11.041,4.32
		c2.929,0,5.568-0.864,7.393-2.208c1.872-1.344,2.88-3.12,2.88-4.992c0-1.921-0.912-3.36-2.735-4.608
		c-1.824-1.2-4.513-2.112-7.777-2.736h-0.096c-3.12-0.576-5.856-1.44-7.921-2.832c-2.064-1.345-3.456-3.36-3.456-5.856
		c0-2.545,1.392-4.753,3.504-6.289s4.944-2.448,8.113-2.448c4.416,0,7.729,2.16,10.368,3.889c0.48,0.336,0.625,0.96,0.288,1.488
		c-0.288,0.479-0.96,0.624-1.439,0.288c-2.641-1.729-5.521-3.553-9.217-3.553c-2.736,0-5.185,0.816-6.865,2.016
		c-1.68,1.249-2.64,2.881-2.64,4.609c0.048,1.68,0.815,2.928,2.496,4.08c1.68,1.152,4.176,1.968,7.2,2.544h0.097
		c3.36,0.624,6.336,1.584,8.544,3.072c2.209,1.44,3.696,3.648,3.696,6.337c0,2.688-1.535,5.088-3.792,6.721
		c-2.256,1.632-5.28,2.64-8.641,2.64c-5.137-0.048-9.601-2.64-12.385-4.849C353.835,209.981,353.787,209.309,354.123,208.877z"/>
	<linearGradient id="SVGID_5_" gradientUnits="userSpaceOnUse" x1="387.0156" y1="213.9893" x2="413.0841" y2="182.9221">
		<stop  offset="0" style="stop-color:#8700E7"/>
		<stop  offset="0.0358" style="stop-color:#8C06E0"/>
		<stop  offset="0.0894" style="stop-color:#9918CB"/>
		<stop  offset="0.1541" style="stop-color:#B034AA"/>
		<stop  offset="0.2275" style="stop-color:#CE5B7B"/>
		<stop  offset="0.3067" style="stop-color:#F58D41"/>
		<stop  offset="0.4479" style="stop-color:#FF9933"/>
		<stop  offset="0.5951" style="stop-color:#FFB55C"/>
		<stop  offset="0.7485" style="stop-color:#FF6903"/>
		<stop  offset="0.8773" style="stop-color:#957AB7"/>
		<stop  offset="0.9816" style="stop-color:#1794FF"/>
	</linearGradient>
	<path class="st6" d="M387.675,182.859c0-0.672,0.528-1.2,1.152-1.2c0.672,0,1.2,0.528,1.2,1.2V202.3l20.306-20.306
		c0.48-0.432,1.248-0.432,1.632,0c0.48,0.432,0.48,1.2,0,1.681L399.1,196.54l13.153,16.706c0.385,0.527,0.288,1.2-0.191,1.68
		c-0.24,0.192-0.48,0.24-0.769,0.24c-0.336,0-0.624-0.096-0.864-0.432L397.42,198.22l-7.393,7.393v8.4
		c0,0.624-0.528,1.152-1.2,1.152c-0.624,0-1.152-0.528-1.152-1.152V182.859z"/>
	<linearGradient id="SVGID_6_" gradientUnits="userSpaceOnUse" x1="415.0547" y1="208.436" x2="431.9557" y2="188.2941">
		<stop  offset="0" style="stop-color:#8700E7"/>
		<stop  offset="0.0358" style="stop-color:#8C06E0"/>
		<stop  offset="0.0894" style="stop-color:#9918CB"/>
		<stop  offset="0.1541" style="stop-color:#B034AA"/>
		<stop  offset="0.2275" style="stop-color:#CE5B7B"/>
		<stop  offset="0.3067" style="stop-color:#F58D41"/>
		<stop  offset="0.4479" style="stop-color:#FF9933"/>
		<stop  offset="0.5951" style="stop-color:#FFB55C"/>
		<stop  offset="0.7485" style="stop-color:#FF6903"/>
		<stop  offset="0.8773" style="stop-color:#957AB7"/>
		<stop  offset="0.9816" style="stop-color:#1794FF"/>
	</linearGradient>
	<path class="st7" d="M422.331,182.714c0-0.624,0.528-1.151,1.152-1.151c0.672,0,1.2,0.527,1.2,1.151v31.299
		c0,0.624-0.528,1.152-1.2,1.152c-0.624,0-1.152-0.528-1.152-1.152V182.714z"/>
	<linearGradient id="SVGID_7_" gradientUnits="userSpaceOnUse" x1="434.4277" y1="212.6914" x2="451.3288" y2="192.5495">
		<stop  offset="0" style="stop-color:#8700E7"/>
		<stop  offset="0.0358" style="stop-color:#8C06E0"/>
		<stop  offset="0.0894" style="stop-color:#9918CB"/>
		<stop  offset="0.1541" style="stop-color:#B034AA"/>
		<stop  offset="0.2275" style="stop-color:#CE5B7B"/>
		<stop  offset="0.3067" style="stop-color:#F58D41"/>
		<stop  offset="0.4479" style="stop-color:#FF9933"/>
		<stop  offset="0.5951" style="stop-color:#FFB55C"/>
		<stop  offset="0.7485" style="stop-color:#FF6903"/>
		<stop  offset="0.8773" style="stop-color:#957AB7"/>
		<stop  offset="0.9816" style="stop-color:#1794FF"/>
	</linearGradient>
	<path class="st8" d="M437.882,215.166h-0.096c-0.624,0-1.152-0.528-1.152-1.152v-31.299c0-0.624,0.528-1.151,1.152-1.151
		c0.672,0,1.2,0.527,1.2,1.151v30.099h16.081c0.672,0,1.2,0.528,1.2,1.2c0,0.624-0.528,1.152-1.2,1.152H437.882z"/>
	<linearGradient id="SVGID_8_" gradientUnits="userSpaceOnUse" x1="461.4502" y1="212.6904" x2="478.3513" y2="192.5485">
		<stop  offset="0" style="stop-color:#8700E7"/>
		<stop  offset="0.0358" style="stop-color:#8C06E0"/>
		<stop  offset="0.0894" style="stop-color:#9918CB"/>
		<stop  offset="0.1541" style="stop-color:#B034AA"/>
		<stop  offset="0.2275" style="stop-color:#CE5B7B"/>
		<stop  offset="0.3067" style="stop-color:#F58D41"/>
		<stop  offset="0.4479" style="stop-color:#FF9933"/>
		<stop  offset="0.5951" style="stop-color:#FFB55C"/>
		<stop  offset="0.7485" style="stop-color:#FF6903"/>
		<stop  offset="0.8773" style="stop-color:#957AB7"/>
		<stop  offset="0.9816" style="stop-color:#1794FF"/>
	</linearGradient>
	<path class="st9" d="M464.905,215.166h-0.096c-0.624,0-1.152-0.528-1.152-1.152v-31.299c0-0.624,0.528-1.151,1.152-1.151
		c0.672,0,1.2,0.527,1.2,1.151v30.099h16.081c0.672,0,1.2,0.528,1.2,1.2c0,0.624-0.528,1.152-1.2,1.152H464.905z"/>
	<linearGradient id="SVGID_9_" gradientUnits="userSpaceOnUse" x1="490.6299" y1="211.4897" x2="512.4983" y2="185.428">
		<stop  offset="0" style="stop-color:#8700E7"/>
		<stop  offset="0.0358" style="stop-color:#8C06E0"/>
		<stop  offset="0.0894" style="stop-color:#9918CB"/>
		<stop  offset="0.1541" style="stop-color:#B034AA"/>
		<stop  offset="0.2275" style="stop-color:#CE5B7B"/>
		<stop  offset="0.3067" style="stop-color:#F58D41"/>
		<stop  offset="0.4479" style="stop-color:#FF9933"/>
		<stop  offset="0.5951" style="stop-color:#FFB55C"/>
		<stop  offset="0.7485" style="stop-color:#FF6903"/>
		<stop  offset="0.8773" style="stop-color:#957AB7"/>
		<stop  offset="0.9816" style="stop-color:#1794FF"/>
	</linearGradient>
	<path class="st10" d="M489.145,208.877c0.384-0.48,1.057-0.528,1.488-0.145c2.496,2.017,6.673,4.368,11.041,4.32
		c2.929,0,5.568-0.864,7.393-2.208c1.872-1.344,2.88-3.12,2.88-4.992c0-1.921-0.912-3.36-2.735-4.608
		c-1.824-1.2-4.513-2.112-7.777-2.736h-0.096c-3.12-0.576-5.856-1.44-7.921-2.832c-2.064-1.345-3.456-3.36-3.456-5.856
		c0-2.545,1.392-4.753,3.504-6.289s4.944-2.448,8.113-2.448c4.416,0,7.729,2.16,10.368,3.889c0.48,0.336,0.625,0.96,0.288,1.488
		c-0.288,0.479-0.96,0.624-1.439,0.288c-2.641-1.729-5.521-3.553-9.217-3.553c-2.736,0-5.185,0.816-6.865,2.016
		c-1.68,1.249-2.64,2.881-2.64,4.609c0.048,1.68,0.815,2.928,2.496,4.08c1.68,1.152,4.176,1.968,7.2,2.544h0.097
		c3.36,0.624,6.336,1.584,8.544,3.072c2.209,1.44,3.696,3.648,3.696,6.337c0,2.688-1.535,5.088-3.792,6.721
		c-2.256,1.632-5.28,2.64-8.641,2.64c-5.137-0.048-9.601-2.64-12.385-4.849C488.856,209.981,488.809,209.309,489.145,208.877z"/>
</g>
<g>
	<linearGradient id="SVGID_10_" gradientUnits="userSpaceOnUse" x1="160.4985" y1="266.79" x2="184.2637" y2="243.0248">
		<stop  offset="0" style="stop-color:#8700E7"/>
		<stop  offset="0.0358" style="stop-color:#8C06E0"/>
		<stop  offset="0.0894" style="stop-color:#9918CB"/>
		<stop  offset="0.1541" style="stop-color:#B034AA"/>
		<stop  offset="0.2275" style="stop-color:#CE5B7B"/>
		<stop  offset="0.3067" style="stop-color:#F58D41"/>
		<stop  offset="0.4479" style="stop-color:#FF9933"/>
		<stop  offset="0.5951" style="stop-color:#FFB55C"/>
		<stop  offset="0.7485" style="stop-color:#FF6903"/>
		<stop  offset="0.8773" style="stop-color:#957AB7"/>
		<stop  offset="0.9816" style="stop-color:#1794FF"/>
	</linearGradient>
	<path class="st12" d="M180.587,262.601c0-2.447-1.248-3.984-2.736-5.088c-1.487-1.057-3.264-1.583-3.888-1.681
		c-0.144-0.047-0.192-0.096-0.239-0.096h-8.162v13.298c0,0.623-0.527,1.152-1.199,1.152c-0.624,0-1.152-0.529-1.152-1.152v-31.299
		c0-0.576,0.48-1.104,1.057-1.152h0.096h0.145h9.36c5.28,0,9.553,4.272,9.553,9.601c0,3.841-2.257,7.152-5.521,8.689
		c0.145,0.096,0.288,0.144,0.48,0.24c2.207,1.247,4.512,3.696,4.512,7.487c0,1.969,0.192,3.17,0.432,3.889
		c0.192,0.576,0.433,0.768,0.48,0.816c0.528-0.049,1.104,0.24,1.297,0.768c0.144,0.625-0.145,1.297-0.769,1.537
		c-0.048,0-0.288,0.047-0.576,0.047h-0.097c-0.623,0-1.631-0.479-2.16-1.535C180.923,267.019,180.587,265.435,180.587,262.601z
		 M173.868,238.936h-8.306v14.497h8.065h0.433c3.888-0.097,7.057-3.312,7.057-7.249
		C181.117,242.152,177.851,238.936,173.868,238.936z"/>
	<linearGradient id="SVGID_11_" gradientUnits="userSpaceOnUse" x1="190.7192" y1="266.3506" x2="216.6446" y2="240.4252">
		<stop  offset="0" style="stop-color:#8700E7"/>
		<stop  offset="0.0358" style="stop-color:#8C06E0"/>
		<stop  offset="0.0894" style="stop-color:#9918CB"/>
		<stop  offset="0.1541" style="stop-color:#B034AA"/>
		<stop  offset="0.2275" style="stop-color:#CE5B7B"/>
		<stop  offset="0.3067" style="stop-color:#F58D41"/>
		<stop  offset="0.4479" style="stop-color:#FF9933"/>
		<stop  offset="0.5951" style="stop-color:#FFB55C"/>
		<stop  offset="0.7485" style="stop-color:#FF6903"/>
		<stop  offset="0.8773" style="stop-color:#957AB7"/>
		<stop  offset="0.9816" style="stop-color:#1794FF"/>
	</linearGradient>
	<path class="st13" d="M193.882,237.735c0-0.624,0.528-1.152,1.152-1.152h0.096h17.186c0.672,0,1.152,0.528,1.152,1.152
		c0,0.672-0.48,1.2-1.152,1.2h-16.081v13.297H210.3c0.623,0,1.152,0.528,1.152,1.2c0,0.624-0.529,1.151-1.152,1.151h-14.065v13.249
		h16.081c0.672,0,1.152,0.529,1.152,1.201c0,0.623-0.48,1.152-1.152,1.152h-17.137h-0.145h-0.096
		c-0.576-0.049-1.057-0.529-1.057-1.152V237.735z"/>
	<linearGradient id="SVGID_12_" gradientUnits="userSpaceOnUse" x1="221.1016" y1="265.5361" x2="245.1415" y2="241.4962">
		<stop  offset="0" style="stop-color:#8700E7"/>
		<stop  offset="0.0358" style="stop-color:#8C06E0"/>
		<stop  offset="0.0894" style="stop-color:#9918CB"/>
		<stop  offset="0.1541" style="stop-color:#B034AA"/>
		<stop  offset="0.2275" style="stop-color:#CE5B7B"/>
		<stop  offset="0.3067" style="stop-color:#F58D41"/>
		<stop  offset="0.4479" style="stop-color:#FF9933"/>
		<stop  offset="0.5951" style="stop-color:#FFB55C"/>
		<stop  offset="0.7485" style="stop-color:#FF6903"/>
		<stop  offset="0.8773" style="stop-color:#957AB7"/>
		<stop  offset="0.9816" style="stop-color:#1794FF"/>
	</linearGradient>
	<path class="st14" d="M220.81,263.897c0.384-0.48,1.056-0.527,1.488-0.145c2.496,2.018,6.672,4.369,11.041,4.32
		c2.928,0,5.568-0.863,7.393-2.207c1.871-1.344,2.879-3.121,2.879-4.992c0-1.922-0.912-3.361-2.736-4.609
		c-1.824-1.2-4.513-2.112-7.776-2.735h-0.096c-3.121-0.576-5.857-1.441-7.922-2.833c-2.063-1.345-3.455-3.36-3.455-5.856
		c0-2.545,1.392-4.752,3.504-6.289c2.111-1.535,4.944-2.447,8.112-2.447c4.417,0,7.729,2.16,10.369,3.888
		c0.48,0.337,0.625,0.96,0.289,1.488c-0.289,0.479-0.96,0.624-1.441,0.288c-2.64-1.729-5.521-3.553-9.217-3.553
		c-2.735,0-5.185,0.816-6.864,2.017c-1.68,1.248-2.641,2.88-2.641,4.608c0.049,1.68,0.816,2.928,2.496,4.08
		c1.681,1.152,4.177,1.969,7.201,2.545h0.096c3.36,0.623,6.337,1.584,8.545,3.072c2.208,1.439,3.696,3.647,3.696,6.337
		c0,2.688-1.535,5.088-3.792,6.721c-2.256,1.631-5.281,2.639-8.641,2.639c-5.137-0.047-9.602-2.639-12.386-4.848
		C220.522,265.001,220.474,264.329,220.81,263.897z"/>
	<linearGradient id="SVGID_13_" gradientUnits="userSpaceOnUse" x1="254.9604" y1="262.7734" x2="281.0208" y2="236.7131">
		<stop  offset="0" style="stop-color:#8700E7"/>
		<stop  offset="0.0358" style="stop-color:#8C06E0"/>
		<stop  offset="0.0894" style="stop-color:#9918CB"/>
		<stop  offset="0.1541" style="stop-color:#B034AA"/>
		<stop  offset="0.2275" style="stop-color:#CE5B7B"/>
		<stop  offset="0.3067" style="stop-color:#F58D41"/>
		<stop  offset="0.4479" style="stop-color:#FF9933"/>
		<stop  offset="0.5951" style="stop-color:#FFB55C"/>
		<stop  offset="0.7485" style="stop-color:#FF6903"/>
		<stop  offset="0.8773" style="stop-color:#957AB7"/>
		<stop  offset="0.9816" style="stop-color:#1794FF"/>
	</linearGradient>
	<path class="st15" d="M254.41,237.735c0-0.624,0.527-1.152,1.152-1.152c0.672,0,1.199,0.528,1.199,1.152v18.865
		c0,6.193,5.041,11.186,11.186,11.232c6.24-0.047,11.281-5.039,11.281-11.232v-18.865c0-0.624,0.527-1.152,1.15-1.152
		c0.674,0,1.201,0.528,1.201,1.152v18.865c0,7.488-6.098,13.586-13.633,13.586c-7.441,0-13.537-6.098-13.537-13.586V237.735z"/>
	<linearGradient id="SVGID_14_" gradientUnits="userSpaceOnUse" x1="290.084" y1="268.5469" x2="320.2219" y2="238.409">
		<stop  offset="0" style="stop-color:#8700E7"/>
		<stop  offset="0.0358" style="stop-color:#8C06E0"/>
		<stop  offset="0.0894" style="stop-color:#9918CB"/>
		<stop  offset="0.1541" style="stop-color:#B034AA"/>
		<stop  offset="0.2275" style="stop-color:#CE5B7B"/>
		<stop  offset="0.3067" style="stop-color:#F58D41"/>
		<stop  offset="0.4479" style="stop-color:#FF9933"/>
		<stop  offset="0.5951" style="stop-color:#FFB55C"/>
		<stop  offset="0.7485" style="stop-color:#FF6903"/>
		<stop  offset="0.8773" style="stop-color:#957AB7"/>
		<stop  offset="0.9816" style="stop-color:#1794FF"/>
	</linearGradient>
	<path class="st16" d="M316.957,241.383l-10.754,14.931c-0.24,0.383-0.623,0.527-0.961,0.527h-0.096
		c-0.432,0-0.768-0.145-1.008-0.527l-10.752-14.882v27.603c0,0.623-0.529,1.152-1.152,1.152c-0.672,0-1.201-0.529-1.201-1.152
		v-31.106c0-0.385,0.193-0.721,0.48-0.912c0-0.049,0.049-0.049,0.096-0.097c0.529-0.336,1.248-0.239,1.633,0.288l11.953,16.562
		l11.904-16.562c0.336-0.527,1.105-0.624,1.633-0.288c0.145,0.144,0.24,0.24,0.336,0.384c0.096,0.192,0.191,0.433,0.191,0.625
		v31.106c0,0.623-0.527,1.152-1.152,1.152c-0.672,0-1.15-0.529-1.15-1.152V241.383z"/>
	<linearGradient id="SVGID_15_" gradientUnits="userSpaceOnUse" x1="325.9824" y1="266.3496" x2="351.9079" y2="240.4241">
		<stop  offset="0" style="stop-color:#8700E7"/>
		<stop  offset="0.0358" style="stop-color:#8C06E0"/>
		<stop  offset="0.0894" style="stop-color:#9918CB"/>
		<stop  offset="0.1541" style="stop-color:#B034AA"/>
		<stop  offset="0.2275" style="stop-color:#CE5B7B"/>
		<stop  offset="0.3067" style="stop-color:#F58D41"/>
		<stop  offset="0.4479" style="stop-color:#FF9933"/>
		<stop  offset="0.5951" style="stop-color:#FFB55C"/>
		<stop  offset="0.7485" style="stop-color:#FF6903"/>
		<stop  offset="0.8773" style="stop-color:#957AB7"/>
		<stop  offset="0.9816" style="stop-color:#1794FF"/>
	</linearGradient>
	<path class="st17" d="M329.146,237.735c0-0.624,0.527-1.152,1.152-1.152h0.096h17.186c0.672,0,1.152,0.528,1.152,1.152
		c0,0.672-0.48,1.2-1.152,1.2h-16.082v13.297h14.066c0.623,0,1.15,0.528,1.15,1.2c0,0.624-0.527,1.151-1.15,1.151h-14.066v13.249
		h16.082c0.672,0,1.152,0.529,1.152,1.201c0,0.623-0.48,1.152-1.152,1.152h-17.139h-0.143h-0.096
		c-0.576-0.049-1.057-0.529-1.057-1.152V237.735z"/>
</g>
</svg>
