<?xml version="1.0" encoding="utf-8"?>
<!-- Generator: Adobe Illustrator 14.0.0, SVG Export Plug-In . SVG Version: 6.00 Build 43363)  -->
<!DOCTYPE svg PUBLIC "-//W3C//DTD SVG 1.1//EN" "http://www.w3.org/Graphics/SVG/1.1/DTD/svg11.dtd">
<svg version="1.1" id="Layer_1" xmlns="http://www.w3.org/2000/svg" xmlns:xlink="http://www.w3.org/1999/xlink" x="0px" y="0px"
	 width="640px" height="480px" viewBox="0 0 640 480" style="enable-background:new 0 0 640 480;" xml:space="preserve">
<style type="text/css">
<![CDATA[
	.st0{fill:#29ABE2;}
	.st1{fill:#FFFFFF;}
	.st2{fill:#0000FF;}
]]>
</style>
<rect x="-789.079" y="-6.001" class="st2" width="640" height="479.999"/>
<rect x="-194.377" y="187.499" class="st0" width="13.501" height="13.5"/>
<rect x="-194.377" y="159.999" class="st0" width="13.501" height="13.5"/>
<rect x="-194.377" y="216.499" class="st0" width="13.501" height="13.5"/>
<rect x="-194.377" y="242.499" class="st0" width="13.501" height="36.499"/>
<rect x="-194.377" y="293.498" class="st0" width="13.501" height="64"/>
<rect x="-194.377" y="371.498" class="st0" width="13.501" height="94.5"/>
<g>
	<path class="st1" d="M-704.919-547.896v479.999h640v-479.999H-704.919z M-648.705-310.724h13.501v64h-13.501V-310.724z
		 M-635.204-113.224h-13.5v-13.5h13.5V-113.224z M-635.204-140.724h-13.5v-13.5h13.5V-140.724z M-635.204-169.724h-13.5v-13.5h13.5
		V-169.724z M-635.203-195.724h-13.501v-36.5h13.501V-195.724z M-635.203-324.724h-13.501v-94.499h13.501V-324.724z
		 M-457.219-458.058l-13.057,31.011c-0.193,0.432-0.625,0.721-0.961,0.768h-0.096h-0.145c-0.191,0-0.385-0.047-0.576-0.191
		c-0.047-0.049-0.145-0.096-0.191-0.192c-0.049-0.048-0.145-0.192-0.191-0.288c0-0.048,0-0.096-0.049-0.144l-8.545-20.306
		l-8.592,20.306c0,0.096-0.049,0.192-0.098,0.239c-0.047,0.145-0.143,0.24-0.238,0.336c-0.049,0-0.098,0.049-0.098,0.049
		c-0.191,0.145-0.432,0.191-0.672,0.191c-0.287,0-0.527-0.096-0.719-0.24l-0.098-0.096l-0.047-0.048
		c-0.145-0.144-0.24-0.336-0.289-0.575l-12.961-30.819c-0.287-0.576,0-1.296,0.576-1.536c0.576-0.288,1.297,0,1.537,0.576l12,28.562
		l8.545-20.21c0.24-0.433,0.672-0.72,1.104-0.72c0.529,0,0.961,0.287,1.201,0.72l8.496,20.21l12.002-28.562
		c0.287-0.576,0.912-0.864,1.584-0.576C-457.219-459.354-456.932-458.634-457.219-458.058z M-434.662-444.232
		c0.625,0,1.152,0.528,1.152,1.2c0,0.624-0.527,1.151-1.152,1.151h-14.064v13.25h16.082c0.672,0,1.15,0.527,1.15,1.2
		c0,0.624-0.479,1.151-1.15,1.151h-17.139h-0.145h-0.096c-0.576-0.047-1.055-0.527-1.055-1.151v-31.299
		c0-0.624,0.527-1.152,1.15-1.152h0.098h17.186c0.672,0,1.15,0.528,1.15,1.152c0,0.672-0.479,1.2-1.15,1.2h-16.082v13.297H-434.662z
		 M-404.182-426.279h-17.186h-0.096c-0.625,0-1.152-0.527-1.152-1.151v-31.299c0-0.624,0.527-1.152,1.152-1.152
		c0.672,0,1.199,0.528,1.199,1.152v30.099h16.082c0.672,0,1.199,0.527,1.199,1.2C-402.982-426.807-403.51-426.279-404.182-426.279z
		 M-381.526-428.631c3.553,0,6.816-1.152,9.312-3.265c0.576-0.384,1.344-0.288,1.68,0.288c0.48,0.432,0.385,1.297-0.145,1.68
		c-2.928,2.257-6.721,3.648-10.848,3.648c-9.649,0-17.474-7.584-17.474-16.945c0-9.553,7.824-17.09,17.474-17.137
		c4.127,0,7.92,1.439,10.848,3.695c0.529,0.433,0.625,1.248,0.193,1.681c-0.385,0.576-1.152,0.624-1.633,0.24
		c-2.592-2.017-5.855-3.265-9.408-3.265c-8.401,0-15.122,6.576-15.122,14.785C-396.648-435.207-389.928-428.631-381.526-428.631z
		 M-346.726-426.279c-9.074,0-16.178-7.633-16.227-17.041c0.049-9.408,7.152-17.041,16.227-17.041
		c8.977,0,16.033,7.633,16.08,17.041C-330.692-433.912-337.749-426.279-346.726-426.279z M-294.356-427.431
		c0,0.624-0.529,1.151-1.152,1.151c-0.672,0-1.152-0.527-1.152-1.151v-27.65l-10.754,14.929c-0.238,0.385-0.623,0.528-0.959,0.528
		h-0.096c-0.432,0-0.77-0.144-1.008-0.528l-10.754-14.881v27.603c0,0.624-0.527,1.151-1.152,1.151c-0.672,0-1.199-0.527-1.199-1.151
		v-31.106c0-0.385,0.191-0.721,0.48-0.912c0-0.049,0.047-0.049,0.096-0.097c0.527-0.336,1.248-0.239,1.631,0.288l11.953,16.562
		l11.906-16.562c0.336-0.527,1.104-0.624,1.631-0.288c0.145,0.144,0.24,0.24,0.336,0.384c0.098,0.192,0.193,0.433,0.193,0.625
		V-427.431z M-268.054-444.232c0.623,0,1.152,0.528,1.152,1.2c0,0.624-0.529,1.151-1.152,1.151h-14.064v13.25h16.08
		c0.672,0,1.152,0.527,1.152,1.2c0,0.624-0.48,1.151-1.152,1.151h-17.137h-0.145h-0.096c-0.576-0.047-1.057-0.527-1.057-1.151
		v-31.299c0-0.624,0.529-1.152,1.152-1.152h0.096h17.186c0.672,0,1.152,0.528,1.152,1.152c0,0.672-0.48,1.2-1.152,1.2h-16.08v13.297
		H-268.054z"/>
	<path class="st1" d="M-346.726-457.961c-7.633,0-13.873,6.336-13.873,14.641c0,8.209,6.24,14.689,13.873,14.689
		c7.393,0,13.633-6.48,13.682-14.689C-333.093-451.625-339.333-457.961-346.726-457.961z"/>
</g>
<path class="st1" d="M21.081-551.896v479.999h31.548v-94.5h13.5v94.5h548.999v-94.5h13.502v94.5h32.451v-479.999H21.081z
	 M207.326-391.91h13.5v13.5h-13.5V-391.91z M207.326-364.409h13.5v13.5h-13.5V-364.409z M207.326-335.409h13.5v13.5h-13.5V-335.409z
	 M120.629-358.897h13.5v13.5h-13.5V-358.897z M120.629-330.397h13.5v13.5h-13.5V-330.397z M120.629-302.397h13.5v13.5h-13.5
	V-302.397z M52.629-542.896h13.5v13.5h-13.5V-542.896z M52.629-514.396h13.5v13.5h-13.5V-514.396z M52.629-486.396h13.5v13.5h-13.5
	V-486.396z M66.129-174.897h-13.5v-131.5h13.5V-174.897z M66.129-317.397h-13.5v-94.499h13.5V-317.397z M66.129-423.896h-13.5v-36.5
	h13.5V-423.896z M134.129-161.397h-13.5v-64h13.5V-161.397z M134.13-239.897h-13.501v-36.5h13.501V-239.897z M207.325-258.409
	h13.501v64h-13.501V-258.409z M220.827-85.909h-13.501v-94.5h13.501V-85.909z M220.827-272.909h-13.501v-36.5h13.501V-272.909z
	 M563.796-169.897h-13.5v-94.5h13.5V-169.897z M563.796-278.397h-13.502v-64h13.502V-278.397z M563.796-356.897h-13.5v-36.499h13.5
	V-356.897z M563.796-405.896h-13.5v-13.5h13.5V-405.896z M563.796-434.896h-13.5v-13.5h13.5V-434.896z M563.796-462.396h-13.5v-13.5
	h13.5V-462.396z M628.63-174.897h-13.502v-131.5h13.502V-174.897z M628.63-317.397h-13.502v-94.499h13.502V-317.397z"/>
<rect x="978.286" y="640.572" class="st0" width="640" height="480"/>
<path class="st1" d="M1079.286,650.4c0,23.472-2.463,42.511-5.5,42.511s-5.5-19.039-5.5-42.511c0-23.47,2.463-42.508,5.5-42.508
	S1079.286,626.931,1079.286,650.4z"/>
<path class="st1" d="M1003.411,650.4c0,23.472-2.463,42.511-5.5,42.511s-5.5-19.039-5.5-42.511c0-23.47,2.463-42.508,5.5-42.508
	S1003.411,626.931,1003.411,650.4z"/>
<path class="st1" d="M1041.349,650.4c0,23.472-2.463,42.511-5.5,42.511s-5.5-19.039-5.5-42.511c0-23.47,2.463-42.508,5.5-42.508
	S1041.349,626.931,1041.349,650.4z"/>
<path class="st1" d="M1268.974,650.4c0,23.472-2.463,42.511-5.5,42.511s-5.5-19.039-5.5-42.511c0-23.47,2.463-42.508,5.5-42.508
	S1268.974,626.931,1268.974,650.4z"/>
<path class="st1" d="M1344.849,650.4c0,23.472-2.463,42.511-5.5,42.511s-5.5-19.039-5.5-42.511c0-23.47,2.463-42.508,5.5-42.508
	S1344.849,626.931,1344.849,650.4z"/>
<path class="st1" d="M1306.837,657.347c-0.496,23.153-3.328,38.821-6.324,34.986c-2.996-3.831-5.023-25.719-4.527-48.876
	c0.496-23.152,3.328-38.824,6.324-34.988C1305.306,612.303,1307.333,634.188,1306.837,657.347z"/>
<path class="st1" d="M1458.661,650.4c0,23.472-2.463,42.511-5.5,42.511s-5.5-19.039-5.5-42.511c0-23.47,2.463-42.508,5.5-42.508
	S1458.661,626.931,1458.661,650.4z"/>
<path class="st1" d="M1534.536,650.4c0,23.472-2.463,42.511-5.5,42.511s-5.5-19.039-5.5-42.511c0-23.47,2.463-42.508,5.5-42.508
	S1534.536,626.931,1534.536,650.4z"/>
<path class="st1" d="M1420.724,650.4c0,23.472-2.463,42.511-5.5,42.511s-5.5-19.039-5.5-42.511c0-23.47,2.463-42.508,5.5-42.508
	S1420.724,626.931,1420.724,650.4z"/>
<path class="st1" d="M1193.099,650.4c0,23.472-2.463,42.511-5.5,42.511s-5.5-19.039-5.5-42.511c0-23.47,2.463-42.508,5.5-42.508
	S1193.099,626.931,1193.099,650.4z"/>
<path class="st1" d="M1231.036,650.4c0,23.472-2.463,42.511-5.5,42.511s-5.5-19.039-5.5-42.511c0-23.47,2.463-42.508,5.5-42.508
	S1231.036,626.931,1231.036,650.4z"/>
<path class="st1" d="M1382.786,650.4c0,23.472-2.463,42.511-5.5,42.511s-5.5-19.039-5.5-42.511c0-23.47,2.463-42.508,5.5-42.508
	S1382.786,626.931,1382.786,650.4z"/>
<path class="st1" d="M1117.224,650.4c0,23.472-2.463,42.511-5.5,42.511s-5.5-19.039-5.5-42.511c0-23.47,2.463-42.508,5.5-42.508
	S1117.224,626.931,1117.224,650.4z"/>
<path class="st1" d="M1155.161,650.4c0,23.472-2.463,42.511-5.5,42.511s-5.5-19.039-5.5-42.511c0-23.47,2.463-42.508,5.5-42.508
	S1155.161,626.931,1155.161,650.4z"/>
<path class="st1" d="M1496.599,650.4c0,23.472-2.463,42.511-5.5,42.511s-5.5-19.039-5.5-42.511c0-23.47,2.463-42.508,5.5-42.508
	S1496.599,626.931,1496.599,650.4z"/>
<path class="st1" d="M1572.474,650.4c0,23.472-2.463,42.511-5.5,42.511s-5.5-19.039-5.5-42.511c0-23.47,2.463-42.508,5.5-42.508
	S1572.474,626.931,1572.474,650.4z"/>
<rect x="986.466" y="-837" class="st0" width="640" height="480"/>
<circle class="st1" cx="1101.466" cy="-440" r="5.5"/>
<circle class="st1" cx="1000.466" cy="-468" r="5.5"/>
<circle class="st1" cx="1147.466" cy="-387" r="5.5"/>
<circle class="st1" cx="1460.466" cy="-413.5" r="5.5"/>
<circle class="st1" cx="1139.466" cy="-430" r="5.5"/>
<circle class="st1" cx="1500.466" cy="-427.5" r="5.5"/>
<circle class="st1" cx="1017.966" cy="-425" r="5.5"/>
<circle class="st1" cx="1109.466" cy="-373" r="5.5"/>
<circle class="st1" cx="1069.966" cy="-419.5" r="5.5"/>
<circle class="st1" cx="1010.466" cy="-374.5" r="5.5"/>
<circle class="st1" cx="1103.466" cy="-404" r="5.5"/>
<circle class="st1" cx="1063.466" cy="-375" r="5.5"/>
<circle class="st1" cx="1234.966" cy="-435" r="5.5"/>
<circle class="st1" cx="1394.966" cy="-373.5" r="5.5"/>
<circle class="st1" cx="1617.466" cy="-367" r="5.5"/>
<circle class="st1" cx="1611.466" cy="-418" r="5.5"/>
<circle class="st1" cx="1314.466" cy="-430" r="5.5"/>
<circle class="st1" cx="1399.966" cy="-402" r="5.5"/>
<circle class="st1" cx="1171.466" cy="-407.5" r="5.5"/>
<circle class="st1" cx="1000.466" cy="-399.5" r="5.5"/>
<circle class="st1" cx="1223.466" cy="-402" r="5.5"/>
<circle class="st1" cx="1454.966" cy="-368" r="5.5"/>
<circle class="st1" cx="1432.466" cy="-396" r="5.5"/>
<circle class="st1" cx="1517.466" cy="-369" r="5.5"/>
<circle class="st1" cx="1266.966" cy="-407" r="5.5"/>
<circle class="st1" cx="1574.466" cy="-372" r="5.5"/>
<circle class="st1" cx="1574.466" cy="-416" r="5.5"/>
<circle class="st1" cx="1514.466" cy="-398" r="5.5"/>
<circle class="st1" cx="1544.466" cy="-414" r="5.5"/>
<circle class="st1" cx="1284.466" cy="-372.5" r="5.5"/>
<circle class="st1" cx="1337.466" cy="-373" r="5.5"/>
<circle class="st1" cx="1315.966" cy="-397" r="5.5"/>
<circle class="st1" cx="1484.466" cy="-382.5" r="5.5"/>
<circle class="st1" cx="1353.966" cy="-397" r="5.5"/>
<circle class="st1" cx="1604.466" cy="-449" r="5.5"/>
<circle class="st1" cx="1191.466" cy="-374.5" r="5.5"/>
<circle class="st1" cx="1244.466" cy="-375" r="5.5"/>
<circle class="st1" cx="1030.466" cy="-393" r="5.5"/>
<circle class="st1" cx="1380.966" cy="-431" r="5.5"/>
<circle class="st1" cx="1433.966" cy="-431.5" r="5.5"/>
<circle class="st1" cx="1544.966" cy="-386.5" r="5.5"/>
<circle class="st1" cx="1597.966" cy="-387" r="5.5"/>
<rect x="987" y="-356" class="st0" width="640" height="480"/>
<circle class="st1" cx="1078.875" cy="-350.5" r="5.5"/>
<circle class="st1" cx="1003" cy="-350.5" r="5.5"/>
<circle class="st1" cx="1040.938" cy="-350.5" r="5.5"/>
<circle class="st1" cx="1268.562" cy="-350.5" r="5.5"/>
<circle class="st1" cx="1610" cy="-350.5" r="5.5"/>
<circle class="st1" cx="1344.438" cy="-350.5" r="5.5"/>
<circle class="st1" cx="1306.5" cy="-350.5" r="5.5"/>
<circle class="st1" cx="1458.25" cy="-350.5" r="5.5"/>
<circle class="st1" cx="1534.125" cy="-350.5" r="5.5"/>
<circle class="st1" cx="1420.312" cy="-350.5" r="5.5"/>
<circle class="st1" cx="1192.688" cy="-350.5" r="5.5"/>
<circle class="st1" cx="1230.625" cy="-350.5" r="5.5"/>
<circle class="st1" cx="1382.375" cy="-350.5" r="5.5"/>
<circle class="st1" cx="1116.812" cy="-350.5" r="5.5"/>
<circle class="st1" cx="1154.75" cy="-350.5" r="5.5"/>
<circle class="st1" cx="1496.188" cy="-350.5" r="5.5"/>
<circle class="st1" cx="1572.062" cy="-350.5" r="5.5"/>
<circle class="st1" cx="1078.875" cy="-317" r="5.5"/>
<circle class="st1" cx="1003" cy="-317" r="5.5"/>
<circle class="st1" cx="1040.938" cy="-317" r="5.5"/>
<circle class="st1" cx="1268.562" cy="-317" r="5.5"/>
<circle class="st1" cx="1610" cy="-317" r="5.5"/>
<circle class="st1" cx="1344.438" cy="-317" r="5.5"/>
<circle class="st1" cx="1306.5" cy="-317" r="5.5"/>
<circle class="st1" cx="1458.25" cy="-317" r="5.5"/>
<circle class="st1" cx="1534.125" cy="-317" r="5.5"/>
<circle class="st1" cx="1420.312" cy="-317" r="5.5"/>
<circle class="st1" cx="1192.688" cy="-317" r="5.5"/>
<circle class="st1" cx="1230.625" cy="-317" r="5.5"/>
<circle class="st1" cx="1382.375" cy="-317" r="5.5"/>
<circle class="st1" cx="1116.812" cy="-317" r="5.5"/>
<circle class="st1" cx="1154.75" cy="-317" r="5.5"/>
<circle class="st1" cx="1496.188" cy="-317" r="5.5"/>
<circle class="st1" cx="1572.062" cy="-317" r="5.5"/>
<circle class="st1" cx="1078.875" cy="-283.5" r="5.5"/>
<circle class="st1" cx="1003" cy="-283.5" r="5.5"/>
<circle class="st1" cx="1040.938" cy="-283.5" r="5.5"/>
<circle class="st1" cx="1268.562" cy="-283.5" r="5.5"/>
<circle class="st1" cx="1610" cy="-283.5" r="5.5"/>
<circle class="st1" cx="1344.438" cy="-283.5" r="5.5"/>
<circle class="st1" cx="1306.5" cy="-283.5" r="5.5"/>
<circle class="st1" cx="1458.25" cy="-283.5" r="5.5"/>
<circle class="st1" cx="1534.125" cy="-283.5" r="5.5"/>
<circle class="st1" cx="1420.312" cy="-283.5" r="5.5"/>
<circle class="st1" cx="1192.688" cy="-283.5" r="5.5"/>
<circle class="st1" cx="1230.625" cy="-283.5" r="5.5"/>
<circle class="st1" cx="1382.375" cy="-283.5" r="5.5"/>
<circle class="st1" cx="1116.812" cy="-283.5" r="5.5"/>
<circle class="st1" cx="1154.75" cy="-283.5" r="5.5"/>
<circle class="st1" cx="1496.188" cy="-283.5" r="5.5"/>
<circle class="st1" cx="1572.062" cy="-283.5" r="5.5"/>
<circle class="st1" cx="1078.875" cy="-250" r="5.5"/>
<circle class="st1" cx="1003" cy="-250" r="5.5"/>
<circle class="st1" cx="1040.938" cy="-250" r="5.5"/>
<circle class="st1" cx="1268.562" cy="-250" r="5.5"/>
<circle class="st1" cx="1610" cy="-250" r="5.5"/>
<circle class="st1" cx="1344.438" cy="-250" r="5.5"/>
<circle class="st1" cx="1306.5" cy="-250" r="5.5"/>
<circle class="st1" cx="1458.25" cy="-250" r="5.5"/>
<circle class="st1" cx="1534.125" cy="-250" r="5.5"/>
<circle class="st1" cx="1420.312" cy="-250" r="5.5"/>
<circle class="st1" cx="1192.688" cy="-250" r="5.5"/>
<circle class="st1" cx="1230.625" cy="-250" r="5.5"/>
<circle class="st1" cx="1382.375" cy="-250" r="5.5"/>
<circle class="st1" cx="1116.812" cy="-250" r="5.5"/>
<circle class="st1" cx="1154.75" cy="-250" r="5.5"/>
<circle class="st1" cx="1496.188" cy="-250" r="5.5"/>
<circle class="st1" cx="1572.062" cy="-250" r="5.5"/>
<circle class="st1" cx="1079.812" cy="-216.5" r="5.5"/>
<circle class="st1" cx="1003.938" cy="-216.5" r="5.5"/>
<circle class="st1" cx="1041.875" cy="-216.5" r="5.5"/>
<circle class="st1" cx="1269.5" cy="-216.5" r="5.5"/>
<circle class="st1" cx="1610.938" cy="-216.5" r="5.5"/>
<circle class="st1" cx="1345.375" cy="-216.5" r="5.5"/>
<circle class="st1" cx="1307.438" cy="-216.5" r="5.5"/>
<circle class="st1" cx="1459.188" cy="-216.5" r="5.5"/>
<circle class="st1" cx="1535.062" cy="-216.5" r="5.5"/>
<circle class="st1" cx="1421.25" cy="-216.5" r="5.5"/>
<circle class="st1" cx="1193.625" cy="-216.5" r="5.5"/>
<circle class="st1" cx="1231.562" cy="-216.5" r="5.5"/>
<circle class="st1" cx="1383.312" cy="-216.5" r="5.5"/>
<circle class="st1" cx="1117.75" cy="-216.5" r="5.5"/>
<circle class="st1" cx="1155.688" cy="-216.5" r="5.5"/>
<circle class="st1" cx="1497.125" cy="-216.5" r="5.5"/>
<circle class="st1" cx="1573" cy="-216.5" r="5.5"/>
<circle class="st1" cx="1079.812" cy="-183" r="5.5"/>
<circle class="st1" cx="1003.938" cy="-183" r="5.5"/>
<circle class="st1" cx="1041.875" cy="-183" r="5.5"/>
<circle class="st1" cx="1269.5" cy="-183" r="5.5"/>
<circle class="st1" cx="1610.938" cy="-183" r="5.5"/>
<circle class="st1" cx="1345.375" cy="-183" r="5.5"/>
<circle class="st1" cx="1307.438" cy="-183" r="5.5"/>
<circle class="st1" cx="1459.188" cy="-183" r="5.5"/>
<circle class="st1" cx="1535.062" cy="-183" r="5.5"/>
<circle class="st1" cx="1421.25" cy="-183" r="5.5"/>
<circle class="st1" cx="1193.625" cy="-183" r="5.5"/>
<circle class="st1" cx="1231.562" cy="-183" r="5.5"/>
<circle class="st1" cx="1383.312" cy="-183" r="5.5"/>
<circle class="st1" cx="1117.75" cy="-183" r="5.5"/>
<circle class="st1" cx="1155.688" cy="-183" r="5.5"/>
<circle class="st1" cx="1497.125" cy="-183" r="5.5"/>
<circle class="st1" cx="1573" cy="-183" r="5.5"/>
<circle class="st1" cx="1079.812" cy="-149.5" r="5.5"/>
<circle class="st1" cx="1003.938" cy="-149.5" r="5.5"/>
<circle class="st1" cx="1041.875" cy="-149.5" r="5.5"/>
<circle class="st1" cx="1269.5" cy="-149.5" r="5.5"/>
<circle class="st1" cx="1610.938" cy="-149.5" r="5.5"/>
<circle class="st1" cx="1345.375" cy="-149.5" r="5.5"/>
<circle class="st1" cx="1307.438" cy="-149.5" r="5.5"/>
<circle class="st1" cx="1459.188" cy="-149.5" r="5.5"/>
<circle class="st1" cx="1535.062" cy="-149.5" r="5.5"/>
<circle class="st1" cx="1421.25" cy="-149.5" r="5.5"/>
<circle class="st1" cx="1193.625" cy="-149.5" r="5.5"/>
<circle class="st1" cx="1231.562" cy="-149.5" r="5.5"/>
<circle class="st1" cx="1383.312" cy="-149.5" r="5.5"/>
<circle class="st1" cx="1117.75" cy="-149.5" r="5.5"/>
<circle class="st1" cx="1155.688" cy="-149.5" r="5.5"/>
<circle class="st1" cx="1497.125" cy="-149.5" r="5.5"/>
<circle class="st1" cx="1573" cy="-149.5" r="5.5"/>
<circle class="st1" cx="1079.812" cy="-116" r="5.5"/>
<circle class="st1" cx="1003.938" cy="-116" r="5.5"/>
<circle class="st1" cx="1041.875" cy="-116" r="5.5"/>
<circle class="st1" cx="1269.5" cy="-116" r="5.5"/>
<circle class="st1" cx="1610.938" cy="-116" r="5.5"/>
<circle class="st1" cx="1345.375" cy="-116" r="5.5"/>
<circle class="st1" cx="1307.438" cy="-116" r="5.5"/>
<circle class="st1" cx="1459.188" cy="-116" r="5.5"/>
<circle class="st1" cx="1535.062" cy="-116" r="5.5"/>
<circle class="st1" cx="1421.25" cy="-116" r="5.5"/>
<circle class="st1" cx="1193.625" cy="-116" r="5.5"/>
<circle class="st1" cx="1231.562" cy="-116" r="5.5"/>
<circle class="st1" cx="1383.312" cy="-116" r="5.5"/>
<circle class="st1" cx="1117.75" cy="-116" r="5.5"/>
<circle class="st1" cx="1155.688" cy="-116" r="5.5"/>
<circle class="st1" cx="1497.125" cy="-116" r="5.5"/>
<circle class="st1" cx="1573" cy="-116" r="5.5"/>
<circle class="st1" cx="1079.875" cy="-82.5" r="5.5"/>
<circle class="st1" cx="1004" cy="-82.5" r="5.5"/>
<circle class="st1" cx="1041.938" cy="-82.5" r="5.5"/>
<circle class="st1" cx="1269.562" cy="-82.5" r="5.5"/>
<circle class="st1" cx="1611" cy="-82.5" r="5.5"/>
<circle class="st1" cx="1345.438" cy="-82.5" r="5.5"/>
<circle class="st1" cx="1307.5" cy="-82.5" r="5.5"/>
<circle class="st1" cx="1459.25" cy="-82.5" r="5.5"/>
<circle class="st1" cx="1535.125" cy="-82.5" r="5.5"/>
<circle class="st1" cx="1421.312" cy="-82.5" r="5.5"/>
<circle class="st1" cx="1193.688" cy="-82.5" r="5.5"/>
<circle class="st1" cx="1231.625" cy="-82.5" r="5.5"/>
<circle class="st1" cx="1383.375" cy="-82.5" r="5.5"/>
<circle class="st1" cx="1117.812" cy="-82.5" r="5.5"/>
<circle class="st1" cx="1155.75" cy="-82.5" r="5.5"/>
<circle class="st1" cx="1497.188" cy="-82.5" r="5.5"/>
<circle class="st1" cx="1573.062" cy="-82.5" r="5.5"/>
<circle class="st1" cx="1079.875" cy="-49" r="5.5"/>
<circle class="st1" cx="1004" cy="-49" r="5.5"/>
<circle class="st1" cx="1041.938" cy="-49" r="5.5"/>
<circle class="st1" cx="1269.562" cy="-49" r="5.5"/>
<circle class="st1" cx="1611" cy="-49" r="5.5"/>
<circle class="st1" cx="1345.438" cy="-49" r="5.5"/>
<circle class="st1" cx="1307.5" cy="-49" r="5.5"/>
<circle class="st1" cx="1459.25" cy="-49" r="5.5"/>
<circle class="st1" cx="1535.125" cy="-49" r="5.5"/>
<circle class="st1" cx="1421.312" cy="-49" r="5.5"/>
<circle class="st1" cx="1193.688" cy="-49" r="5.5"/>
<circle class="st1" cx="1231.625" cy="-49" r="5.5"/>
<circle class="st1" cx="1383.375" cy="-49" r="5.5"/>
<circle class="st1" cx="1117.812" cy="-49" r="5.5"/>
<circle class="st1" cx="1155.75" cy="-49" r="5.5"/>
<circle class="st1" cx="1497.188" cy="-49" r="5.5"/>
<circle class="st1" cx="1573.062" cy="-49" r="5.5"/>
<circle class="st1" cx="1079.875" cy="-15.5" r="5.5"/>
<circle class="st1" cx="1004" cy="-15.5" r="5.5"/>
<circle class="st1" cx="1041.938" cy="-15.5" r="5.5"/>
<circle class="st1" cx="1269.562" cy="-15.5" r="5.5"/>
<circle class="st1" cx="1611" cy="-15.5" r="5.5"/>
<circle class="st1" cx="1345.438" cy="-15.5" r="5.5"/>
<circle class="st1" cx="1307.5" cy="-15.5" r="5.5"/>
<circle class="st1" cx="1459.25" cy="-15.5" r="5.5"/>
<circle class="st1" cx="1535.125" cy="-15.5" r="5.5"/>
<circle class="st1" cx="1421.312" cy="-15.5" r="5.5"/>
<circle class="st1" cx="1193.688" cy="-15.5" r="5.5"/>
<circle class="st1" cx="1231.625" cy="-15.5" r="5.5"/>
<circle class="st1" cx="1383.375" cy="-15.5" r="5.5"/>
<circle class="st1" cx="1117.812" cy="-15.5" r="5.5"/>
<circle class="st1" cx="1155.75" cy="-15.5" r="5.5"/>
<circle class="st1" cx="1497.188" cy="-15.5" r="5.5"/>
<circle class="st1" cx="1573.062" cy="-15.5" r="5.5"/>
<circle class="st1" cx="1079.875" cy="18" r="5.5"/>
<circle class="st1" cx="1004" cy="18" r="5.5"/>
<circle class="st1" cx="1041.938" cy="18" r="5.5"/>
<circle class="st1" cx="1269.562" cy="18" r="5.5"/>
<circle class="st1" cx="1611" cy="18" r="5.5"/>
<circle class="st1" cx="1345.438" cy="18" r="5.5"/>
<circle class="st1" cx="1307.5" cy="18" r="5.5"/>
<circle class="st1" cx="1459.25" cy="18" r="5.5"/>
<circle class="st1" cx="1535.125" cy="18" r="5.5"/>
<circle class="st1" cx="1421.312" cy="18" r="5.5"/>
<circle class="st1" cx="1193.688" cy="18" r="5.5"/>
<circle class="st1" cx="1231.625" cy="18" r="5.5"/>
<circle class="st1" cx="1383.375" cy="18" r="5.5"/>
<circle class="st1" cx="1117.812" cy="18" r="5.5"/>
<circle class="st1" cx="1155.75" cy="18" r="5.5"/>
<circle class="st1" cx="1497.188" cy="18" r="5.5"/>
<circle class="st1" cx="1573.062" cy="18" r="5.5"/>
<circle class="st1" cx="1079.875" cy="51.5" r="5.5"/>
<circle class="st1" cx="1004" cy="51.5" r="5.5"/>
<circle class="st1" cx="1041.938" cy="51.5" r="5.5"/>
<circle class="st1" cx="1269.562" cy="51.5" r="5.5"/>
<circle class="st1" cx="1611" cy="51.5" r="5.5"/>
<circle class="st1" cx="1345.438" cy="51.5" r="5.5"/>
<circle class="st1" cx="1307.5" cy="51.5" r="5.5"/>
<circle class="st1" cx="1459.25" cy="51.5" r="5.5"/>
<circle class="st1" cx="1535.125" cy="51.5" r="5.5"/>
<circle class="st1" cx="1421.312" cy="51.5" r="5.5"/>
<circle class="st1" cx="1193.688" cy="51.5" r="5.5"/>
<circle class="st1" cx="1231.625" cy="51.5" r="5.5"/>
<circle class="st1" cx="1383.375" cy="51.5" r="5.5"/>
<circle class="st1" cx="1117.812" cy="51.5" r="5.5"/>
<circle class="st1" cx="1155.75" cy="51.5" r="5.5"/>
<circle class="st1" cx="1497.188" cy="51.5" r="5.5"/>
<circle class="st1" cx="1573.062" cy="51.5" r="5.5"/>
<circle class="st1" cx="1079.875" cy="85" r="5.5"/>
<circle class="st1" cx="1004" cy="85" r="5.5"/>
<circle class="st1" cx="1041.938" cy="85" r="5.5"/>
<circle class="st1" cx="1269.562" cy="85" r="5.5"/>
<circle class="st1" cx="1611" cy="85" r="5.5"/>
<circle class="st1" cx="1345.438" cy="85" r="5.5"/>
<circle class="st1" cx="1307.5" cy="85" r="5.5"/>
<circle class="st1" cx="1459.25" cy="85" r="5.5"/>
<circle class="st1" cx="1535.125" cy="85" r="5.5"/>
<circle class="st1" cx="1421.312" cy="85" r="5.5"/>
<circle class="st1" cx="1193.688" cy="85" r="5.5"/>
<circle class="st1" cx="1231.625" cy="85" r="5.5"/>
<circle class="st1" cx="1383.375" cy="85" r="5.5"/>
<circle class="st1" cx="1117.812" cy="85" r="5.5"/>
<circle class="st1" cx="1155.75" cy="85" r="5.5"/>
<circle class="st1" cx="1497.188" cy="85" r="5.5"/>
<circle class="st1" cx="1573.062" cy="85" r="5.5"/>
<circle class="st1" cx="1079.875" cy="118.5" r="5.5"/>
<circle class="st1" cx="1004" cy="118.5" r="5.5"/>
<circle class="st1" cx="1041.938" cy="118.5" r="5.5"/>
<circle class="st1" cx="1269.562" cy="118.5" r="5.5"/>
<circle class="st1" cx="1611" cy="118.5" r="5.5"/>
<circle class="st1" cx="1345.438" cy="118.5" r="5.5"/>
<circle class="st1" cx="1307.5" cy="118.5" r="5.5"/>
<circle class="st1" cx="1459.25" cy="118.5" r="5.5"/>
<circle class="st1" cx="1535.125" cy="118.5" r="5.5"/>
<circle class="st1" cx="1421.312" cy="118.5" r="5.5"/>
<circle class="st1" cx="1193.688" cy="118.5" r="5.5"/>
<circle class="st1" cx="1231.625" cy="118.5" r="5.5"/>
<circle class="st1" cx="1383.375" cy="118.5" r="5.5"/>
<circle class="st1" cx="1117.812" cy="118.5" r="5.5"/>
<circle class="st1" cx="1155.75" cy="118.5" r="5.5"/>
<circle class="st1" cx="1497.188" cy="118.5" r="5.5"/>
<circle class="st1" cx="1573.062" cy="118.5" r="5.5"/>
<rect x="987.209" y="124.185" class="st0" width="640" height="480"/>
<circle class="st1" cx="1081.107" cy="148.402" r="5.5"/>
<circle class="st1" cx="1005.232" cy="148.402" r="5.5"/>
<circle class="st1" cx="1043.17" cy="148.402" r="5.5"/>
<circle class="st1" cx="1270.795" cy="148.402" r="5.5"/>
<circle class="st1" cx="1612.232" cy="148.402" r="5.5"/>
<circle class="st1" cx="1346.67" cy="148.402" r="5.5"/>
<circle class="st1" cx="1308.732" cy="148.402" r="5.5"/>
<circle class="st1" cx="1460.482" cy="148.402" r="5.5"/>
<circle class="st1" cx="1536.357" cy="148.402" r="5.5"/>
<circle class="st1" cx="1422.545" cy="148.402" r="5.5"/>
<circle class="st1" cx="1194.92" cy="148.402" r="5.5"/>
<circle class="st1" cx="1232.857" cy="148.402" r="5.5"/>
<circle class="st1" cx="1384.607" cy="148.402" r="5.5"/>
<circle class="st1" cx="1119.045" cy="148.402" r="5.5"/>
<circle class="st1" cx="1156.982" cy="148.402" r="5.5"/>
<circle class="st1" cx="1498.42" cy="148.402" r="5.5"/>
<circle class="st1" cx="1574.295" cy="148.402" r="5.5"/>
<ellipse class="st1" cx="1080.547" cy="180.901" rx="5.5" ry="8.25"/>
<ellipse class="st1" cx="1004.672" cy="180.901" rx="5.5" ry="8.25"/>
<ellipse class="st1" cx="1042.609" cy="180.901" rx="5.5" ry="8.25"/>
<ellipse class="st1" cx="1270.234" cy="180.901" rx="5.5" ry="8.25"/>
<ellipse class="st1" cx="1611.672" cy="180.901" rx="5.5" ry="8.25"/>
<ellipse class="st1" cx="1346.109" cy="180.901" rx="5.5" ry="8.25"/>
<path class="st1" d="M1313.598,182.249c-0.496,4.494-3.328,7.535-6.324,6.791s-5.023-4.992-4.527-9.486s3.328-7.535,6.324-6.791
	S1314.094,177.755,1313.598,182.249z"/>
<ellipse class="st1" cx="1459.922" cy="180.901" rx="5.5" ry="8.25"/>
<ellipse class="st1" cx="1535.797" cy="180.901" rx="5.5" ry="8.25"/>
<ellipse class="st1" cx="1421.984" cy="180.901" rx="5.5" ry="8.25"/>
<ellipse class="st1" cx="1194.359" cy="180.901" rx="5.5" ry="8.25"/>
<ellipse class="st1" cx="1232.297" cy="180.901" rx="5.5" ry="8.25"/>
<ellipse class="st1" cx="1384.047" cy="180.901" rx="5.5" ry="8.25"/>
<ellipse class="st1" cx="1118.484" cy="180.901" rx="5.5" ry="8.25"/>
<ellipse class="st1" cx="1156.422" cy="180.901" rx="5.5" ry="8.25"/>
<ellipse class="st1" cx="1497.859" cy="180.901" rx="5.5" ry="8.25"/>
<ellipse class="st1" cx="1573.734" cy="180.901" rx="5.5" ry="8.25"/>
<ellipse class="st1" cx="1079.718" cy="225.231" rx="5.5" ry="13.68"/>
<ellipse class="st1" cx="1003.843" cy="225.231" rx="5.5" ry="13.68"/>
<ellipse class="st1" cx="1041.78" cy="225.231" rx="5.5" ry="13.68"/>
<ellipse class="st1" cx="1269.405" cy="225.231" rx="5.5" ry="13.68"/>
<ellipse class="st1" cx="1610.843" cy="225.231" rx="5.5" ry="13.68"/>
<ellipse class="st1" cx="1345.28" cy="225.231" rx="5.5" ry="13.68"/>
<path class="st1" d="M1312.769,227.466c-0.496,7.452-3.328,12.494-6.324,11.261s-5.023-8.278-4.527-15.729
	c0.496-7.453,3.328-12.496,6.324-11.262S1313.265,220.014,1312.769,227.466z"/>
<ellipse class="st1" cx="1459.093" cy="225.231" rx="5.5" ry="13.68"/>
<ellipse class="st1" cx="1534.968" cy="225.231" rx="5.5" ry="13.68"/>
<ellipse class="st1" cx="1421.155" cy="225.231" rx="5.5" ry="13.68"/>
<ellipse class="st1" cx="1193.53" cy="225.231" rx="5.5" ry="13.68"/>
<ellipse class="st1" cx="1231.468" cy="225.231" rx="5.5" ry="13.68"/>
<ellipse class="st1" cx="1383.218" cy="225.231" rx="5.5" ry="13.68"/>
<ellipse class="st1" cx="1117.655" cy="225.231" rx="5.5" ry="13.68"/>
<ellipse class="st1" cx="1155.593" cy="225.231" rx="5.5" ry="13.68"/>
<ellipse class="st1" cx="1497.03" cy="225.231" rx="5.5" ry="13.68"/>
<ellipse class="st1" cx="1572.905" cy="225.231" rx="5.5" ry="13.68"/>
<path class="st1" d="M1084.218,285.053c0,13.767-2.463,24.933-5.5,24.933s-5.5-11.166-5.5-24.933s2.463-24.933,5.5-24.933
	S1084.218,271.286,1084.218,285.053z"/>
<path class="st1" d="M1008.343,285.053c0,13.767-2.463,24.933-5.5,24.933s-5.5-11.166-5.5-24.933s2.463-24.933,5.5-24.933
	S1008.343,271.286,1008.343,285.053z"/>
<path class="st1" d="M1046.28,285.053c0,13.767-2.463,24.933-5.5,24.933s-5.5-11.166-5.5-24.933s2.463-24.933,5.5-24.933
	S1046.28,271.286,1046.28,285.053z"/>
<path class="st1" d="M1273.905,285.053c0,13.767-2.463,24.933-5.5,24.933s-5.5-11.166-5.5-24.933s2.463-24.933,5.5-24.933
	S1273.905,271.286,1273.905,285.053z"/>
<path class="st1" d="M1615.343,285.053c0,13.767-2.463,24.933-5.5,24.933s-5.5-11.166-5.5-24.933s2.463-24.933,5.5-24.933
	S1615.343,271.286,1615.343,285.053z"/>
<path class="st1" d="M1349.78,285.053c0,13.767-2.463,24.933-5.5,24.933s-5.5-11.166-5.5-24.933s2.463-24.933,5.5-24.933
	S1349.78,271.286,1349.78,285.053z"/>
<path class="st1" d="M1311.769,289.126c-0.496,13.58-3.328,22.771-6.324,20.521c-2.996-2.248-5.023-15.086-4.527-28.667
	s3.328-22.772,6.324-20.522C1310.237,262.706,1312.265,275.544,1311.769,289.126z"/>
<path class="st1" d="M1463.593,285.053c0,13.767-2.463,24.933-5.5,24.933s-5.5-11.166-5.5-24.933s2.463-24.933,5.5-24.933
	S1463.593,271.286,1463.593,285.053z"/>
<path class="st1" d="M1539.468,285.053c0,13.767-2.463,24.933-5.5,24.933s-5.5-11.166-5.5-24.933s2.463-24.933,5.5-24.933
	S1539.468,271.286,1539.468,285.053z"/>
<path class="st1" d="M1425.655,285.053c0,13.767-2.463,24.933-5.5,24.933s-5.5-11.166-5.5-24.933s2.463-24.933,5.5-24.933
	S1425.655,271.286,1425.655,285.053z"/>
<path class="st1" d="M1198.03,285.053c0,13.767-2.463,24.933-5.5,24.933s-5.5-11.166-5.5-24.933s2.463-24.933,5.5-24.933
	S1198.03,271.286,1198.03,285.053z"/>
<path class="st1" d="M1235.968,285.053c0,13.767-2.463,24.933-5.5,24.933s-5.5-11.166-5.5-24.933s2.463-24.933,5.5-24.933
	S1235.968,271.286,1235.968,285.053z"/>
<path class="st1" d="M1387.718,285.053c0,13.767-2.463,24.933-5.5,24.933s-5.5-11.166-5.5-24.933s2.463-24.933,5.5-24.933
	S1387.718,271.286,1387.718,285.053z"/>
<path class="st1" d="M1122.155,285.053c0,13.767-2.463,24.933-5.5,24.933s-5.5-11.166-5.5-24.933s2.463-24.933,5.5-24.933
	S1122.155,271.286,1122.155,285.053z"/>
<path class="st1" d="M1160.093,285.053c0,13.767-2.463,24.933-5.5,24.933s-5.5-11.166-5.5-24.933s2.463-24.933,5.5-24.933
	S1160.093,271.286,1160.093,285.053z"/>
<path class="st1" d="M1501.53,285.053c0,13.767-2.463,24.933-5.5,24.933s-5.5-11.166-5.5-24.933s2.463-24.933,5.5-24.933
	S1501.53,271.286,1501.53,285.053z"/>
<path class="st1" d="M1577.405,285.053c0,13.767-2.463,24.933-5.5,24.933s-5.5-11.166-5.5-24.933s2.463-24.933,5.5-24.933
	S1577.405,271.286,1577.405,285.053z"/>
<path class="st1" d="M1085.218,377.628c0,23.473-2.463,42.512-5.5,42.512s-5.5-19.039-5.5-42.512c0-23.469,2.463-42.507,5.5-42.507
	S1085.218,354.159,1085.218,377.628z"/>
<path class="st1" d="M1009.343,377.628c0,23.473-2.463,42.512-5.5,42.512s-5.5-19.039-5.5-42.512c0-23.469,2.463-42.507,5.5-42.507
	S1009.343,354.159,1009.343,377.628z"/>
<path class="st1" d="M1047.28,377.628c0,23.473-2.463,42.512-5.5,42.512s-5.5-19.039-5.5-42.512c0-23.469,2.463-42.507,5.5-42.507
	S1047.28,354.159,1047.28,377.628z"/>
<path class="st1" d="M1274.905,377.628c0,23.473-2.463,42.512-5.5,42.512s-5.5-19.039-5.5-42.512c0-23.469,2.463-42.507,5.5-42.507
	S1274.905,354.159,1274.905,377.628z"/>
<path class="st1" d="M1616.343,377.628c0,23.473-2.463,42.512-5.5,42.512s-5.5-19.039-5.5-42.512c0-23.469,2.463-42.507,5.5-42.507
	S1616.343,354.159,1616.343,377.628z"/>
<path class="st1" d="M1350.78,377.628c0,23.473-2.463,42.512-5.5,42.512s-5.5-19.039-5.5-42.512c0-23.469,2.463-42.507,5.5-42.507
	S1350.78,354.159,1350.78,377.628z"/>
<path class="st1" d="M1312.769,384.575c-0.496,23.152-3.328,38.82-6.324,34.986c-2.996-3.832-5.023-25.719-4.527-48.876
	c0.496-23.153,3.328-38.824,6.324-34.988C1311.237,339.53,1313.265,361.417,1312.769,384.575z"/>
<path class="st1" d="M1464.593,377.628c0,23.473-2.463,42.512-5.5,42.512s-5.5-19.039-5.5-42.512c0-23.469,2.463-42.507,5.5-42.507
	S1464.593,354.159,1464.593,377.628z"/>
<path class="st1" d="M1540.468,377.628c0,23.473-2.463,42.512-5.5,42.512s-5.5-19.039-5.5-42.512c0-23.469,2.463-42.507,5.5-42.507
	S1540.468,354.159,1540.468,377.628z"/>
<path class="st1" d="M1426.655,377.628c0,23.473-2.463,42.512-5.5,42.512s-5.5-19.039-5.5-42.512c0-23.469,2.463-42.507,5.5-42.507
	S1426.655,354.159,1426.655,377.628z"/>
<path class="st1" d="M1199.03,377.628c0,23.473-2.463,42.512-5.5,42.512s-5.5-19.039-5.5-42.512c0-23.469,2.463-42.507,5.5-42.507
	S1199.03,354.159,1199.03,377.628z"/>
<path class="st1" d="M1236.968,377.628c0,23.473-2.463,42.512-5.5,42.512s-5.5-19.039-5.5-42.512c0-23.469,2.463-42.507,5.5-42.507
	S1236.968,354.159,1236.968,377.628z"/>
<path class="st1" d="M1388.718,377.628c0,23.473-2.463,42.512-5.5,42.512s-5.5-19.039-5.5-42.512c0-23.469,2.463-42.507,5.5-42.507
	S1388.718,354.159,1388.718,377.628z"/>
<path class="st1" d="M1123.155,377.628c0,23.473-2.463,42.512-5.5,42.512s-5.5-19.039-5.5-42.512c0-23.469,2.463-42.507,5.5-42.507
	S1123.155,354.159,1123.155,377.628z"/>
<path class="st1" d="M1161.093,377.628c0,23.473-2.463,42.512-5.5,42.512s-5.5-19.039-5.5-42.512c0-23.469,2.463-42.507,5.5-42.507
	S1161.093,354.159,1161.093,377.628z"/>
<path class="st1" d="M1502.53,377.628c0,23.473-2.463,42.512-5.5,42.512s-5.5-19.039-5.5-42.512c0-23.469,2.463-42.507,5.5-42.507
	S1502.53,354.159,1502.53,377.628z"/>
<path class="st1" d="M1578.405,377.628c0,23.473-2.463,42.512-5.5,42.512s-5.5-19.039-5.5-42.512c0-23.469,2.463-42.507,5.5-42.507
	S1578.405,354.159,1578.405,377.628z"/>
<path class="st1" d="M1085.24,492.954c0,32.372-2.463,58.631-5.5,58.631s-5.5-26.259-5.5-58.631c0-32.369,2.463-58.627,5.5-58.627
	S1085.24,460.585,1085.24,492.954z"/>
<path class="st1" d="M1009.365,492.954c0,32.372-2.463,58.631-5.5,58.631s-5.5-26.259-5.5-58.631c0-32.369,2.463-58.627,5.5-58.627
	S1009.365,460.585,1009.365,492.954z"/>
<path class="st1" d="M1047.303,492.954c0,32.372-2.463,58.631-5.5,58.631s-5.5-26.259-5.5-58.631c0-32.369,2.463-58.627,5.5-58.627
	S1047.303,460.585,1047.303,492.954z"/>
<path class="st1" d="M1274.928,492.954c0,32.372-2.463,58.631-5.5,58.631s-5.5-26.259-5.5-58.631c0-32.369,2.463-58.627,5.5-58.627
	S1274.928,460.585,1274.928,492.954z"/>
<path class="st1" d="M1616.365,492.954c0,32.372-2.463,58.631-5.5,58.631s-5.5-26.259-5.5-58.631c0-32.369,2.463-58.627,5.5-58.627
	S1616.365,460.585,1616.365,492.954z"/>
<path class="st1" d="M1350.803,492.954c0,32.372-2.463,58.631-5.5,58.631s-5.5-26.259-5.5-58.631c0-32.369,2.463-58.627,5.5-58.627
	S1350.803,460.585,1350.803,492.954z"/>
<path class="st1" d="M1312.791,502.534c-0.496,31.934-3.328,53.543-6.324,48.254c-2.996-5.284-5.023-35.472-4.527-67.41
	c0.496-31.932,3.328-53.546,6.324-48.256C1311.26,440.41,1313.287,470.595,1312.791,502.534z"/>
<path class="st1" d="M1464.615,492.954c0,32.372-2.463,58.631-5.5,58.631s-5.5-26.259-5.5-58.631c0-32.369,2.463-58.627,5.5-58.627
	S1464.615,460.585,1464.615,492.954z"/>
<path class="st1" d="M1540.49,492.954c0,32.372-2.463,58.631-5.5,58.631s-5.5-26.259-5.5-58.631c0-32.369,2.463-58.627,5.5-58.627
	S1540.49,460.585,1540.49,492.954z"/>
<path class="st1" d="M1426.678,492.954c0,32.372-2.463,58.631-5.5,58.631s-5.5-26.259-5.5-58.631c0-32.369,2.463-58.627,5.5-58.627
	S1426.678,460.585,1426.678,492.954z"/>
<path class="st1" d="M1199.053,492.954c0,32.372-2.463,58.631-5.5,58.631s-5.5-26.259-5.5-58.631c0-32.369,2.463-58.627,5.5-58.627
	S1199.053,460.585,1199.053,492.954z"/>
<path class="st1" d="M1236.99,492.954c0,32.372-2.463,58.631-5.5,58.631s-5.5-26.259-5.5-58.631c0-32.369,2.463-58.627,5.5-58.627
	S1236.99,460.585,1236.99,492.954z"/>
<path class="st1" d="M1388.74,492.954c0,32.372-2.463,58.631-5.5,58.631s-5.5-26.259-5.5-58.631c0-32.369,2.463-58.627,5.5-58.627
	S1388.74,460.585,1388.74,492.954z"/>
<path class="st1" d="M1123.178,492.954c0,32.372-2.463,58.631-5.5,58.631s-5.5-26.259-5.5-58.631c0-32.369,2.463-58.627,5.5-58.627
	S1123.178,460.585,1123.178,492.954z"/>
<path class="st1" d="M1161.115,492.954c0,32.372-2.463,58.631-5.5,58.631s-5.5-26.259-5.5-58.631c0-32.369,2.463-58.627,5.5-58.627
	S1161.115,460.585,1161.115,492.954z"/>
<path class="st1" d="M1502.553,492.954c0,32.372-2.463,58.631-5.5,58.631s-5.5-26.259-5.5-58.631c0-32.369,2.463-58.627,5.5-58.627
	S1502.553,460.585,1502.553,492.954z"/>
<path class="st1" d="M1578.428,492.954c0,32.372-2.463,58.631-5.5,58.631s-5.5-26.259-5.5-58.631c0-32.369,2.463-58.627,5.5-58.627
	S1578.428,460.585,1578.428,492.954z"/>
<path class="st1" d="M1085.24,617.835c0,23.472-2.463,42.511-5.5,42.511s-5.5-19.039-5.5-42.511c0-23.47,2.463-42.508,5.5-42.508
	S1085.24,594.365,1085.24,617.835z"/>
<path class="st1" d="M1009.365,617.835c0,23.472-2.463,42.511-5.5,42.511s-5.5-19.039-5.5-42.511c0-23.47,2.463-42.508,5.5-42.508
	S1009.365,594.365,1009.365,617.835z"/>
<path class="st1" d="M1047.303,617.835c0,23.472-2.463,42.511-5.5,42.511s-5.5-19.039-5.5-42.511c0-23.47,2.463-42.508,5.5-42.508
	S1047.303,594.365,1047.303,617.835z"/>
<path class="st1" d="M1274.928,617.835c0,23.472-2.463,42.511-5.5,42.511s-5.5-19.039-5.5-42.511c0-23.47,2.463-42.508,5.5-42.508
	S1274.928,594.365,1274.928,617.835z"/>
<path class="st1" d="M1616.365,617.835c0,23.472-2.463,42.511-5.5,42.511s-5.5-19.039-5.5-42.511c0-23.47,2.463-42.508,5.5-42.508
	S1616.365,594.365,1616.365,617.835z"/>
<path class="st1" d="M1350.803,617.835c0,23.472-2.463,42.511-5.5,42.511s-5.5-19.039-5.5-42.511c0-23.47,2.463-42.508,5.5-42.508
	S1350.803,594.365,1350.803,617.835z"/>
<path class="st1" d="M1312.791,624.781c-0.496,23.153-3.328,38.821-6.324,34.986c-2.996-3.831-5.023-25.719-4.527-48.876
	c0.496-23.152,3.328-38.824,6.324-34.988C1311.26,579.737,1313.287,601.623,1312.791,624.781z"/>
<path class="st1" d="M1464.615,617.835c0,23.472-2.463,42.511-5.5,42.511s-5.5-19.039-5.5-42.511c0-23.47,2.463-42.508,5.5-42.508
	S1464.615,594.365,1464.615,617.835z"/>
<path class="st1" d="M1540.49,617.835c0,23.472-2.463,42.511-5.5,42.511s-5.5-19.039-5.5-42.511c0-23.47,2.463-42.508,5.5-42.508
	S1540.49,594.365,1540.49,617.835z"/>
<path class="st1" d="M1426.678,617.835c0,23.472-2.463,42.511-5.5,42.511s-5.5-19.039-5.5-42.511c0-23.47,2.463-42.508,5.5-42.508
	S1426.678,594.365,1426.678,617.835z"/>
<path class="st1" d="M1199.053,617.835c0,23.472-2.463,42.511-5.5,42.511s-5.5-19.039-5.5-42.511c0-23.47,2.463-42.508,5.5-42.508
	S1199.053,594.365,1199.053,617.835z"/>
<path class="st1" d="M1236.99,617.835c0,23.472-2.463,42.511-5.5,42.511s-5.5-19.039-5.5-42.511c0-23.47,2.463-42.508,5.5-42.508
	S1236.99,594.365,1236.99,617.835z"/>
<path class="st1" d="M1388.74,617.835c0,23.472-2.463,42.511-5.5,42.511s-5.5-19.039-5.5-42.511c0-23.47,2.463-42.508,5.5-42.508
	S1388.74,594.365,1388.74,617.835z"/>
<path class="st1" d="M1123.178,617.835c0,23.472-2.463,42.511-5.5,42.511s-5.5-19.039-5.5-42.511c0-23.47,2.463-42.508,5.5-42.508
	S1123.178,594.365,1123.178,617.835z"/>
<path class="st1" d="M1161.115,617.835c0,23.472-2.463,42.511-5.5,42.511s-5.5-19.039-5.5-42.511c0-23.47,2.463-42.508,5.5-42.508
	S1161.115,594.365,1161.115,617.835z"/>
<path class="st1" d="M1502.553,617.835c0,23.472-2.463,42.511-5.5,42.511s-5.5-19.039-5.5-42.511c0-23.47,2.463-42.508,5.5-42.508
	S1502.553,594.365,1502.553,617.835z"/>
<path class="st1" d="M1578.428,617.835c0,23.472-2.463,42.511-5.5,42.511s-5.5-19.039-5.5-42.511c0-23.47,2.463-42.508,5.5-42.508
	S1578.428,594.365,1578.428,617.835z"/>
<g>
	<path d="M-528.63,115.907h-15.313l-2.976,7.921c-0.192,0.48-0.624,0.768-1.104,0.768c-0.096,0-0.288-0.048-0.432-0.048
		c-0.576-0.24-0.912-0.96-0.672-1.536l11.665-31.155c0.192-0.432,0.672-0.72,1.152-0.72c0.528,0,1.008,0.288,1.152,0.72
		l11.665,31.155c0.24,0.576-0.048,1.296-0.624,1.536c-0.192,0-0.288,0.048-0.432,0.048c-0.432,0-0.912-0.288-1.104-0.768
		L-528.63,115.907z M-543.08,113.555h13.585l-6.769-18.049L-543.08,113.555z"/>
	<path d="M-516.008,92.146c0-0.624,0.528-1.152,1.152-1.152h0.144h7.345c4.608,0,8.353,3.745,8.353,8.401
		c0,2.64-1.296,4.992-3.216,6.528c3.792,1.296,6.577,4.849,6.577,9.073c0,5.328-4.32,9.601-9.601,9.601h-9.457h-0.144h-0.048
		c-0.624,0-1.104-0.528-1.104-1.152V92.146z M-507.367,105.347c3.312,0,6-2.688,6-5.953c0-3.36-2.688-6.048-6-6.048h-6.289v12.001
		H-507.367z M-505.255,122.244c3.984,0,7.201-3.216,7.249-7.249c-0.048-3.984-3.265-7.249-7.249-7.249h-8.4v14.498H-505.255z"/>
	<path d="M-472.759,90.513c8.977,0,16.035,7.633,16.082,17.042c-0.047,9.409-7.104,17.042-16.082,17.042
		c-9.073,0-16.177-7.633-16.225-17.042C-488.937,98.146-481.832,90.513-472.759,90.513z M-472.759,122.244
		c7.393,0,13.634-6.481,13.682-14.689c-0.048-8.305-6.289-14.641-13.682-14.641c-7.632,0-13.873,6.336-13.873,14.641
		C-486.632,115.763-480.392,122.244-472.759,122.244z"/>
	<path d="M-448.809,92.146c0-0.624,0.528-1.152,1.152-1.152c0.672,0,1.2,0.528,1.2,1.152v18.866c0,6.192,5.04,11.185,11.185,11.233
		c6.241-0.048,11.281-5.041,11.281-11.233V92.146c0-0.624,0.528-1.152,1.152-1.152c0.672,0,1.2,0.528,1.2,1.152v18.866
		c0,7.488-6.097,13.585-13.634,13.585c-7.44,0-13.537-6.097-13.537-13.585V92.146z"/>
	<path d="M-402.535,93.346h-10.129c-0.625,0-1.152-0.528-1.152-1.2c0-0.624,0.527-1.152,1.152-1.152h22.562
		c0.624,0,1.152,0.528,1.152,1.152c0,0.672-0.528,1.2-1.152,1.2h-10.129v30.098c0,0.625-0.528,1.152-1.151,1.152
		c-0.625,0-1.152-0.528-1.152-1.152V93.346z"/>
</g>
<path class="st1" d="M0,0.001V480h640V0.001H0z M94.797,382.159H81.296v-94.5h13.501V382.159z M94.797,273.659H81.296v-64h13.501
	V273.659z M94.797,195.159H81.296V158.66h13.501V195.159z M94.797,146.16H81.296v-13.5h13.501V146.16z M94.797,117.16H81.296v-13.5
	h13.501V117.16z M94.797,89.66H81.296v-13.5h13.501V89.66z M144.973,437.751h-13.501V424.25h13.501V437.751z M144.973,408.75
	h-13.501v-13.5h13.501V408.75z M144.973,381.25h-13.501v-13.5h13.501V381.25z M144.973,293.751h-13.501V280.25h13.501V293.751z
	 M144.973,264.75h-13.501v-13.5h13.501V264.75z M144.973,237.25h-13.501v-13.5h13.501V237.25z M144.973,122.251h-13.501v-13.5
	h13.501V122.251z M144.973,93.251h-13.501v-13.5h13.501V93.251z M144.973,65.751h-13.501v-13.5h13.501V65.751z M233.99,430.418
	h-13.501v-13.5h13.501V430.418z M233.99,396.16h-13.501v-94.5h13.501V396.16z M233.99,259.715h-13.501v-94.5h13.501V259.715z
	 M233.99,143.583h-13.501v-13.5h13.501V143.583z M233.99,103.271h-13.501v-94.5h13.501V103.271z M518.306,462.418h-13.501v-13.501
	h13.501V462.418z M518.306,433.417h-13.501v-13.5h13.501V433.417z M518.306,405.917h-13.501v-13.5h13.501V405.917z M518.306,318.418
	h-13.501v-13.501h13.501V318.418z M518.306,289.417h-13.501v-13.5h13.501V289.417z M518.306,261.918h-13.501v-13.5h13.501V261.918z
	 M518.306,146.918h-13.501v-13.5h13.501V146.918z M518.306,117.918h-13.501v-13.5h13.501V117.918z M518.306,90.418h-13.501v-13.5
	h13.501V90.418z M552.307,397.085h-13.502v-13.501h13.502V397.085z M552.307,368.084h-13.502v-13.5h13.502V368.084z
	 M552.307,340.584h-13.502v-13.5h13.502V340.584z M552.307,253.085h-13.502v-13.501h13.502V253.085z M552.307,224.084h-13.502v-13.5
	h13.502V224.084z M552.307,196.584h-13.502v-13.5h13.502V196.584z M552.307,81.585h-13.502v-13.5h13.502V81.585z M552.307,52.585
	h-13.502v-13.5h13.502V52.585z M552.307,25.085h-13.502v-13.5h13.502V25.085z M584.973,463.084h-13.5v-13.5h13.5V463.084z
	 M584.973,434.084h-13.5v-13.5h13.5V434.084z M584.973,406.584h-13.5v-13.5h13.5V406.584z M584.973,319.084h-13.5v-13.5h13.5
	V319.084z M584.973,290.084h-13.5v-13.5h13.5V290.084z M584.973,262.584h-13.5v-13.5h13.5V262.584z M584.973,147.585h-13.5v-13.5
	h13.5V147.585z M584.973,118.584h-13.5v-13.5h13.5V118.584z M584.973,91.084h-13.5v-13.5h13.5V91.084z"/>
</svg>
