<?xml version="1.0" encoding="utf-8"?>
<!-- Generator: Adobe Illustrator 14.0.0, SVG Export Plug-In . SVG Version: 6.00 Build 43363)  -->
<!DOCTYPE svg PUBLIC "-//W3C//DTD SVG 1.1//EN" "http://www.w3.org/Graphics/SVG/1.1/DTD/svg11.dtd">
<svg version="1.1" id="Layer_1" xmlns="http://www.w3.org/2000/svg" xmlns:xlink="http://www.w3.org/1999/xlink" x="0px" y="0px"
	 width="640px" height="480px" viewBox="0 0 640 480" style="enable-background:new 0 0 640 480;" xml:space="preserve">
<style type="text/css">
<![CDATA[
	.st0{fill:#FFFFFF;}
]]>
</style>
<path class="st0" d="M0,0.001V480h31.548v-94.5h13.5V480h548.999v-94.5h13.502V480H640V0.001H0z M186.245,159.987h13.5v13.5h-13.5
	V159.987z M186.245,187.488h13.5v13.5h-13.5V187.488z M186.245,216.488h13.5v13.5h-13.5V216.488z M99.548,193h13.5v13.5h-13.5V193z
	 M99.548,221.5h13.5V235h-13.5V221.5z M99.548,249.5h13.5V263h-13.5V249.5z M31.548,9.001h13.5v13.5h-13.5V9.001z M31.548,37.501
	h13.5v13.5h-13.5V37.501z M31.548,65.501h13.5v13.5h-13.5V65.501z M45.048,377h-13.5V245.5h13.5V377z M45.048,234.5h-13.5v-94.499
	h13.5V234.5z M45.048,128.001h-13.5v-36.5h13.5V128.001z M113.048,390.5H99.547v-64h13.501V390.5z M113.049,312H99.548v-36.5h13.501
	V312z M186.244,293.488h13.501v64h-13.501V293.488z M199.746,465.988h-13.501v-94.5h13.501V465.988z M199.746,278.988h-13.501v-36.5
	h13.501V278.988z M542.715,382h-13.5v-94.5h13.5V382z M542.715,273.5h-13.502v-64h13.502V273.5z M542.715,195h-13.5v-36.499h13.5
	V195z M542.715,146.001h-13.5v-13.5h13.5V146.001z M542.715,117.001h-13.5v-13.5h13.5V117.001z M542.715,89.501h-13.5v-13.5h13.5
	V89.501z M607.549,377h-13.502V245.5h13.502V377z M607.549,234.5h-13.502v-94.499h13.502V234.5z"/>
</svg>
