<?xml version="1.0" encoding="utf-8"?>
<!-- Generator: Adobe Illustrator 14.0.0, SVG Export Plug-In . SVG Version: 6.00 Build 43363)  -->
<!DOCTYPE svg PUBLIC "-//W3C//DTD SVG 1.1//EN" "http://www.w3.org/Graphics/SVG/1.1/DTD/svg11.dtd">
<svg version="1.1" id="Layer_1" xmlns="http://www.w3.org/2000/svg" xmlns:xlink="http://www.w3.org/1999/xlink" x="0px" y="0px"
	 width="640px" height="480px" viewBox="0 0 640 480" style="enable-background:new 0 0 640 480;" xml:space="preserve">
<style type="text/css">
<![CDATA[
	.st0{fill:#29ABE2;}
	.st1{fill:#FFFFFF;}
]]>
</style>
<rect x="-194.377" y="371.498" class="st0" width="13.501" height="94.5"/>
<g>
	<path class="st1" d="M-661.421-0.423v480h640v-480H-661.421z M-605.208,236.75h13.501v64h-13.501V236.75z M-591.707,434.25h-13.5
		v-13.5h13.5V434.25z M-591.707,406.75h-13.5v-13.5h13.5V406.75z M-591.707,377.75h-13.5v-13.5h13.5V377.75z M-591.706,351.75
		h-13.501v-36.5h13.501V351.75z M-591.706,222.75h-13.501V128.25h13.501V222.75z M-413.721,89.416l-13.057,31.011
		c-0.193,0.432-0.625,0.721-0.961,0.768h-0.096h-0.145c-0.191,0-0.385-0.047-0.576-0.191c-0.047-0.049-0.145-0.096-0.191-0.192
		c-0.049-0.048-0.145-0.192-0.191-0.288c0-0.048,0-0.096-0.049-0.144l-8.545-20.306l-8.592,20.306c0,0.096-0.049,0.192-0.098,0.239
		c-0.047,0.145-0.143,0.24-0.238,0.336c-0.049,0-0.098,0.049-0.098,0.049c-0.191,0.145-0.432,0.191-0.672,0.191
		c-0.287,0-0.527-0.096-0.719-0.24l-0.098-0.096l-0.047-0.048c-0.145-0.144-0.24-0.336-0.289-0.575l-12.961-30.819
		c-0.287-0.576,0-1.296,0.576-1.536c0.576-0.288,1.297,0,1.537,0.576l12,28.562l8.545-20.21c0.24-0.433,0.672-0.72,1.104-0.72
		c0.529,0,0.961,0.287,1.201,0.72l8.496,20.21l12.002-28.562c0.287-0.576,0.912-0.864,1.584-0.576
		C-413.721,88.12-413.434,88.839-413.721,89.416z M-391.165,103.241c0.625,0,1.152,0.528,1.152,1.2c0,0.624-0.527,1.151-1.152,1.151
		h-14.064v13.25h16.082c0.672,0,1.15,0.527,1.15,1.2c0,0.624-0.479,1.151-1.15,1.151h-17.139h-0.145h-0.096
		c-0.576-0.047-1.055-0.527-1.055-1.151V88.744c0-0.624,0.527-1.152,1.15-1.152h0.098h17.186c0.672,0,1.15,0.528,1.15,1.152
		c0,0.672-0.479,1.2-1.15,1.2h-16.082v13.297H-391.165z M-360.684,121.194h-17.186h-0.096c-0.625,0-1.152-0.527-1.152-1.151V88.744
		c0-0.624,0.527-1.152,1.152-1.152c0.672,0,1.199,0.528,1.199,1.152v30.099h16.082c0.672,0,1.199,0.527,1.199,1.2
		C-359.485,120.667-360.012,121.194-360.684,121.194z M-338.029,118.842c3.553,0,6.816-1.152,9.312-3.265
		c0.576-0.384,1.344-0.288,1.68,0.288c0.48,0.432,0.385,1.297-0.145,1.68c-2.928,2.257-6.721,3.648-10.848,3.648
		c-9.649,0-17.474-7.584-17.474-16.945c0-9.553,7.824-17.09,17.474-17.137c4.127,0,7.92,1.439,10.848,3.695
		c0.529,0.433,0.625,1.248,0.193,1.681c-0.385,0.576-1.152,0.624-1.633,0.24c-2.592-2.017-5.855-3.265-9.408-3.265
		c-8.401,0-15.122,6.576-15.122,14.785C-353.151,112.266-346.43,118.842-338.029,118.842z M-303.228,121.194
		c-9.074,0-16.178-7.633-16.227-17.041c0.049-9.408,7.152-17.041,16.227-17.041c8.977,0,16.033,7.633,16.08,17.041
		C-287.195,113.561-294.251,121.194-303.228,121.194z M-250.859,120.042c0,0.624-0.529,1.151-1.152,1.151
		c-0.672,0-1.152-0.527-1.152-1.151v-27.65l-10.754,14.929c-0.238,0.385-0.623,0.528-0.959,0.528h-0.096
		c-0.432,0-0.77-0.144-1.008-0.528l-10.754-14.881v27.603c0,0.624-0.527,1.151-1.152,1.151c-0.672,0-1.199-0.527-1.199-1.151V88.936
		c0-0.385,0.191-0.721,0.48-0.912c0-0.049,0.047-0.049,0.096-0.097c0.527-0.336,1.248-0.239,1.631,0.288l11.953,16.562
		l11.906-16.562c0.336-0.527,1.104-0.624,1.631-0.288c0.145,0.144,0.24,0.24,0.336,0.384c0.098,0.192,0.193,0.433,0.193,0.625
		V120.042z M-224.556,103.241c0.623,0,1.152,0.528,1.152,1.2c0,0.624-0.529,1.151-1.152,1.151h-14.064v13.25h16.08
		c0.672,0,1.152,0.527,1.152,1.2c0,0.624-0.48,1.151-1.152,1.151h-17.137h-0.145h-0.096c-0.576-0.047-1.057-0.527-1.057-1.151
		V88.744c0-0.624,0.529-1.152,1.152-1.152h0.096h17.186c0.672,0,1.152,0.528,1.152,1.152c0,0.672-0.48,1.2-1.152,1.2h-16.08v13.297
		H-224.556z"/>
	<path class="st1" d="M-303.228,89.512c-7.633,0-13.873,6.336-13.873,14.641c0,8.209,6.24,14.689,13.873,14.689
		c7.393,0,13.633-6.48,13.682-14.689C-289.595,95.848-295.835,89.512-303.228,89.512z"/>
</g>
<path class="st1" d="M21.081-551.896v479.999h31.548v-94.5h13.5v94.5h548.999v-94.5h13.502v94.5h32.451v-479.999H21.081z
	 M207.326-391.91h13.5v13.5h-13.5V-391.91z M207.326-364.409h13.5v13.5h-13.5V-364.409z M207.326-335.409h13.5v13.5h-13.5V-335.409z
	 M120.629-358.897h13.5v13.5h-13.5V-358.897z M120.629-330.397h13.5v13.5h-13.5V-330.397z M120.629-302.397h13.5v13.5h-13.5
	V-302.397z M52.629-542.896h13.5v13.5h-13.5V-542.896z M52.629-514.396h13.5v13.5h-13.5V-514.396z M52.629-486.396h13.5v13.5h-13.5
	V-486.396z M66.129-174.897h-13.5v-131.5h13.5V-174.897z M66.129-317.397h-13.5v-94.499h13.5V-317.397z M66.129-423.896h-13.5v-36.5
	h13.5V-423.896z M134.129-161.397h-13.5v-64h13.5V-161.397z M134.13-239.897h-13.501v-36.5h13.501V-239.897z M207.325-258.409
	h13.501v64h-13.501V-258.409z M220.827-85.909h-13.501v-94.5h13.501V-85.909z M220.827-272.909h-13.501v-36.5h13.501V-272.909z
	 M563.796-169.897h-13.5v-94.5h13.5V-169.897z M563.796-278.397h-13.502v-64h13.502V-278.397z M563.796-356.897h-13.5v-36.499h13.5
	V-356.897z M563.796-405.896h-13.5v-13.5h13.5V-405.896z M563.796-434.896h-13.5v-13.5h13.5V-434.896z M563.796-462.396h-13.5v-13.5
	h13.5V-462.396z M628.63-174.897h-13.502v-131.5h13.502V-174.897z M628.63-317.397h-13.502v-94.499h13.502V-317.397z"/>
<rect x="978.286" y="640.572" class="st0" width="640" height="480"/>
<path class="st1" d="M1079.286,650.4c0,23.472-2.463,42.511-5.5,42.511s-5.5-19.039-5.5-42.511c0-23.47,2.463-42.508,5.5-42.508
	S1079.286,626.931,1079.286,650.4z"/>
<path class="st1" d="M1003.411,650.4c0,23.472-2.463,42.511-5.5,42.511s-5.5-19.039-5.5-42.511c0-23.47,2.463-42.508,5.5-42.508
	S1003.411,626.931,1003.411,650.4z"/>
<path class="st1" d="M1041.349,650.4c0,23.472-2.463,42.511-5.5,42.511s-5.5-19.039-5.5-42.511c0-23.47,2.463-42.508,5.5-42.508
	S1041.349,626.931,1041.349,650.4z"/>
<path class="st1" d="M1268.974,650.4c0,23.472-2.463,42.511-5.5,42.511s-5.5-19.039-5.5-42.511c0-23.47,2.463-42.508,5.5-42.508
	S1268.974,626.931,1268.974,650.4z"/>
<path class="st1" d="M1344.849,650.4c0,23.472-2.463,42.511-5.5,42.511s-5.5-19.039-5.5-42.511c0-23.47,2.463-42.508,5.5-42.508
	S1344.849,626.931,1344.849,650.4z"/>
<path class="st1" d="M1306.837,657.347c-0.496,23.153-3.328,38.821-6.324,34.986c-2.996-3.831-5.023-25.719-4.527-48.876
	c0.496-23.152,3.328-38.824,6.324-34.988C1305.306,612.303,1307.333,634.188,1306.837,657.347z"/>
<path class="st1" d="M1458.661,650.4c0,23.472-2.463,42.511-5.5,42.511s-5.5-19.039-5.5-42.511c0-23.47,2.463-42.508,5.5-42.508
	S1458.661,626.931,1458.661,650.4z"/>
<path class="st1" d="M1534.536,650.4c0,23.472-2.463,42.511-5.5,42.511s-5.5-19.039-5.5-42.511c0-23.47,2.463-42.508,5.5-42.508
	S1534.536,626.931,1534.536,650.4z"/>
<path class="st1" d="M1420.724,650.4c0,23.472-2.463,42.511-5.5,42.511s-5.5-19.039-5.5-42.511c0-23.47,2.463-42.508,5.5-42.508
	S1420.724,626.931,1420.724,650.4z"/>
<path class="st1" d="M1193.099,650.4c0,23.472-2.463,42.511-5.5,42.511s-5.5-19.039-5.5-42.511c0-23.47,2.463-42.508,5.5-42.508
	S1193.099,626.931,1193.099,650.4z"/>
<path class="st1" d="M1231.036,650.4c0,23.472-2.463,42.511-5.5,42.511s-5.5-19.039-5.5-42.511c0-23.47,2.463-42.508,5.5-42.508
	S1231.036,626.931,1231.036,650.4z"/>
<path class="st1" d="M1382.786,650.4c0,23.472-2.463,42.511-5.5,42.511s-5.5-19.039-5.5-42.511c0-23.47,2.463-42.508,5.5-42.508
	S1382.786,626.931,1382.786,650.4z"/>
<path class="st1" d="M1117.224,650.4c0,23.472-2.463,42.511-5.5,42.511s-5.5-19.039-5.5-42.511c0-23.47,2.463-42.508,5.5-42.508
	S1117.224,626.931,1117.224,650.4z"/>
<path class="st1" d="M1155.161,650.4c0,23.472-2.463,42.511-5.5,42.511s-5.5-19.039-5.5-42.511c0-23.47,2.463-42.508,5.5-42.508
	S1155.161,626.931,1155.161,650.4z"/>
<path class="st1" d="M1496.599,650.4c0,23.472-2.463,42.511-5.5,42.511s-5.5-19.039-5.5-42.511c0-23.47,2.463-42.508,5.5-42.508
	S1496.599,626.931,1496.599,650.4z"/>
<path class="st1" d="M1572.474,650.4c0,23.472-2.463,42.511-5.5,42.511s-5.5-19.039-5.5-42.511c0-23.47,2.463-42.508,5.5-42.508
	S1572.474,626.931,1572.474,650.4z"/>
<rect x="986.466" y="-837" class="st0" width="640" height="480"/>
<circle class="st1" cx="1101.466" cy="-440" r="5.5"/>
<circle class="st1" cx="1000.466" cy="-468" r="5.5"/>
<circle class="st1" cx="1147.466" cy="-387" r="5.5"/>
<circle class="st1" cx="1460.466" cy="-413.5" r="5.5"/>
<circle class="st1" cx="1139.466" cy="-430" r="5.5"/>
<circle class="st1" cx="1500.466" cy="-427.5" r="5.5"/>
<circle class="st1" cx="1017.966" cy="-425" r="5.5"/>
<circle class="st1" cx="1109.466" cy="-373" r="5.5"/>
<circle class="st1" cx="1069.966" cy="-419.5" r="5.5"/>
<circle class="st1" cx="1010.466" cy="-374.5" r="5.5"/>
<circle class="st1" cx="1103.466" cy="-404" r="5.5"/>
<circle class="st1" cx="1063.466" cy="-375" r="5.5"/>
<circle class="st1" cx="1234.966" cy="-435" r="5.5"/>
<circle class="st1" cx="1394.966" cy="-373.5" r="5.5"/>
<circle class="st1" cx="1617.466" cy="-367" r="5.5"/>
<circle class="st1" cx="1611.466" cy="-418" r="5.5"/>
<circle class="st1" cx="1314.466" cy="-430" r="5.5"/>
<circle class="st1" cx="1399.966" cy="-402" r="5.5"/>
<circle class="st1" cx="1171.466" cy="-407.5" r="5.5"/>
<circle class="st1" cx="1000.466" cy="-399.5" r="5.5"/>
<circle class="st1" cx="1223.466" cy="-402" r="5.5"/>
<circle class="st1" cx="1454.966" cy="-368" r="5.5"/>
<circle class="st1" cx="1432.466" cy="-396" r="5.5"/>
<circle class="st1" cx="1517.466" cy="-369" r="5.5"/>
<circle class="st1" cx="1266.966" cy="-407" r="5.5"/>
<circle class="st1" cx="1574.466" cy="-372" r="5.5"/>
<circle class="st1" cx="1574.466" cy="-416" r="5.5"/>
<circle class="st1" cx="1514.466" cy="-398" r="5.5"/>
<circle class="st1" cx="1544.466" cy="-414" r="5.5"/>
<circle class="st1" cx="1284.466" cy="-372.5" r="5.5"/>
<circle class="st1" cx="1337.466" cy="-373" r="5.5"/>
<circle class="st1" cx="1315.966" cy="-397" r="5.5"/>
<circle class="st1" cx="1484.466" cy="-382.5" r="5.5"/>
<circle class="st1" cx="1353.966" cy="-397" r="5.5"/>
<circle class="st1" cx="1604.466" cy="-449" r="5.5"/>
<circle class="st1" cx="1191.466" cy="-374.5" r="5.5"/>
<circle class="st1" cx="1244.466" cy="-375" r="5.5"/>
<circle class="st1" cx="1030.466" cy="-393" r="5.5"/>
<circle class="st1" cx="1380.966" cy="-431" r="5.5"/>
<circle class="st1" cx="1433.966" cy="-431.5" r="5.5"/>
<circle class="st1" cx="1544.966" cy="-386.5" r="5.5"/>
<circle class="st1" cx="1597.966" cy="-387" r="5.5"/>
<rect x="987" y="-356" class="st0" width="640" height="480"/>
<circle class="st1" cx="1078.875" cy="-350.5" r="5.5"/>
<circle class="st1" cx="1003" cy="-350.5" r="5.5"/>
<circle class="st1" cx="1040.938" cy="-350.5" r="5.5"/>
<circle class="st1" cx="1268.562" cy="-350.5" r="5.5"/>
<circle class="st1" cx="1610" cy="-350.5" r="5.5"/>
<circle class="st1" cx="1344.438" cy="-350.5" r="5.5"/>
<circle class="st1" cx="1306.5" cy="-350.5" r="5.5"/>
<circle class="st1" cx="1458.25" cy="-350.5" r="5.5"/>
<circle class="st1" cx="1534.125" cy="-350.5" r="5.5"/>
<circle class="st1" cx="1420.312" cy="-350.5" r="5.5"/>
<circle class="st1" cx="1192.688" cy="-350.5" r="5.5"/>
<circle class="st1" cx="1230.625" cy="-350.5" r="5.5"/>
<circle class="st1" cx="1382.375" cy="-350.5" r="5.5"/>
<circle class="st1" cx="1116.812" cy="-350.5" r="5.5"/>
<circle class="st1" cx="1154.75" cy="-350.5" r="5.5"/>
<circle class="st1" cx="1496.188" cy="-350.5" r="5.5"/>
<circle class="st1" cx="1572.062" cy="-350.5" r="5.5"/>
<circle class="st1" cx="1078.875" cy="-317" r="5.5"/>
<circle class="st1" cx="1003" cy="-317" r="5.5"/>
<circle class="st1" cx="1040.938" cy="-317" r="5.5"/>
<circle class="st1" cx="1268.562" cy="-317" r="5.5"/>
<circle class="st1" cx="1610" cy="-317" r="5.5"/>
<circle class="st1" cx="1344.438" cy="-317" r="5.5"/>
<circle class="st1" cx="1306.5" cy="-317" r="5.5"/>
<circle class="st1" cx="1458.25" cy="-317" r="5.5"/>
<circle class="st1" cx="1534.125" cy="-317" r="5.5"/>
<circle class="st1" cx="1420.312" cy="-317" r="5.5"/>
<circle class="st1" cx="1192.688" cy="-317" r="5.5"/>
<circle class="st1" cx="1230.625" cy="-317" r="5.5"/>
<circle class="st1" cx="1382.375" cy="-317" r="5.5"/>
<circle class="st1" cx="1116.812" cy="-317" r="5.5"/>
<circle class="st1" cx="1154.75" cy="-317" r="5.5"/>
<circle class="st1" cx="1496.188" cy="-317" r="5.5"/>
<circle class="st1" cx="1572.062" cy="-317" r="5.5"/>
<circle class="st1" cx="1078.875" cy="-283.5" r="5.5"/>
<circle class="st1" cx="1003" cy="-283.5" r="5.5"/>
<circle class="st1" cx="1040.938" cy="-283.5" r="5.5"/>
<circle class="st1" cx="1268.562" cy="-283.5" r="5.5"/>
<circle class="st1" cx="1610" cy="-283.5" r="5.5"/>
<circle class="st1" cx="1344.438" cy="-283.5" r="5.5"/>
<circle class="st1" cx="1306.5" cy="-283.5" r="5.5"/>
<circle class="st1" cx="1458.25" cy="-283.5" r="5.5"/>
<circle class="st1" cx="1534.125" cy="-283.5" r="5.5"/>
<circle class="st1" cx="1420.312" cy="-283.5" r="5.5"/>
<circle class="st1" cx="1192.688" cy="-283.5" r="5.5"/>
<circle class="st1" cx="1230.625" cy="-283.5" r="5.5"/>
<circle class="st1" cx="1382.375" cy="-283.5" r="5.5"/>
<circle class="st1" cx="1116.812" cy="-283.5" r="5.5"/>
<circle class="st1" cx="1154.75" cy="-283.5" r="5.5"/>
<circle class="st1" cx="1496.188" cy="-283.5" r="5.5"/>
<circle class="st1" cx="1572.062" cy="-283.5" r="5.5"/>
<circle class="st1" cx="1078.875" cy="-250" r="5.5"/>
<circle class="st1" cx="1003" cy="-250" r="5.5"/>
<circle class="st1" cx="1040.938" cy="-250" r="5.5"/>
<circle class="st1" cx="1268.562" cy="-250" r="5.5"/>
<circle class="st1" cx="1610" cy="-250" r="5.5"/>
<circle class="st1" cx="1344.438" cy="-250" r="5.5"/>
<circle class="st1" cx="1306.5" cy="-250" r="5.5"/>
<circle class="st1" cx="1458.25" cy="-250" r="5.5"/>
<circle class="st1" cx="1534.125" cy="-250" r="5.5"/>
<circle class="st1" cx="1420.312" cy="-250" r="5.5"/>
<circle class="st1" cx="1192.688" cy="-250" r="5.5"/>
<circle class="st1" cx="1230.625" cy="-250" r="5.5"/>
<circle class="st1" cx="1382.375" cy="-250" r="5.5"/>
<circle class="st1" cx="1116.812" cy="-250" r="5.5"/>
<circle class="st1" cx="1154.75" cy="-250" r="5.5"/>
<circle class="st1" cx="1496.188" cy="-250" r="5.5"/>
<circle class="st1" cx="1572.062" cy="-250" r="5.5"/>
<circle class="st1" cx="1079.812" cy="-216.5" r="5.5"/>
<circle class="st1" cx="1003.938" cy="-216.5" r="5.5"/>
<circle class="st1" cx="1041.875" cy="-216.5" r="5.5"/>
<circle class="st1" cx="1269.5" cy="-216.5" r="5.5"/>
<circle class="st1" cx="1610.938" cy="-216.5" r="5.5"/>
<circle class="st1" cx="1345.375" cy="-216.5" r="5.5"/>
<circle class="st1" cx="1307.438" cy="-216.5" r="5.5"/>
<circle class="st1" cx="1459.188" cy="-216.5" r="5.5"/>
<circle class="st1" cx="1535.062" cy="-216.5" r="5.5"/>
<circle class="st1" cx="1421.25" cy="-216.5" r="5.5"/>
<circle class="st1" cx="1193.625" cy="-216.5" r="5.5"/>
<circle class="st1" cx="1231.562" cy="-216.5" r="5.5"/>
<circle class="st1" cx="1383.312" cy="-216.5" r="5.5"/>
<circle class="st1" cx="1117.75" cy="-216.5" r="5.5"/>
<circle class="st1" cx="1155.688" cy="-216.5" r="5.5"/>
<circle class="st1" cx="1497.125" cy="-216.5" r="5.5"/>
<circle class="st1" cx="1573" cy="-216.5" r="5.5"/>
<circle class="st1" cx="1079.812" cy="-183" r="5.5"/>
<circle class="st1" cx="1003.938" cy="-183" r="5.5"/>
<circle class="st1" cx="1041.875" cy="-183" r="5.5"/>
<circle class="st1" cx="1269.5" cy="-183" r="5.5"/>
<circle class="st1" cx="1610.938" cy="-183" r="5.5"/>
<circle class="st1" cx="1345.375" cy="-183" r="5.5"/>
<circle class="st1" cx="1307.438" cy="-183" r="5.5"/>
<circle class="st1" cx="1459.188" cy="-183" r="5.5"/>
<circle class="st1" cx="1535.062" cy="-183" r="5.5"/>
<circle class="st1" cx="1421.25" cy="-183" r="5.5"/>
<circle class="st1" cx="1193.625" cy="-183" r="5.5"/>
<circle class="st1" cx="1231.562" cy="-183" r="5.5"/>
<circle class="st1" cx="1383.312" cy="-183" r="5.5"/>
<circle class="st1" cx="1117.75" cy="-183" r="5.5"/>
<circle class="st1" cx="1155.688" cy="-183" r="5.5"/>
<circle class="st1" cx="1497.125" cy="-183" r="5.5"/>
<circle class="st1" cx="1573" cy="-183" r="5.5"/>
<circle class="st1" cx="1079.812" cy="-149.5" r="5.5"/>
<circle class="st1" cx="1003.938" cy="-149.5" r="5.5"/>
<circle class="st1" cx="1041.875" cy="-149.5" r="5.5"/>
<circle class="st1" cx="1269.5" cy="-149.5" r="5.5"/>
<circle class="st1" cx="1610.938" cy="-149.5" r="5.5"/>
<circle class="st1" cx="1345.375" cy="-149.5" r="5.5"/>
<circle class="st1" cx="1307.438" cy="-149.5" r="5.5"/>
<circle class="st1" cx="1459.188" cy="-149.5" r="5.5"/>
<circle class="st1" cx="1535.062" cy="-149.5" r="5.5"/>
<circle class="st1" cx="1421.25" cy="-149.5" r="5.5"/>
<circle class="st1" cx="1193.625" cy="-149.5" r="5.5"/>
<circle class="st1" cx="1231.562" cy="-149.5" r="5.5"/>
<circle class="st1" cx="1383.312" cy="-149.5" r="5.5"/>
<circle class="st1" cx="1117.75" cy="-149.5" r="5.5"/>
<circle class="st1" cx="1155.688" cy="-149.5" r="5.5"/>
<circle class="st1" cx="1497.125" cy="-149.5" r="5.5"/>
<circle class="st1" cx="1573" cy="-149.5" r="5.5"/>
<circle class="st1" cx="1079.812" cy="-116" r="5.5"/>
<circle class="st1" cx="1003.938" cy="-116" r="5.5"/>
<circle class="st1" cx="1041.875" cy="-116" r="5.5"/>
<circle class="st1" cx="1269.5" cy="-116" r="5.5"/>
<circle class="st1" cx="1610.938" cy="-116" r="5.5"/>
<circle class="st1" cx="1345.375" cy="-116" r="5.5"/>
<circle class="st1" cx="1307.438" cy="-116" r="5.5"/>
<circle class="st1" cx="1459.188" cy="-116" r="5.5"/>
<circle class="st1" cx="1535.062" cy="-116" r="5.5"/>
<circle class="st1" cx="1421.25" cy="-116" r="5.5"/>
<circle class="st1" cx="1193.625" cy="-116" r="5.5"/>
<circle class="st1" cx="1231.562" cy="-116" r="5.5"/>
<circle class="st1" cx="1383.312" cy="-116" r="5.5"/>
<circle class="st1" cx="1117.75" cy="-116" r="5.5"/>
<circle class="st1" cx="1155.688" cy="-116" r="5.5"/>
<circle class="st1" cx="1497.125" cy="-116" r="5.5"/>
<circle class="st1" cx="1573" cy="-116" r="5.5"/>
<circle class="st1" cx="1079.875" cy="-82.5" r="5.5"/>
<circle class="st1" cx="1004" cy="-82.5" r="5.5"/>
<circle class="st1" cx="1041.938" cy="-82.5" r="5.5"/>
<circle class="st1" cx="1269.562" cy="-82.5" r="5.5"/>
<circle class="st1" cx="1611" cy="-82.5" r="5.5"/>
<circle class="st1" cx="1345.438" cy="-82.5" r="5.5"/>
<circle class="st1" cx="1307.5" cy="-82.5" r="5.5"/>
<circle class="st1" cx="1459.25" cy="-82.5" r="5.5"/>
<circle class="st1" cx="1535.125" cy="-82.5" r="5.5"/>
<circle class="st1" cx="1421.312" cy="-82.5" r="5.5"/>
<circle class="st1" cx="1193.688" cy="-82.5" r="5.5"/>
<circle class="st1" cx="1231.625" cy="-82.5" r="5.5"/>
<circle class="st1" cx="1383.375" cy="-82.5" r="5.5"/>
<circle class="st1" cx="1117.812" cy="-82.5" r="5.5"/>
<circle class="st1" cx="1155.75" cy="-82.5" r="5.5"/>
<circle class="st1" cx="1497.188" cy="-82.5" r="5.5"/>
<circle class="st1" cx="1573.062" cy="-82.5" r="5.5"/>
<circle class="st1" cx="1079.875" cy="-49" r="5.5"/>
<circle class="st1" cx="1004" cy="-49" r="5.5"/>
<circle class="st1" cx="1041.938" cy="-49" r="5.5"/>
<circle class="st1" cx="1269.562" cy="-49" r="5.5"/>
<circle class="st1" cx="1611" cy="-49" r="5.5"/>
<circle class="st1" cx="1345.438" cy="-49" r="5.5"/>
<circle class="st1" cx="1307.5" cy="-49" r="5.5"/>
<circle class="st1" cx="1459.25" cy="-49" r="5.5"/>
<circle class="st1" cx="1535.125" cy="-49" r="5.5"/>
<circle class="st1" cx="1421.312" cy="-49" r="5.5"/>
<circle class="st1" cx="1193.688" cy="-49" r="5.5"/>
<circle class="st1" cx="1231.625" cy="-49" r="5.5"/>
<circle class="st1" cx="1383.375" cy="-49" r="5.5"/>
<circle class="st1" cx="1117.812" cy="-49" r="5.5"/>
<circle class="st1" cx="1155.75" cy="-49" r="5.5"/>
<circle class="st1" cx="1497.188" cy="-49" r="5.5"/>
<circle class="st1" cx="1573.062" cy="-49" r="5.5"/>
<circle class="st1" cx="1079.875" cy="-15.5" r="5.5"/>
<circle class="st1" cx="1004" cy="-15.5" r="5.5"/>
<circle class="st1" cx="1041.938" cy="-15.5" r="5.5"/>
<circle class="st1" cx="1269.562" cy="-15.5" r="5.5"/>
<circle class="st1" cx="1611" cy="-15.5" r="5.5"/>
<circle class="st1" cx="1345.438" cy="-15.5" r="5.5"/>
<circle class="st1" cx="1307.5" cy="-15.5" r="5.5"/>
<circle class="st1" cx="1459.25" cy="-15.5" r="5.5"/>
<circle class="st1" cx="1535.125" cy="-15.5" r="5.5"/>
<circle class="st1" cx="1421.312" cy="-15.5" r="5.5"/>
<circle class="st1" cx="1193.688" cy="-15.5" r="5.5"/>
<circle class="st1" cx="1231.625" cy="-15.5" r="5.5"/>
<circle class="st1" cx="1383.375" cy="-15.5" r="5.5"/>
<circle class="st1" cx="1117.812" cy="-15.5" r="5.5"/>
<circle class="st1" cx="1155.75" cy="-15.5" r="5.5"/>
<circle class="st1" cx="1497.188" cy="-15.5" r="5.5"/>
<circle class="st1" cx="1573.062" cy="-15.5" r="5.5"/>
<circle class="st1" cx="1079.875" cy="18" r="5.5"/>
<circle class="st1" cx="1004" cy="18" r="5.5"/>
<circle class="st1" cx="1041.938" cy="18" r="5.5"/>
<circle class="st1" cx="1269.562" cy="18" r="5.5"/>
<circle class="st1" cx="1611" cy="18" r="5.5"/>
<circle class="st1" cx="1345.438" cy="18" r="5.5"/>
<circle class="st1" cx="1307.5" cy="18" r="5.5"/>
<circle class="st1" cx="1459.25" cy="18" r="5.5"/>
<circle class="st1" cx="1535.125" cy="18" r="5.5"/>
<circle class="st1" cx="1421.312" cy="18" r="5.5"/>
<circle class="st1" cx="1193.688" cy="18" r="5.5"/>
<circle class="st1" cx="1231.625" cy="18" r="5.5"/>
<circle class="st1" cx="1383.375" cy="18" r="5.5"/>
<circle class="st1" cx="1117.812" cy="18" r="5.5"/>
<circle class="st1" cx="1155.75" cy="18" r="5.5"/>
<circle class="st1" cx="1497.188" cy="18" r="5.5"/>
<circle class="st1" cx="1573.062" cy="18" r="5.5"/>
<circle class="st1" cx="1079.875" cy="51.5" r="5.5"/>
<circle class="st1" cx="1004" cy="51.5" r="5.5"/>
<circle class="st1" cx="1041.938" cy="51.5" r="5.5"/>
<circle class="st1" cx="1269.562" cy="51.5" r="5.5"/>
<circle class="st1" cx="1611" cy="51.5" r="5.5"/>
<circle class="st1" cx="1345.438" cy="51.5" r="5.5"/>
<circle class="st1" cx="1307.5" cy="51.5" r="5.5"/>
<circle class="st1" cx="1459.25" cy="51.5" r="5.5"/>
<circle class="st1" cx="1535.125" cy="51.5" r="5.5"/>
<circle class="st1" cx="1421.312" cy="51.5" r="5.5"/>
<circle class="st1" cx="1193.688" cy="51.5" r="5.5"/>
<circle class="st1" cx="1231.625" cy="51.5" r="5.5"/>
<circle class="st1" cx="1383.375" cy="51.5" r="5.5"/>
<circle class="st1" cx="1117.812" cy="51.5" r="5.5"/>
<circle class="st1" cx="1155.75" cy="51.5" r="5.5"/>
<circle class="st1" cx="1497.188" cy="51.5" r="5.5"/>
<circle class="st1" cx="1573.062" cy="51.5" r="5.5"/>
<circle class="st1" cx="1079.875" cy="85" r="5.5"/>
<circle class="st1" cx="1004" cy="85" r="5.5"/>
<circle class="st1" cx="1041.938" cy="85" r="5.5"/>
<circle class="st1" cx="1269.562" cy="85" r="5.5"/>
<circle class="st1" cx="1611" cy="85" r="5.5"/>
<circle class="st1" cx="1345.438" cy="85" r="5.5"/>
<circle class="st1" cx="1307.5" cy="85" r="5.5"/>
<circle class="st1" cx="1459.25" cy="85" r="5.5"/>
<circle class="st1" cx="1535.125" cy="85" r="5.5"/>
<circle class="st1" cx="1421.312" cy="85" r="5.5"/>
<circle class="st1" cx="1193.688" cy="85" r="5.5"/>
<circle class="st1" cx="1231.625" cy="85" r="5.5"/>
<circle class="st1" cx="1383.375" cy="85" r="5.5"/>
<circle class="st1" cx="1117.812" cy="85" r="5.5"/>
<circle class="st1" cx="1155.75" cy="85" r="5.5"/>
<circle class="st1" cx="1497.188" cy="85" r="5.5"/>
<circle class="st1" cx="1573.062" cy="85" r="5.5"/>
<circle class="st1" cx="1079.875" cy="118.5" r="5.5"/>
<circle class="st1" cx="1004" cy="118.5" r="5.5"/>
<circle class="st1" cx="1041.938" cy="118.5" r="5.5"/>
<circle class="st1" cx="1269.562" cy="118.5" r="5.5"/>
<circle class="st1" cx="1611" cy="118.5" r="5.5"/>
<circle class="st1" cx="1345.438" cy="118.5" r="5.5"/>
<circle class="st1" cx="1307.5" cy="118.5" r="5.5"/>
<circle class="st1" cx="1459.25" cy="118.5" r="5.5"/>
<circle class="st1" cx="1535.125" cy="118.5" r="5.5"/>
<circle class="st1" cx="1421.312" cy="118.5" r="5.5"/>
<circle class="st1" cx="1193.688" cy="118.5" r="5.5"/>
<circle class="st1" cx="1231.625" cy="118.5" r="5.5"/>
<circle class="st1" cx="1383.375" cy="118.5" r="5.5"/>
<circle class="st1" cx="1117.812" cy="118.5" r="5.5"/>
<circle class="st1" cx="1155.75" cy="118.5" r="5.5"/>
<circle class="st1" cx="1497.188" cy="118.5" r="5.5"/>
<circle class="st1" cx="1573.062" cy="118.5" r="5.5"/>
<rect x="987.209" y="124.185" class="st0" width="640" height="480"/>
<circle class="st1" cx="1081.107" cy="148.402" r="5.5"/>
<circle class="st1" cx="1005.232" cy="148.402" r="5.5"/>
<circle class="st1" cx="1043.17" cy="148.402" r="5.5"/>
<circle class="st1" cx="1270.795" cy="148.402" r="5.5"/>
<circle class="st1" cx="1612.232" cy="148.402" r="5.5"/>
<circle class="st1" cx="1346.67" cy="148.402" r="5.5"/>
<circle class="st1" cx="1308.732" cy="148.402" r="5.5"/>
<circle class="st1" cx="1460.482" cy="148.402" r="5.5"/>
<circle class="st1" cx="1536.357" cy="148.402" r="5.5"/>
<circle class="st1" cx="1422.545" cy="148.402" r="5.5"/>
<circle class="st1" cx="1194.92" cy="148.402" r="5.5"/>
<circle class="st1" cx="1232.857" cy="148.402" r="5.5"/>
<circle class="st1" cx="1384.607" cy="148.402" r="5.5"/>
<circle class="st1" cx="1119.045" cy="148.402" r="5.5"/>
<circle class="st1" cx="1156.982" cy="148.402" r="5.5"/>
<circle class="st1" cx="1498.42" cy="148.402" r="5.5"/>
<circle class="st1" cx="1574.295" cy="148.402" r="5.5"/>
<ellipse class="st1" cx="1080.547" cy="180.901" rx="5.5" ry="8.25"/>
<ellipse class="st1" cx="1004.672" cy="180.901" rx="5.5" ry="8.25"/>
<ellipse class="st1" cx="1042.609" cy="180.901" rx="5.5" ry="8.25"/>
<ellipse class="st1" cx="1270.234" cy="180.901" rx="5.5" ry="8.25"/>
<ellipse class="st1" cx="1611.672" cy="180.901" rx="5.5" ry="8.25"/>
<ellipse class="st1" cx="1346.109" cy="180.901" rx="5.5" ry="8.25"/>
<path class="st1" d="M1313.598,182.249c-0.496,4.494-3.328,7.535-6.324,6.791s-5.023-4.992-4.527-9.486s3.328-7.535,6.324-6.791
	S1314.094,177.755,1313.598,182.249z"/>
<ellipse class="st1" cx="1459.922" cy="180.901" rx="5.5" ry="8.25"/>
<ellipse class="st1" cx="1535.797" cy="180.901" rx="5.5" ry="8.25"/>
<ellipse class="st1" cx="1421.984" cy="180.901" rx="5.5" ry="8.25"/>
<ellipse class="st1" cx="1194.359" cy="180.901" rx="5.5" ry="8.25"/>
<ellipse class="st1" cx="1232.297" cy="180.901" rx="5.5" ry="8.25"/>
<ellipse class="st1" cx="1384.047" cy="180.901" rx="5.5" ry="8.25"/>
<ellipse class="st1" cx="1118.484" cy="180.901" rx="5.5" ry="8.25"/>
<ellipse class="st1" cx="1156.422" cy="180.901" rx="5.5" ry="8.25"/>
<ellipse class="st1" cx="1497.859" cy="180.901" rx="5.5" ry="8.25"/>
<ellipse class="st1" cx="1573.734" cy="180.901" rx="5.5" ry="8.25"/>
<ellipse class="st1" cx="1079.718" cy="225.231" rx="5.5" ry="13.68"/>
<ellipse class="st1" cx="1003.843" cy="225.231" rx="5.5" ry="13.68"/>
<ellipse class="st1" cx="1041.78" cy="225.231" rx="5.5" ry="13.68"/>
<ellipse class="st1" cx="1269.405" cy="225.231" rx="5.5" ry="13.68"/>
<ellipse class="st1" cx="1610.843" cy="225.231" rx="5.5" ry="13.68"/>
<ellipse class="st1" cx="1345.28" cy="225.231" rx="5.5" ry="13.68"/>
<path class="st1" d="M1312.769,227.466c-0.496,7.452-3.328,12.494-6.324,11.261s-5.023-8.278-4.527-15.729
	c0.496-7.453,3.328-12.496,6.324-11.262S1313.265,220.014,1312.769,227.466z"/>
<ellipse class="st1" cx="1459.093" cy="225.231" rx="5.5" ry="13.68"/>
<ellipse class="st1" cx="1534.968" cy="225.231" rx="5.5" ry="13.68"/>
<ellipse class="st1" cx="1421.155" cy="225.231" rx="5.5" ry="13.68"/>
<ellipse class="st1" cx="1193.53" cy="225.231" rx="5.5" ry="13.68"/>
<ellipse class="st1" cx="1231.468" cy="225.231" rx="5.5" ry="13.68"/>
<ellipse class="st1" cx="1383.218" cy="225.231" rx="5.5" ry="13.68"/>
<ellipse class="st1" cx="1117.655" cy="225.231" rx="5.5" ry="13.68"/>
<ellipse class="st1" cx="1155.593" cy="225.231" rx="5.5" ry="13.68"/>
<ellipse class="st1" cx="1497.03" cy="225.231" rx="5.5" ry="13.68"/>
<ellipse class="st1" cx="1572.905" cy="225.231" rx="5.5" ry="13.68"/>
<path class="st1" d="M1084.218,285.053c0,13.767-2.463,24.933-5.5,24.933s-5.5-11.166-5.5-24.933s2.463-24.933,5.5-24.933
	S1084.218,271.286,1084.218,285.053z"/>
<path class="st1" d="M1008.343,285.053c0,13.767-2.463,24.933-5.5,24.933s-5.5-11.166-5.5-24.933s2.463-24.933,5.5-24.933
	S1008.343,271.286,1008.343,285.053z"/>
<path class="st1" d="M1046.28,285.053c0,13.767-2.463,24.933-5.5,24.933s-5.5-11.166-5.5-24.933s2.463-24.933,5.5-24.933
	S1046.28,271.286,1046.28,285.053z"/>
<path class="st1" d="M1273.905,285.053c0,13.767-2.463,24.933-5.5,24.933s-5.5-11.166-5.5-24.933s2.463-24.933,5.5-24.933
	S1273.905,271.286,1273.905,285.053z"/>
<path class="st1" d="M1615.343,285.053c0,13.767-2.463,24.933-5.5,24.933s-5.5-11.166-5.5-24.933s2.463-24.933,5.5-24.933
	S1615.343,271.286,1615.343,285.053z"/>
<path class="st1" d="M1349.78,285.053c0,13.767-2.463,24.933-5.5,24.933s-5.5-11.166-5.5-24.933s2.463-24.933,5.5-24.933
	S1349.78,271.286,1349.78,285.053z"/>
<path class="st1" d="M1311.769,289.126c-0.496,13.58-3.328,22.771-6.324,20.521c-2.996-2.248-5.023-15.086-4.527-28.667
	s3.328-22.772,6.324-20.522C1310.237,262.706,1312.265,275.544,1311.769,289.126z"/>
<path class="st1" d="M1463.593,285.053c0,13.767-2.463,24.933-5.5,24.933s-5.5-11.166-5.5-24.933s2.463-24.933,5.5-24.933
	S1463.593,271.286,1463.593,285.053z"/>
<path class="st1" d="M1539.468,285.053c0,13.767-2.463,24.933-5.5,24.933s-5.5-11.166-5.5-24.933s2.463-24.933,5.5-24.933
	S1539.468,271.286,1539.468,285.053z"/>
<path class="st1" d="M1425.655,285.053c0,13.767-2.463,24.933-5.5,24.933s-5.5-11.166-5.5-24.933s2.463-24.933,5.5-24.933
	S1425.655,271.286,1425.655,285.053z"/>
<path class="st1" d="M1198.03,285.053c0,13.767-2.463,24.933-5.5,24.933s-5.5-11.166-5.5-24.933s2.463-24.933,5.5-24.933
	S1198.03,271.286,1198.03,285.053z"/>
<path class="st1" d="M1235.968,285.053c0,13.767-2.463,24.933-5.5,24.933s-5.5-11.166-5.5-24.933s2.463-24.933,5.5-24.933
	S1235.968,271.286,1235.968,285.053z"/>
<path class="st1" d="M1387.718,285.053c0,13.767-2.463,24.933-5.5,24.933s-5.5-11.166-5.5-24.933s2.463-24.933,5.5-24.933
	S1387.718,271.286,1387.718,285.053z"/>
<path class="st1" d="M1122.155,285.053c0,13.767-2.463,24.933-5.5,24.933s-5.5-11.166-5.5-24.933s2.463-24.933,5.5-24.933
	S1122.155,271.286,1122.155,285.053z"/>
<path class="st1" d="M1160.093,285.053c0,13.767-2.463,24.933-5.5,24.933s-5.5-11.166-5.5-24.933s2.463-24.933,5.5-24.933
	S1160.093,271.286,1160.093,285.053z"/>
<path class="st1" d="M1501.53,285.053c0,13.767-2.463,24.933-5.5,24.933s-5.5-11.166-5.5-24.933s2.463-24.933,5.5-24.933
	S1501.53,271.286,1501.53,285.053z"/>
<path class="st1" d="M1577.405,285.053c0,13.767-2.463,24.933-5.5,24.933s-5.5-11.166-5.5-24.933s2.463-24.933,5.5-24.933
	S1577.405,271.286,1577.405,285.053z"/>
<path class="st1" d="M1085.218,377.628c0,23.473-2.463,42.512-5.5,42.512s-5.5-19.039-5.5-42.512c0-23.469,2.463-42.507,5.5-42.507
	S1085.218,354.159,1085.218,377.628z"/>
<path class="st1" d="M1009.343,377.628c0,23.473-2.463,42.512-5.5,42.512s-5.5-19.039-5.5-42.512c0-23.469,2.463-42.507,5.5-42.507
	S1009.343,354.159,1009.343,377.628z"/>
<path class="st1" d="M1047.28,377.628c0,23.473-2.463,42.512-5.5,42.512s-5.5-19.039-5.5-42.512c0-23.469,2.463-42.507,5.5-42.507
	S1047.28,354.159,1047.28,377.628z"/>
<path class="st1" d="M1274.905,377.628c0,23.473-2.463,42.512-5.5,42.512s-5.5-19.039-5.5-42.512c0-23.469,2.463-42.507,5.5-42.507
	S1274.905,354.159,1274.905,377.628z"/>
<path class="st1" d="M1616.343,377.628c0,23.473-2.463,42.512-5.5,42.512s-5.5-19.039-5.5-42.512c0-23.469,2.463-42.507,5.5-42.507
	S1616.343,354.159,1616.343,377.628z"/>
<path class="st1" d="M1350.78,377.628c0,23.473-2.463,42.512-5.5,42.512s-5.5-19.039-5.5-42.512c0-23.469,2.463-42.507,5.5-42.507
	S1350.78,354.159,1350.78,377.628z"/>
<path class="st1" d="M1312.769,384.575c-0.496,23.152-3.328,38.82-6.324,34.986c-2.996-3.832-5.023-25.719-4.527-48.876
	c0.496-23.153,3.328-38.824,6.324-34.988C1311.237,339.53,1313.265,361.417,1312.769,384.575z"/>
<path class="st1" d="M1464.593,377.628c0,23.473-2.463,42.512-5.5,42.512s-5.5-19.039-5.5-42.512c0-23.469,2.463-42.507,5.5-42.507
	S1464.593,354.159,1464.593,377.628z"/>
<path class="st1" d="M1540.468,377.628c0,23.473-2.463,42.512-5.5,42.512s-5.5-19.039-5.5-42.512c0-23.469,2.463-42.507,5.5-42.507
	S1540.468,354.159,1540.468,377.628z"/>
<path class="st1" d="M1426.655,377.628c0,23.473-2.463,42.512-5.5,42.512s-5.5-19.039-5.5-42.512c0-23.469,2.463-42.507,5.5-42.507
	S1426.655,354.159,1426.655,377.628z"/>
<path class="st1" d="M1199.03,377.628c0,23.473-2.463,42.512-5.5,42.512s-5.5-19.039-5.5-42.512c0-23.469,2.463-42.507,5.5-42.507
	S1199.03,354.159,1199.03,377.628z"/>
<path class="st1" d="M1236.968,377.628c0,23.473-2.463,42.512-5.5,42.512s-5.5-19.039-5.5-42.512c0-23.469,2.463-42.507,5.5-42.507
	S1236.968,354.159,1236.968,377.628z"/>
<path class="st1" d="M1388.718,377.628c0,23.473-2.463,42.512-5.5,42.512s-5.5-19.039-5.5-42.512c0-23.469,2.463-42.507,5.5-42.507
	S1388.718,354.159,1388.718,377.628z"/>
<path class="st1" d="M1123.155,377.628c0,23.473-2.463,42.512-5.5,42.512s-5.5-19.039-5.5-42.512c0-23.469,2.463-42.507,5.5-42.507
	S1123.155,354.159,1123.155,377.628z"/>
<path class="st1" d="M1161.093,377.628c0,23.473-2.463,42.512-5.5,42.512s-5.5-19.039-5.5-42.512c0-23.469,2.463-42.507,5.5-42.507
	S1161.093,354.159,1161.093,377.628z"/>
<path class="st1" d="M1502.53,377.628c0,23.473-2.463,42.512-5.5,42.512s-5.5-19.039-5.5-42.512c0-23.469,2.463-42.507,5.5-42.507
	S1502.53,354.159,1502.53,377.628z"/>
<path class="st1" d="M1578.405,377.628c0,23.473-2.463,42.512-5.5,42.512s-5.5-19.039-5.5-42.512c0-23.469,2.463-42.507,5.5-42.507
	S1578.405,354.159,1578.405,377.628z"/>
<path class="st1" d="M1085.24,492.954c0,32.372-2.463,58.631-5.5,58.631s-5.5-26.259-5.5-58.631c0-32.369,2.463-58.627,5.5-58.627
	S1085.24,460.585,1085.24,492.954z"/>
<path class="st1" d="M1009.365,492.954c0,32.372-2.463,58.631-5.5,58.631s-5.5-26.259-5.5-58.631c0-32.369,2.463-58.627,5.5-58.627
	S1009.365,460.585,1009.365,492.954z"/>
<path class="st1" d="M1047.303,492.954c0,32.372-2.463,58.631-5.5,58.631s-5.5-26.259-5.5-58.631c0-32.369,2.463-58.627,5.5-58.627
	S1047.303,460.585,1047.303,492.954z"/>
<path class="st1" d="M1274.928,492.954c0,32.372-2.463,58.631-5.5,58.631s-5.5-26.259-5.5-58.631c0-32.369,2.463-58.627,5.5-58.627
	S1274.928,460.585,1274.928,492.954z"/>
<path class="st1" d="M1616.365,492.954c0,32.372-2.463,58.631-5.5,58.631s-5.5-26.259-5.5-58.631c0-32.369,2.463-58.627,5.5-58.627
	S1616.365,460.585,1616.365,492.954z"/>
<path class="st1" d="M1350.803,492.954c0,32.372-2.463,58.631-5.5,58.631s-5.5-26.259-5.5-58.631c0-32.369,2.463-58.627,5.5-58.627
	S1350.803,460.585,1350.803,492.954z"/>
<path class="st1" d="M1312.791,502.534c-0.496,31.934-3.328,53.543-6.324,48.254c-2.996-5.284-5.023-35.472-4.527-67.41
	c0.496-31.932,3.328-53.546,6.324-48.256C1311.26,440.41,1313.287,470.595,1312.791,502.534z"/>
<path class="st1" d="M1464.615,492.954c0,32.372-2.463,58.631-5.5,58.631s-5.5-26.259-5.5-58.631c0-32.369,2.463-58.627,5.5-58.627
	S1464.615,460.585,1464.615,492.954z"/>
<path class="st1" d="M1540.49,492.954c0,32.372-2.463,58.631-5.5,58.631s-5.5-26.259-5.5-58.631c0-32.369,2.463-58.627,5.5-58.627
	S1540.49,460.585,1540.49,492.954z"/>
<path class="st1" d="M1426.678,492.954c0,32.372-2.463,58.631-5.5,58.631s-5.5-26.259-5.5-58.631c0-32.369,2.463-58.627,5.5-58.627
	S1426.678,460.585,1426.678,492.954z"/>
<path class="st1" d="M1199.053,492.954c0,32.372-2.463,58.631-5.5,58.631s-5.5-26.259-5.5-58.631c0-32.369,2.463-58.627,5.5-58.627
	S1199.053,460.585,1199.053,492.954z"/>
<path class="st1" d="M1236.99,492.954c0,32.372-2.463,58.631-5.5,58.631s-5.5-26.259-5.5-58.631c0-32.369,2.463-58.627,5.5-58.627
	S1236.99,460.585,1236.99,492.954z"/>
<path class="st1" d="M1388.74,492.954c0,32.372-2.463,58.631-5.5,58.631s-5.5-26.259-5.5-58.631c0-32.369,2.463-58.627,5.5-58.627
	S1388.74,460.585,1388.74,492.954z"/>
<path class="st1" d="M1123.178,492.954c0,32.372-2.463,58.631-5.5,58.631s-5.5-26.259-5.5-58.631c0-32.369,2.463-58.627,5.5-58.627
	S1123.178,460.585,1123.178,492.954z"/>
<path class="st1" d="M1161.115,492.954c0,32.372-2.463,58.631-5.5,58.631s-5.5-26.259-5.5-58.631c0-32.369,2.463-58.627,5.5-58.627
	S1161.115,460.585,1161.115,492.954z"/>
<path class="st1" d="M1502.553,492.954c0,32.372-2.463,58.631-5.5,58.631s-5.5-26.259-5.5-58.631c0-32.369,2.463-58.627,5.5-58.627
	S1502.553,460.585,1502.553,492.954z"/>
<path class="st1" d="M1578.428,492.954c0,32.372-2.463,58.631-5.5,58.631s-5.5-26.259-5.5-58.631c0-32.369,2.463-58.627,5.5-58.627
	S1578.428,460.585,1578.428,492.954z"/>
<path class="st1" d="M1085.24,617.835c0,23.472-2.463,42.511-5.5,42.511s-5.5-19.039-5.5-42.511c0-23.47,2.463-42.508,5.5-42.508
	S1085.24,594.365,1085.24,617.835z"/>
<path class="st1" d="M1009.365,617.835c0,23.472-2.463,42.511-5.5,42.511s-5.5-19.039-5.5-42.511c0-23.47,2.463-42.508,5.5-42.508
	S1009.365,594.365,1009.365,617.835z"/>
<path class="st1" d="M1047.303,617.835c0,23.472-2.463,42.511-5.5,42.511s-5.5-19.039-5.5-42.511c0-23.47,2.463-42.508,5.5-42.508
	S1047.303,594.365,1047.303,617.835z"/>
<path class="st1" d="M1274.928,617.835c0,23.472-2.463,42.511-5.5,42.511s-5.5-19.039-5.5-42.511c0-23.47,2.463-42.508,5.5-42.508
	S1274.928,594.365,1274.928,617.835z"/>
<path class="st1" d="M1616.365,617.835c0,23.472-2.463,42.511-5.5,42.511s-5.5-19.039-5.5-42.511c0-23.47,2.463-42.508,5.5-42.508
	S1616.365,594.365,1616.365,617.835z"/>
<path class="st1" d="M1350.803,617.835c0,23.472-2.463,42.511-5.5,42.511s-5.5-19.039-5.5-42.511c0-23.47,2.463-42.508,5.5-42.508
	S1350.803,594.365,1350.803,617.835z"/>
<path class="st1" d="M1312.791,624.781c-0.496,23.153-3.328,38.821-6.324,34.986c-2.996-3.831-5.023-25.719-4.527-48.876
	c0.496-23.152,3.328-38.824,6.324-34.988C1311.26,579.737,1313.287,601.623,1312.791,624.781z"/>
<path class="st1" d="M1464.615,617.835c0,23.472-2.463,42.511-5.5,42.511s-5.5-19.039-5.5-42.511c0-23.47,2.463-42.508,5.5-42.508
	S1464.615,594.365,1464.615,617.835z"/>
<path class="st1" d="M1540.49,617.835c0,23.472-2.463,42.511-5.5,42.511s-5.5-19.039-5.5-42.511c0-23.47,2.463-42.508,5.5-42.508
	S1540.49,594.365,1540.49,617.835z"/>
<path class="st1" d="M1426.678,617.835c0,23.472-2.463,42.511-5.5,42.511s-5.5-19.039-5.5-42.511c0-23.47,2.463-42.508,5.5-42.508
	S1426.678,594.365,1426.678,617.835z"/>
<path class="st1" d="M1199.053,617.835c0,23.472-2.463,42.511-5.5,42.511s-5.5-19.039-5.5-42.511c0-23.47,2.463-42.508,5.5-42.508
	S1199.053,594.365,1199.053,617.835z"/>
<path class="st1" d="M1236.99,617.835c0,23.472-2.463,42.511-5.5,42.511s-5.5-19.039-5.5-42.511c0-23.47,2.463-42.508,5.5-42.508
	S1236.99,594.365,1236.99,617.835z"/>
<path class="st1" d="M1388.74,617.835c0,23.472-2.463,42.511-5.5,42.511s-5.5-19.039-5.5-42.511c0-23.47,2.463-42.508,5.5-42.508
	S1388.74,594.365,1388.74,617.835z"/>
<path class="st1" d="M1123.178,617.835c0,23.472-2.463,42.511-5.5,42.511s-5.5-19.039-5.5-42.511c0-23.47,2.463-42.508,5.5-42.508
	S1123.178,594.365,1123.178,617.835z"/>
<path class="st1" d="M1161.115,617.835c0,23.472-2.463,42.511-5.5,42.511s-5.5-19.039-5.5-42.511c0-23.47,2.463-42.508,5.5-42.508
	S1161.115,594.365,1161.115,617.835z"/>
<path class="st1" d="M1502.553,617.835c0,23.472-2.463,42.511-5.5,42.511s-5.5-19.039-5.5-42.511c0-23.47,2.463-42.508,5.5-42.508
	S1502.553,594.365,1502.553,617.835z"/>
<path class="st1" d="M1578.428,617.835c0,23.472-2.463,42.511-5.5,42.511s-5.5-19.039-5.5-42.511c0-23.47,2.463-42.508,5.5-42.508
	S1578.428,594.365,1578.428,617.835z"/>
<path class="st1" d="M-337.483-677.965v479.999h640v-479.999H-337.483z M-242.685-295.807h-13.501v-94.5h13.501V-295.807z
	 M-242.685-404.307h-13.501v-64h13.501V-404.307z M-242.685-482.808h-13.501v-36.499h13.501V-482.808z M-242.685-531.807h-13.501
	v-13.5h13.501V-531.807z M-242.685-560.807h-13.501v-13.5h13.501V-560.807z M-242.685-588.307h-13.501v-13.5h13.501V-588.307z
	 M-192.51-240.215h-13.501v-13.501h13.501V-240.215z M-192.51-269.216h-13.501v-13.5h13.501V-269.216z M-192.51-296.716h-13.501
	v-13.5h13.501V-296.716z M-192.51-384.215h-13.501v-13.501h13.501V-384.215z M-192.51-413.216h-13.501v-13.5h13.501V-413.216z
	 M-192.51-440.716h-13.501v-13.5h13.501V-440.716z M-192.51-555.715h-13.501v-13.5h13.501V-555.715z M-192.51-584.715h-13.501v-13.5
	h13.501V-584.715z M-192.51-612.215h-13.501v-13.5h13.501V-612.215z M-103.493-247.548h-13.501v-13.5h13.501V-247.548z
	 M-103.493-281.806h-13.501v-94.5h13.501V-281.806z M-103.493-418.251h-13.501v-94.5h13.501V-418.251z M-103.493-534.383h-13.501
	v-13.5h13.501V-534.383z M-103.493-574.696h-13.501v-94.5h13.501V-574.696z M180.823-215.548h-13.501v-13.501h13.501V-215.548z
	 M180.823-244.549h-13.501v-13.5h13.501V-244.549z M180.823-272.049h-13.501v-13.5h13.501V-272.049z M180.823-359.548h-13.501
	v-13.501h13.501V-359.548z M180.823-388.549h-13.501v-13.5h13.501V-388.549z M180.823-416.048h-13.501v-13.5h13.501V-416.048z
	 M180.823-531.048h-13.501v-13.5h13.501V-531.048z M180.823-560.048h-13.501v-13.5h13.501V-560.048z M180.823-587.548h-13.501v-13.5
	h13.501V-587.548z M214.824-280.881h-13.502v-13.501h13.502V-280.881z M214.824-309.882h-13.502v-13.5h13.502V-309.882z
	 M214.824-337.382h-13.502v-13.5h13.502V-337.382z M214.824-424.881h-13.502v-13.501h13.502V-424.881z M214.824-453.882h-13.502
	v-13.5h13.502V-453.882z M214.824-481.382h-13.502v-13.5h13.502V-481.382z M214.824-596.381h-13.502v-13.5h13.502V-596.381z
	 M214.824-625.381h-13.502v-13.5h13.502V-625.381z M214.824-652.881h-13.502v-13.5h13.502V-652.881z M247.49-214.882h-13.5v-13.5
	h13.5V-214.882z M247.49-243.882h-13.5v-13.5h13.5V-243.882z M247.49-271.382h-13.5v-13.5h13.5V-271.382z M247.49-358.882h-13.5
	v-13.5h13.5V-358.882z M247.49-387.882h-13.5v-13.5h13.5V-387.882z M247.49-415.382h-13.5v-13.5h13.5V-415.382z M247.49-530.381
	h-13.5v-13.5h13.5V-530.381z M247.49-559.382h-13.5v-13.5h13.5V-559.382z M247.49-586.882h-13.5v-13.5h13.5V-586.882z"/>
<g>
	<path d="M410.212-535.877c0-0.624,0.528-1.152,1.152-1.152h0.144h9.361c5.28,0,9.553,4.32,9.553,9.601
		c0,5.28-4.272,9.553-9.553,9.553l-8.305,0.096v13.201c0,0.624-0.528,1.152-1.2,1.152c-0.624,0-1.152-0.528-1.152-1.152V-535.877z
		 M420.869-520.132c3.984-0.048,7.248-3.312,7.248-7.296s-3.264-7.249-7.248-7.249h-8.305v14.545H420.869z"/>
	<path d="M454.9-511.011c0-2.448-1.248-3.984-2.736-5.089c-1.487-1.056-3.264-1.584-3.888-1.68
		c-0.144-0.048-0.192-0.096-0.239-0.096h-8.162v13.297c0,0.624-0.527,1.152-1.199,1.152c-0.624,0-1.152-0.528-1.152-1.152v-31.299
		c0-0.576,0.48-1.104,1.057-1.152h0.096h0.145h9.36c5.28,0,9.553,4.272,9.553,9.601c0,3.84-2.257,7.152-5.521,8.688
		c0.145,0.096,0.288,0.144,0.48,0.24c2.207,1.248,4.512,3.696,4.512,7.489c0,1.968,0.192,3.168,0.432,3.888
		c0.192,0.576,0.433,0.768,0.48,0.816c0.528-0.048,1.104,0.24,1.297,0.768c0.144,0.624-0.145,1.296-0.769,1.536
		c-0.048,0-0.288,0.048-0.576,0.048h-0.097c-0.623,0-1.631-0.48-2.16-1.536C455.236-506.595,454.9-508.179,454.9-511.011z
		 M448.181-534.677h-8.306v14.497h8.065h0.433c3.888-0.096,7.057-3.312,7.057-7.249C455.43-531.461,452.164-534.677,448.181-534.677
		z"/>
	<path d="M482.117-537.509c8.977,0,16.033,7.633,16.082,17.042c-0.049,9.409-7.105,17.042-16.082,17.042
		c-9.072,0-16.178-7.633-16.225-17.042C465.939-529.876,473.045-537.509,482.117-537.509z M482.117-505.778
		c7.393,0,13.633-6.48,13.682-14.689c-0.049-8.305-6.289-14.641-13.682-14.641c-7.633,0-13.873,6.336-13.873,14.641
		C468.244-512.259,474.484-505.778,482.117-505.778z"/>
	<path d="M504.723-512.787c0.625-0.192,1.297,0.144,1.441,0.72c1.199,3.696,4.607,6.336,8.641,6.289
		c4.992,0,9.072-4.033,9.072-9.025v-21.074c0-0.624,0.528-1.152,1.152-1.152s1.152,0.528,1.152,1.152v21.074
		c0,6.336-5.089,11.377-11.377,11.377c-5.041,0-9.409-3.312-10.85-7.873C503.764-511.923,504.1-512.595,504.723-512.787z"/>
	<path d="M535.251-535.877c0-0.624,0.528-1.152,1.152-1.152h0.097h17.185c0.673,0,1.152,0.528,1.152,1.152
		c0,0.672-0.479,1.2-1.152,1.2h-16.081v13.297h14.064c0.625,0,1.152,0.528,1.152,1.2c0,0.624-0.527,1.152-1.152,1.152h-14.064v13.25
		h16.081c0.673,0,1.152,0.528,1.152,1.2c0,0.624-0.479,1.152-1.152,1.152h-17.138h-0.144h-0.097
		c-0.575-0.048-1.056-0.528-1.056-1.152V-535.877z"/>
	<path d="M579.7-537.509c4.128,0,7.921,1.44,10.849,3.696c0.528,0.432,0.624,1.248,0.191,1.68c-0.383,0.576-1.151,0.624-1.631,0.24
		c-2.593-2.016-5.857-3.265-9.409-3.265c-8.401,0-15.122,6.577-15.122,14.786c0,8.017,6.721,14.593,15.122,14.593
		c3.552,0,6.816-1.152,9.312-3.265c0.576-0.384,1.345-0.288,1.681,0.288c0.479,0.432,0.384,1.296-0.145,1.68
		c-2.928,2.256-6.721,3.648-10.849,3.648c-9.649,0-17.474-7.584-17.474-16.945C562.227-529.925,570.051-537.461,579.7-537.509z"/>
	<path d="M609.411-534.677h-10.129c-0.624,0-1.151-0.528-1.151-1.2c0-0.624,0.527-1.152,1.151-1.152h22.562
		c0.625,0,1.152,0.528,1.152,1.152c0,0.672-0.527,1.2-1.152,1.2h-10.129v30.099c0,0.624-0.527,1.152-1.151,1.152
		s-1.152-0.528-1.152-1.152V-534.677z"/>
	<path d="M629.57-509.715c0.384-0.48,1.056-0.528,1.488-0.144c2.496,2.016,6.672,4.369,11.041,4.32c2.928,0,5.568-0.864,7.393-2.208
		c1.871-1.344,2.88-3.12,2.88-4.993c0-1.92-0.912-3.36-2.736-4.608c-1.824-1.2-4.513-2.112-7.776-2.736h-0.096
		c-3.121-0.576-5.857-1.44-7.922-2.833c-2.063-1.344-3.455-3.36-3.455-5.856c0-2.544,1.392-4.752,3.504-6.289
		c2.111-1.536,4.944-2.448,8.112-2.448c4.417,0,7.729,2.16,10.369,3.888c0.479,0.336,0.624,0.96,0.288,1.488
		c-0.288,0.48-0.96,0.624-1.44,0.288c-2.64-1.728-5.521-3.552-9.217-3.552c-2.735,0-5.185,0.816-6.864,2.016
		c-1.68,1.248-2.641,2.88-2.641,4.608c0.049,1.68,0.816,2.928,2.496,4.081c1.681,1.152,4.177,1.968,7.201,2.544h0.096
		c3.36,0.624,6.337,1.584,8.545,3.072c2.208,1.44,3.696,3.648,3.696,6.336c0,2.688-1.536,5.089-3.792,6.721
		c-2.256,1.632-5.281,2.64-8.641,2.64c-5.137-0.048-9.602-2.64-12.386-4.848C629.282-508.611,629.234-509.283,629.57-509.715z"/>
</g>
<g>
	<path class="st1" d="M402.354,156.375c4.064,13.647,6.258,28.101,6.258,43.068c0,56.958-31.609,106.527-78.238,132.141
		c18.161,17.126,42.639,27.627,69.572,27.627c56.021,0,101.432-45.414,101.432-101.434
		C501.377,202.562,457.262,157.655,402.354,156.375z"/>
	<path class="st1" d="M257.945,98.011c-56.021,0-101.433,45.413-101.433,101.433c0,56.02,45.413,101.434,101.433,101.434
		c11.887,0,23.293-2.052,33.893-5.809c-2.399-6.957-4.144-14.218-5.165-21.71c-8.91,3.467-18.592,5.389-28.728,5.389
		c-43.799,0-79.304-35.506-79.304-79.304c0-43.797,35.505-79.303,79.304-79.303c32.264,0,60.008,19.28,72.394,46.937
		c5.886-4.524,12.224-8.487,18.937-11.811C332.854,121.379,298.13,98.011,257.945,98.011z"/>
	<path class="st1" d="M257.946,313.777c-63.145,0-114.334-51.189-114.334-114.334c0-63.144,51.189-114.333,114.334-114.333
		c45.512,0,84.808,26.594,103.208,65.088c6.099-2.2,12.438-3.896,18.967-5.038c-20.811-46.771-67.683-79.384-122.177-79.384
		c-73.822,0-133.666,59.844-133.666,133.666c0,73.824,59.844,133.667,133.666,133.667c17.201,0,33.642-3.252,48.745-9.17
		c-3.781-5.319-7.114-10.978-9.954-16.917C284.624,311.392,271.564,313.777,257.946,313.777z"/>
	<path class="st1" d="M359.377,199.443c0-11.254-1.836-22.08-5.22-32.196c-6.937,3.516-13.413,7.805-19.318,12.754
		c1.568,6.222,2.409,12.733,2.409,19.441c0,28.785-15.338,53.986-38.285,67.882c0.732,7.843,2.354,15.427,4.77,22.648
		C336.747,273.242,359.377,238.987,359.377,199.443z"/>
	<path class="st1" d="M257.944,129.088c-38.856,0-70.355,31.499-70.355,70.355s31.499,70.355,70.355,70.355
		c9.892,0,19.302-2.051,27.842-5.735c-0.113-2.081-0.174-4.177-0.174-6.286c0-33.592,14.488-63.799,37.554-84.717
		C312.728,147.281,287.468,129.088,257.944,129.088z"/>
	<path class="st1" d="M372.277,199.443c0,44.947-25.939,83.83-63.662,102.512c2.84,5.861,6.227,11.409,10.096,16.574
		c43.274-22.126,72.9-67.146,72.9-119.086c0-14.667-2.37-28.779-6.734-41.982c-6.498,0.968-12.792,2.554-18.825,4.693
		C370.083,173.842,372.277,186.386,372.277,199.443z"/>
	<path class="st1" d="M298.523,256.9c18.008-12.742,29.776-33.719,29.776-57.457c0-4.213-0.392-8.333-1.102-12.343
		C309.637,205.173,298.754,229.764,298.523,256.9z"/>
	<path class="st1" d="M-0.001-0.999V479H640V-0.999H-0.001z M70.396,471.824h-13.5V341.266h13.5V471.824z M70.396,296.553h-13.5
		v-48.29h13.5V296.553z M70.396,192.818h-13.5v-48.29h13.5V192.818z M70.396,94.449h-13.5v-48.29h13.5V94.449z M399.945,372.111
		c-32.083,0-61.074-13.221-81.838-34.504c-18.429,8.036-38.772,12.503-60.162,12.503c-83.211,0-150.667-67.455-150.667-150.667
		c0-83.21,67.456-150.666,150.667-150.666c63.429,0,117.697,39.201,139.918,94.693c0.693-0.012,1.386-0.026,2.082-0.026
		c63.145,0,114.332,51.189,114.332,114.333C514.277,320.922,463.09,372.111,399.945,372.111z M576.062,437.49h-13.5v-48.289h13.5
		V437.49z M576.062,339.121h-13.5v-48.289h13.5V339.121z M576.062,235.387h-13.5v-48.29h13.5V235.387z M576.062,142.384h-13.5
		V11.826h13.5V142.384z"/>
</g>
</svg>
