<?xml version="1.0" encoding="utf-8"?>
<!-- Generator: Adobe Illustrator 14.0.0, SVG Export Plug-In . SVG Version: 6.00 Build 43363)  -->
<!DOCTYPE svg PUBLIC "-//W3C//DTD SVG 1.1//EN" "http://www.w3.org/Graphics/SVG/1.1/DTD/svg11.dtd">
<svg version="1.1" id="Layer_1" xmlns="http://www.w3.org/2000/svg" xmlns:xlink="http://www.w3.org/1999/xlink" x="0px" y="0px"
	 width="640px" height="480px" viewBox="0 0 640 480" style="enable-background:new 0 0 640 480;" xml:space="preserve">
<style type="text/css">
<![CDATA[
	.st0{fill:#FFFFFF;}
]]>
</style>
<g>
	<path class="st0" d="M0,0v480h640V0H0z M56.214,237.174h13.501v64H56.214V237.174z M69.715,434.674h-13.5v-13.5h13.5V434.674z
		 M69.715,407.174h-13.5v-13.5h13.5V407.174z M69.715,378.174h-13.5v-13.5h13.5V378.174z M69.716,352.174H56.215v-36.5h13.501
		V352.174z M69.716,223.174H56.215v-94.5h13.501V223.174z M247.7,89.84l-13.057,31.011c-0.192,0.432-0.624,0.72-0.961,0.768h-0.096
		h-0.144c-0.192,0-0.385-0.048-0.576-0.192c-0.048-0.048-0.145-0.096-0.192-0.192c-0.048-0.048-0.144-0.192-0.191-0.288
		c0-0.048,0-0.096-0.049-0.144l-8.544-20.306l-8.593,20.306c0,0.096-0.049,0.192-0.097,0.24c-0.048,0.144-0.144,0.24-0.239,0.336
		c-0.049,0-0.097,0.048-0.097,0.048c-0.191,0.144-0.432,0.192-0.672,0.192c-0.288,0-0.528-0.096-0.72-0.24l-0.097-0.096
		l-0.048-0.048c-0.144-0.144-0.24-0.336-0.288-0.576L200.08,89.84c-0.288-0.576,0-1.296,0.576-1.536
		c0.576-0.288,1.296,0,1.536,0.576l12.001,28.562l8.545-20.21c0.24-0.432,0.672-0.72,1.104-0.72c0.528,0,0.961,0.288,1.2,0.72
		l8.497,20.21L245.54,88.88c0.288-0.576,0.912-0.864,1.584-0.576C247.7,88.544,247.988,89.264,247.7,89.84z M270.257,103.665
		c0.624,0,1.152,0.528,1.152,1.2c0,0.624-0.528,1.152-1.152,1.152h-14.065v13.25h16.082c0.672,0,1.151,0.528,1.151,1.2
		c0,0.624-0.479,1.152-1.151,1.152h-17.138h-0.145h-0.096c-0.576-0.048-1.056-0.528-1.056-1.152V89.168
		c0-0.624,0.527-1.152,1.151-1.152h0.097h17.186c0.672,0,1.151,0.528,1.151,1.152c0,0.672-0.479,1.2-1.151,1.2h-16.082v13.297
		H270.257z M300.737,121.619h-17.186h-0.096c-0.624,0-1.152-0.528-1.152-1.152V89.168c0-0.624,0.528-1.152,1.152-1.152
		c0.672,0,1.2,0.528,1.2,1.152v30.099h16.081c0.672,0,1.2,0.528,1.2,1.2C301.937,121.091,301.409,121.619,300.737,121.619z
		 M323.393,119.267c3.553,0,6.816-1.152,9.312-3.265c0.576-0.384,1.344-0.288,1.68,0.288c0.48,0.432,0.385,1.296-0.145,1.68
		c-2.928,2.256-6.721,3.648-10.848,3.648c-9.649,0-17.474-7.584-17.474-16.945c0-9.553,7.825-17.09,17.474-17.138
		c4.127,0,7.92,1.44,10.848,3.696c0.529,0.432,0.625,1.248,0.193,1.68c-0.385,0.576-1.152,0.624-1.633,0.24
		c-2.592-2.016-5.855-3.265-9.408-3.265c-8.401,0-15.122,6.577-15.122,14.786C308.271,112.69,314.992,119.267,323.393,119.267z
		 M358.193,121.619c-9.074,0-16.178-7.633-16.227-17.042c0.049-9.409,7.152-17.042,16.227-17.042c8.977,0,16.033,7.633,16.08,17.042
		C374.227,113.986,367.17,121.619,358.193,121.619z M410.562,120.467c0,0.624-0.529,1.152-1.152,1.152
		c-0.672,0-1.152-0.528-1.152-1.152v-27.65l-10.754,14.929c-0.238,0.384-0.623,0.528-0.959,0.528h-0.096
		c-0.432,0-0.77-0.144-1.008-0.528l-10.754-14.881v27.603c0,0.624-0.527,1.152-1.152,1.152c-0.672,0-1.199-0.528-1.199-1.152V89.36
		c0-0.384,0.191-0.72,0.48-0.912c0-0.048,0.047-0.048,0.096-0.096c0.527-0.336,1.248-0.24,1.631,0.288l11.953,16.562l11.906-16.562
		c0.336-0.528,1.104-0.624,1.631-0.288c0.145,0.144,0.24,0.24,0.336,0.384c0.098,0.192,0.193,0.432,0.193,0.624V120.467z
		 M436.865,103.665c0.623,0,1.152,0.528,1.152,1.2c0,0.624-0.529,1.152-1.152,1.152h-14.064v13.25h16.08
		c0.672,0,1.152,0.528,1.152,1.2c0,0.624-0.48,1.152-1.152,1.152h-17.137H421.6h-0.096c-0.576-0.048-1.057-0.528-1.057-1.152V89.168
		c0-0.624,0.529-1.152,1.152-1.152h0.096h17.186c0.672,0,1.152,0.528,1.152,1.152c0,0.672-0.48,1.2-1.152,1.2h-16.08v13.297H436.865
		z"/>
	<path class="st0" d="M358.193,89.936c-7.633,0-13.873,6.336-13.873,14.641c0,8.209,6.24,14.689,13.873,14.689
		c7.393,0,13.633-6.48,13.682-14.689C371.826,96.272,365.586,89.936,358.193,89.936z"/>
</g>
</svg>
