<?xml version="1.0" encoding="utf-8"?>
<!-- Generator: Adobe Illustrator 14.0.0, SVG Export Plug-In . SVG Version: 6.00 Build 43363)  -->
<!DOCTYPE svg PUBLIC "-//W3C//DTD SVG 1.1//EN" "http://www.w3.org/Graphics/SVG/1.1/DTD/svg11.dtd">
<svg version="1.1" id="Layer_1" xmlns="http://www.w3.org/2000/svg" xmlns:xlink="http://www.w3.org/1999/xlink" x="0px" y="0px"
	 width="30px" height="30px" viewBox="0 0 30 30" style="enable-background:new 0 0 30 30;" xml:space="preserve">
<style type="text/css">
<![CDATA[
	.st0{fill:url(#github-2-circle-outline-icon_2_);}
	.st1{fill:url(#SVGID_1_);}
]]>
</style>
<linearGradient id="github-2-circle-outline-icon_2_" gradientUnits="userSpaceOnUse" x1="11.0308" y1="28.8408" x2="18.9688" y2="1.1576">
	<stop  offset="0" style="stop-color:#8700E7"/>
	<stop  offset="0.0358" style="stop-color:#8C06E0"/>
	<stop  offset="0.0894" style="stop-color:#9918CB"/>
	<stop  offset="0.1541" style="stop-color:#B034AA"/>
	<stop  offset="0.2275" style="stop-color:#CE5B7B"/>
	<stop  offset="0.3067" style="stop-color:#F58D41"/>
	<stop  offset="0.4479" style="stop-color:#FF9933"/>
	<stop  offset="0.5951" style="stop-color:#FFB55C"/>
	<stop  offset="0.7485" style="stop-color:#FF6903"/>
	<stop  offset="0.8773" style="stop-color:#957AB7"/>
	<stop  offset="0.9816" style="stop-color:#1794FF"/>
</linearGradient>
<path id="github-2-circle-outline-icon_1_" class="st0" d="M15,3.4c3.099,0,6.011,1.207,8.203,3.397s3.397,5.104,3.397,8.203
	c0,3.1-1.206,6.012-3.397,8.203c-2.191,2.19-5.104,3.398-8.203,3.398c-3.099,0-6.012-1.208-8.203-3.398
	C4.606,21.012,3.399,18.1,3.399,15c0-3.099,1.207-6.012,3.398-8.203S11.902,3.4,15,3.4 M15,0.604C7.049,0.604,0.604,7.049,0.604,15
	c0,7.95,6.444,14.396,14.396,14.396c7.951,0,14.395-6.445,14.395-14.396C29.396,7.049,22.951,0.604,15,0.604L15,0.604z"/>
<g>
	<linearGradient id="SVGID_1_" gradientUnits="userSpaceOnUse" x1="10.376" y1="24.7451" x2="19.8015" y2="5.4199">
		<stop  offset="0" style="stop-color:#8700E7"/>
		<stop  offset="0.0358" style="stop-color:#8C06E0"/>
		<stop  offset="0.0894" style="stop-color:#9918CB"/>
		<stop  offset="0.1541" style="stop-color:#B034AA"/>
		<stop  offset="0.2275" style="stop-color:#CE5B7B"/>
		<stop  offset="0.3067" style="stop-color:#F58D41"/>
		<stop  offset="0.4479" style="stop-color:#FF9933"/>
		<stop  offset="0.5951" style="stop-color:#FFB55C"/>
		<stop  offset="0.7485" style="stop-color:#FF6903"/>
		<stop  offset="0.8773" style="stop-color:#957AB7"/>
		<stop  offset="0.9816" style="stop-color:#1794FF"/>
	</linearGradient>
	<path class="st1" d="M20.139,22.906l-2.804-3.494c-1.127-1.338-1.804-2.207-2.48-3.121H14.79c-0.612,0.914-1.256,1.76-2.352,3.145
		l-2.61,3.471H6.606l6.638-8L6.865,7.093h3.253l2.867,3.708c0.808,1.032,1.418,1.83,1.998,2.674h0.097
		c0.614-0.938,1.161-1.666,1.965-2.674l2.934-3.708h3.254l-6.604,7.696l6.766,8.117H20.139z"/>
</g>
</svg>
